<svg width="25" height="24" viewBox="0 0 25 24" fill="none" xmlns="http://www.w3.org/2000/svg">
<path d="M21.5 7.5V6C21.5 5.46957 21.2893 4.96086 20.9142 4.58579C20.5391 4.21071 20.0304 4 19.5 4H5.5C4.96957 4 4.46086 4.21071 4.08579 4.58579C3.71071 4.96086 3.5 5.46957 3.5 6V20C3.5 20.5304 3.71071 21.0391 4.08579 21.4142C4.46086 21.7893 4.96957 22 5.5 22H9M16.5 2V6M8.5 2V6M3.5 10H8.5M18 17.5L16.5 16.3V14M22.5 16C22.5 19.3137 19.8137 22 16.5 22C13.1863 22 10.5 19.3137 10.5 16C10.5 12.6863 13.1863 10 16.5 10C19.8137 10 22.5 12.6863 22.5 16Z" stroke="#09090B" stroke-width="1.5" stroke-linecap="round" stroke-linejoin="round"/>
</svg>
