<svg width="48" height="48" viewBox="0 0 48 48" fill="none" xmlns="http://www.w3.org/2000/svg">
<path d="M18.8513 27.0667C18.8513 29.9047 21.1605 32.214 23.9985 32.214C26.8365 32.214 29.1458 29.9047 29.1458 27.0667C29.1458 24.2287 26.8365 21.9195 23.9985 21.9195C21.1605 21.9195 18.8513 24.2287 18.8513 27.0667ZM23.9985 23.4195C26.0093 23.4195 27.6458 25.056 27.6458 27.0667C27.6458 29.0775 26.0093 30.714 23.9985 30.714C21.9878 30.714 20.3513 29.0775 20.3513 27.0667C20.3513 25.056 21.9878 23.4195 23.9985 23.4195Z" fill="#831843"/>
<path d="M29.5492 10.1512C29.6896 10.1512 29.8271 10.1119 29.9461 10.0376C30.0652 9.96333 30.161 9.85715 30.2227 9.73114C30.2845 9.60512 30.3096 9.46431 30.2953 9.32472C30.2809 9.18514 30.2278 9.05236 30.1417 8.9415L24.5925 1.79025C24.3082 1.425 23.6917 1.425 23.4075 1.79025L17.8582 8.9415C17.7722 9.05236 17.719 9.18514 17.7047 9.32472C17.6904 9.46431 17.7155 9.60512 17.7772 9.73114C17.839 9.85715 17.9348 9.96333 18.0539 10.0376C18.1729 10.1119 18.3104 10.1512 18.4507 10.1512H21.0525V16.5458C19.7998 16.0173 18.4973 15.6158 17.1645 15.3472C12.3832 14.4045 8.34899 15.3863 5.80499 16.3748C5.66408 16.4295 5.54299 16.5255 5.45761 16.6502C5.37222 16.775 5.32652 16.9226 5.32649 17.0738V20.2253H2.39624C2.19733 20.2253 2.00656 20.3043 1.86591 20.4449C1.72526 20.5856 1.64624 20.7763 1.64624 20.9753V45.75C1.64624 45.9489 1.72526 46.1397 1.86591 46.2803C2.00656 46.421 2.19733 46.5 2.39624 46.5H45.6015C45.8004 46.5 45.9912 46.421 46.1318 46.2803C46.2725 46.1397 46.3515 45.9489 46.3515 45.75V20.9753C46.3515 20.7763 46.2725 20.5856 46.1318 20.4449C45.9912 20.3043 45.8004 20.2253 45.6015 20.2253H42.6712V17.0738C42.6714 16.9225 42.6258 16.7748 42.5404 16.65C42.455 16.5253 42.3338 16.4293 42.1927 16.3748C39.6495 15.387 35.6145 14.4068 30.831 15.348C29.4969 15.6179 28.193 16.0199 26.9385 16.548V10.1512H29.5477H29.5492ZM19.9815 8.65125L23.9992 3.47325L28.017 8.65125H26.1885C25.9896 8.65125 25.7988 8.73027 25.6582 8.87092C25.5175 9.01157 25.4385 9.20234 25.4385 9.40125V19.1303C25.4385 19.143 25.4452 19.1535 25.446 19.1655C25.4494 19.2414 25.4646 19.3163 25.491 19.3875C25.506 19.4288 25.53 19.464 25.5517 19.5015C25.5735 19.5383 25.5952 19.5743 25.623 19.6073C25.6539 19.6429 25.6883 19.6753 25.7257 19.704C25.7565 19.7288 25.788 19.749 25.8225 19.7685C25.865 19.7935 25.91 19.8141 25.9567 19.83C25.9695 19.8338 25.9792 19.8428 25.992 19.8458C26.5794 20.0037 27.1422 20.242 27.6645 20.5538C27.9292 20.7128 28.2637 20.694 28.5097 20.5058L30.6907 18.8235L32.2342 20.3708L30.57 22.539C30.481 22.6551 30.4279 22.7947 30.4172 22.9407C30.4065 23.0866 30.4388 23.2324 30.51 23.3603C30.8122 23.9033 31.0477 24.4785 31.209 25.0702C31.248 25.213 31.3283 25.3409 31.4399 25.4381C31.5515 25.5352 31.6893 25.5972 31.836 25.6162L34.557 25.971V28.1618L31.836 28.5165C31.689 28.5357 31.551 28.598 31.4394 28.6956C31.3278 28.7932 31.2476 28.9216 31.209 29.0647C31.0441 29.6582 30.8071 30.2292 30.5032 30.765C30.4319 30.893 30.3996 31.039 30.4104 31.1851C30.4212 31.3312 30.4746 31.4709 30.564 31.587L32.2335 33.7552L30.69 35.3032L28.5157 33.6338C28.398 33.5435 28.2562 33.4901 28.1082 33.4803C27.9601 33.4706 27.8125 33.5049 27.684 33.579C27.1537 33.887 26.5857 34.125 25.9942 34.287C25.8511 34.3256 25.7227 34.4058 25.6251 34.5174C25.5275 34.629 25.4652 34.767 25.446 34.914L25.092 37.6283H22.908L22.554 34.914C22.5347 34.7666 22.4721 34.6283 22.3741 34.5165C22.2761 34.4048 22.1471 34.3246 22.0035 34.2863C21.413 34.1276 20.8464 33.8905 20.319 33.5813C20.1902 33.5063 20.042 33.4713 19.8933 33.4807C19.7445 33.49 19.6019 33.5433 19.4835 33.6338L17.3092 35.3032L15.765 33.7545L17.4292 31.5863C17.5183 31.4701 17.5714 31.3305 17.582 31.1846C17.5927 31.0387 17.5604 30.8928 17.4892 30.765C17.1845 30.2297 16.9474 29.6585 16.7835 29.0647C16.745 28.9215 16.6649 28.793 16.5533 28.6954C16.4417 28.5977 16.3036 28.5355 16.1565 28.5165L13.4422 28.1625V25.9725L16.155 25.6245C16.3023 25.6057 16.4407 25.5435 16.5526 25.4459C16.6645 25.3483 16.7449 25.2196 16.7835 25.0763C16.9444 24.4793 17.1805 23.9052 17.4862 23.3678C17.5594 23.2395 17.5931 23.0926 17.5831 22.9453C17.5731 22.798 17.5198 22.6569 17.43 22.5398L15.7657 20.3715L17.3085 18.825L19.482 20.5058C19.725 20.694 20.0602 20.7143 20.3257 20.556C20.8472 20.2434 21.4096 20.0049 21.9967 19.8472C22.0117 19.8435 22.023 19.8338 22.0372 19.8285C22.0575 19.8218 22.08 19.8225 22.0995 19.8135C22.1242 19.803 22.143 19.7828 22.1662 19.7693C22.2437 19.7255 22.3134 19.6692 22.3725 19.6028C22.398 19.5728 22.4167 19.5398 22.437 19.506C22.4625 19.464 22.4887 19.4243 22.506 19.3778C22.5217 19.3358 22.5247 19.29 22.533 19.2443C22.5397 19.203 22.5577 19.1648 22.5577 19.1213C22.5577 19.1145 22.554 19.1085 22.554 19.1018V9.4005C22.554 9.20159 22.475 9.01082 22.3343 8.87017C22.1937 8.72952 22.0029 8.6505 21.804 8.6505H19.9837L19.9815 8.65125ZM6.82649 17.595C8.88599 16.8638 12.5707 15.9735 16.872 16.8188C18.3136 17.1082 19.7164 17.5653 21.0517 18.1807V18.5693C20.6955 18.693 20.3467 18.843 20.0077 19.017L17.7015 17.2335C17.5571 17.1216 17.3767 17.0663 17.1944 17.0781C17.0121 17.0898 16.8404 17.1678 16.7115 17.2973L14.2387 19.7775C14.1104 19.9062 14.0332 20.0772 14.0214 20.2586C14.0097 20.4401 14.0643 20.6196 14.175 20.7638L15.945 23.0708C15.7642 23.4345 15.6097 23.8118 15.4807 24.1995L12.5962 24.57C12.4153 24.5932 12.249 24.6815 12.1285 24.8184C12.0079 24.9554 11.9415 25.1316 11.9415 25.314V28.8225C11.9415 29.199 12.2212 29.5178 12.5947 29.5665L15.4822 29.943C15.6075 30.3143 15.7612 30.6825 15.9465 31.056L14.175 33.3645C14.0643 33.5087 14.0097 33.6882 14.0214 33.8696C14.0332 34.051 14.1104 34.222 14.2387 34.3507L16.7115 36.831C16.8401 36.96 17.0113 37.0377 17.1931 37.0497C17.3748 37.0617 17.5548 37.0072 17.6992 36.8963L20.0092 35.1225C20.3722 35.3063 20.7457 35.463 21.1282 35.5913L21.5047 38.4773C21.5282 38.6579 21.6167 38.8239 21.7536 38.9441C21.8905 39.0643 22.0665 39.1306 22.2487 39.1305H23.2492V41.5343C23.0827 41.4398 22.911 41.3618 22.7422 41.2718C22.5307 41.1593 22.32 41.0475 22.1062 40.9425C21.7786 40.7839 21.4467 40.6341 21.111 40.4933C20.91 40.4078 20.7105 40.3185 20.5072 40.2397C20.1166 40.0911 19.7214 39.9545 19.3222 39.8302C19.1707 39.7822 19.0215 39.726 18.8685 39.6818C18.3069 39.5168 17.7383 39.3764 17.1645 39.261C16.6911 39.1692 16.2146 39.0949 15.7357 39.0382C15.6712 39.03 15.6075 39.0218 15.5437 39.015C15.0931 38.9631 14.6409 38.9266 14.1877 38.9055C14.1397 38.9033 14.094 38.904 14.046 38.9018C13.7966 38.8912 13.5471 38.8852 13.2975 38.8838C13.2157 38.8838 13.1332 38.8928 13.0515 38.8935C12.6937 38.898 12.3457 38.9138 12.0022 38.9355C11.8545 38.9453 11.7075 38.9498 11.5597 38.9618C11.0475 39.0053 10.5495 39.0645 10.0717 39.1403C10.0222 39.1478 9.97349 39.1598 9.92474 39.1673C9.35681 39.262 8.79307 39.3804 8.23499 39.522C7.74599 39.645 7.27574 39.7755 6.84449 39.915L6.82574 39.9203V17.5958L6.82649 17.595ZM42.6735 21.7253H44.8522V45H3.14699V21.7253H5.32574V40.9808C5.32593 41.1023 5.35561 41.2219 5.41224 41.3294C5.46886 41.437 5.55074 41.5291 5.65084 41.598C5.75094 41.6669 5.86626 41.7105 5.98691 41.725C6.10756 41.7395 6.22992 41.7245 6.34349 41.6813C6.39299 41.6625 6.45149 41.6438 6.50249 41.625C6.82923 41.5036 7.1591 41.3909 7.49174 41.2868C7.62674 41.244 7.76999 41.2043 7.91099 41.163C8.33948 41.0389 8.77196 40.9291 9.20774 40.8338C9.45671 40.7796 9.70676 40.7306 9.95774 40.6868C10.146 40.653 10.3365 40.6215 10.5315 40.5923C11.2072 40.4963 11.8873 40.4337 12.5692 40.4048C12.8287 40.395 13.092 40.3905 13.359 40.392C13.5532 40.392 13.7475 40.3943 13.941 40.401C14.2717 40.413 14.6085 40.4363 14.9497 40.467C15.0877 40.479 15.2257 40.488 15.3637 40.503C15.8699 40.5591 16.3736 40.6359 16.8735 40.7333C18.4438 41.0445 19.9672 41.5578 21.4057 42.2603C22.1585 42.625 22.887 43.0379 23.5867 43.4963C23.5957 43.5023 23.6055 43.5038 23.6145 43.509C23.6242 43.515 23.6317 43.5233 23.6422 43.5293C23.673 43.5458 23.7067 43.5548 23.739 43.5668C23.76 43.5743 23.7787 43.5848 23.8005 43.5908C23.8657 43.6087 23.9317 43.6193 23.9992 43.6193C24.0667 43.6193 24.1327 43.6087 24.198 43.5908C24.219 43.5848 24.2385 43.575 24.2595 43.5668C24.2917 43.5548 24.3255 43.5458 24.3562 43.5293C24.3667 43.524 24.3742 43.515 24.384 43.509C24.393 43.5038 24.4027 43.5015 24.4117 43.4963C25.148 43.0136 25.916 42.5811 26.7105 42.2018C28.1149 41.5284 29.5986 41.0348 31.1265 40.7325C31.6228 40.6353 32.123 40.559 32.6257 40.5038C32.7772 40.4865 32.9302 40.4775 33.0817 40.464C33.4057 40.4355 33.7267 40.413 34.0417 40.4018C34.4976 40.3871 34.9539 40.3879 35.4097 40.404C35.8525 40.4197 36.2946 40.4517 36.735 40.5C37.1672 40.5442 37.5975 40.6052 38.025 40.683C38.4469 40.7564 38.8662 40.8445 39.282 40.947C39.555 41.0138 39.8272 41.0872 40.0987 41.166C40.2345 41.2058 40.3732 41.244 40.503 41.2853C40.8367 41.3895 41.169 41.5035 41.499 41.6265C41.5485 41.6453 41.607 41.6632 41.655 41.682C41.7686 41.7252 41.8909 41.7402 42.0116 41.7257C42.1322 41.7112 42.2475 41.6677 42.3476 41.5988C42.4477 41.5299 42.5296 41.4377 42.5862 41.3302C42.6429 41.2227 42.6726 41.103 42.6727 40.9815V21.726L42.6735 21.7253ZM31.1242 16.8188C35.43 15.9727 39.1132 16.8638 41.172 17.595V39.9195C41.1592 39.915 41.1457 39.912 41.133 39.9082C40.7617 39.7892 40.3874 39.6802 40.0102 39.5813C39.873 39.5453 39.7357 39.5145 39.5985 39.4808C39.3342 39.4158 39.0686 39.3561 38.802 39.3015C38.6357 39.2683 38.4689 39.2373 38.3017 39.2085C37.8696 39.1319 37.4351 39.0689 36.999 39.0195C36.5519 38.9685 36.1031 38.933 35.6535 38.913C35.1821 38.8898 34.71 38.8846 34.2382 38.8973C34.0417 38.9017 33.8467 38.9055 33.6472 38.916C33.3262 38.9325 33.006 38.9618 32.6865 38.994C32.5507 39.0075 32.4172 39.0165 32.28 39.0337C31.7955 39.093 31.3132 39.165 30.8347 39.2603C30.2602 39.3735 29.6925 39.5175 29.1315 39.6803C28.9777 39.7245 28.8277 39.7815 28.6755 39.8295C28.278 39.9555 27.882 40.0875 27.4927 40.2383C27.2895 40.317 27.09 40.407 26.889 40.4917C26.5545 40.6343 26.2215 40.7805 25.8937 40.941C25.68 41.046 25.4692 41.1578 25.2577 41.2703C25.0897 41.3603 24.9172 41.4383 24.7507 41.5327V39.129H25.7512C26.1277 39.129 26.4465 38.8493 26.4952 38.4757L26.8717 35.5882C27.2505 35.4608 27.624 35.304 27.9892 35.1195L30.3007 36.8948C30.445 37.0061 30.6251 37.061 30.807 37.049C30.9889 37.037 31.1601 36.9589 31.2885 36.8295L33.7612 34.3493C33.8897 34.2204 33.9669 34.0492 33.9785 33.8676C33.9901 33.686 33.9352 33.5064 33.8242 33.3623L32.0467 31.0537C32.2312 30.6817 32.385 30.3135 32.5102 29.9423L35.4045 29.5658C35.5852 29.5422 35.7511 29.4538 35.8713 29.3169C35.9915 29.1799 36.0578 29.004 36.0577 28.8218V25.3133C36.0577 24.9368 35.778 24.618 35.4045 24.5693L32.5102 24.1928C32.3819 23.8102 32.2288 23.4364 32.052 23.0738L33.8242 20.7638C33.9349 20.6196 33.9895 20.4401 33.9778 20.2586C33.9661 20.0772 33.8888 19.9062 33.7605 19.7775L31.2877 17.2973C31.1589 17.168 30.9874 17.0901 30.8053 17.0783C30.6232 17.0664 30.443 17.1213 30.2985 17.2327L27.9855 19.017C27.6479 18.8437 27.2985 18.6943 26.94 18.57V18.1815C28.2776 17.5669 29.6812 17.1096 31.1242 16.8188Z" fill="#831843"/>
</svg>
