<svg width="48" height="48" viewBox="0 0 48 48" fill="none" xmlns="http://www.w3.org/2000/svg">
<path d="M40.5751 24.75V23.25C40.9891 23.25 41.3251 22.9142 41.3251 22.5V18C41.3251 17.5858 40.9891 17.25 40.5751 17.25H36.5251L36.3797 16.6866C36.0482 15.398 35.5329 14.1638 34.8496 13.0221L34.5496 12.5204L37.4251 9.63983C37.7146 9.3498 37.7146 8.87985 37.4251 8.58983L34.2399 5.4C34.0984 5.26502 33.9103 5.18971 33.7147 5.18971C33.5192 5.18971 33.3311 5.26502 33.1896 5.4L30.3088 8.28075L29.8073 7.98075C28.664 7.29721 27.4283 6.78169 26.1382 6.45L25.5751 6.30352V2.25C25.5751 1.83578 25.2393 1.5 24.8251 1.5H20.3251C19.9108 1.5 19.5751 1.83578 19.5751 2.25V6.3L19.0117 6.44558C17.723 6.77705 16.4888 7.29199 15.3466 7.9746L14.8448 8.2749L11.9648 5.4C11.8231 5.26397 11.6343 5.18801 11.4379 5.18801C11.2415 5.18801 11.0527 5.26397 10.9111 5.4L7.72506 8.58518C7.65568 8.65436 7.60063 8.73655 7.56307 8.82705C7.52551 8.91754 7.50618 9.01456 7.50618 9.11254C7.50618 9.21052 7.52551 9.30753 7.56307 9.39803C7.60063 9.48852 7.65568 9.57072 7.72506 9.6399L10.6058 12.5203L10.3058 13.0222C9.62259 14.1639 9.10735 15.3981 8.77596 16.6867L8.62881 17.25H4.57506C4.16083 17.25 3.82506 17.5858 3.82506 18V22.5C3.82506 22.9142 4.16083 23.25 4.57506 23.25V24.75C3.33261 24.75 2.32506 23.7425 2.32506 22.5V18C2.32506 16.7576 3.33261 15.75 4.57506 15.75H7.47688C7.78621 14.713 8.20457 13.7117 8.72496 12.7629L6.66246 10.7004C6.24058 10.2794 6.00358 9.70815 6.00358 9.1125C6.00358 8.51685 6.24058 7.94558 6.66246 7.5249L9.84996 4.3374C10.738 3.4875 12.1381 3.4875 13.0261 4.3374L15.088 6.399C16.0368 5.87917 17.0381 5.46134 18.0751 5.1525V2.25C18.0751 1.00755 19.0826 0 20.3251 0H24.8251C26.0675 0 27.0751 1.00755 27.0751 2.25V5.1525C28.112 5.46165 29.1133 5.87978 30.0622 6.3999L32.1247 4.3374C33.013 3.4875 34.4128 3.4875 35.3011 4.3374L38.488 7.524C38.6967 7.73235 38.8622 7.97982 38.9752 8.25224C39.0882 8.52466 39.1463 8.81669 39.1462 9.1116C39.1463 9.40656 39.0882 9.69864 38.9753 9.97111C38.8623 10.2436 38.6967 10.4911 38.488 10.6995L36.4255 12.762C36.9454 13.7113 37.3637 14.7129 37.6732 15.75H40.5751C41.8175 15.75 42.8251 16.7576 42.8251 18V22.5C42.8251 23.7425 41.8175 24.75 40.5751 24.75Z" fill="#9A3412"/>
<path d="M33.0751 20.25H31.5751C31.5751 15.2795 27.5455 11.25 22.5751 11.25C17.6046 11.25 13.5751 15.2795 13.5751 20.25H12.0751C12.0751 14.451 16.7761 9.75 22.5751 9.75C28.3738 9.75 33.0751 14.451 33.0751 20.25Z" fill="#9A3412"/>
<path d="M22.5751 26.25C20.0898 26.25 18.0751 24.235 18.0751 21.75C18.0751 19.2647 20.0898 17.25 22.5751 17.25C25.0606 17.25 27.0751 19.2647 27.0751 21.75C27.0724 24.2344 25.0594 26.2474 22.5751 26.25ZM22.5751 18.75C20.9183 18.75 19.5751 20.0933 19.5751 21.75C19.5751 23.4068 20.9183 24.75 22.5751 24.75C24.2318 24.75 25.5751 23.4068 25.5751 21.75C25.5751 20.0933 24.2318 18.75 22.5751 18.75ZM35.3251 29.25C32.8398 29.25 30.8251 27.235 30.8251 24.75C30.8251 22.2647 32.8398 20.25 35.3251 20.25C37.8103 20.25 39.8251 22.2647 39.8251 24.75C39.8224 27.2344 37.8094 29.2474 35.3251 29.25ZM35.3251 21.75C33.6683 21.75 32.3251 23.0933 32.3251 24.75C32.3251 26.4068 33.6683 27.75 35.3251 27.75C36.9818 27.75 38.3251 26.4068 38.3251 24.75C38.3251 23.0933 36.9818 21.75 35.3251 21.75ZM9.82506 29.25C7.33978 29.25 5.32506 27.235 5.32506 24.75C5.32506 22.2647 7.33978 20.25 9.82506 20.25C12.3106 20.25 14.3251 22.2647 14.3251 24.75C14.3224 27.2344 12.3094 29.2474 9.82506 29.25ZM9.82506 21.75C8.16831 21.75 6.82506 23.0933 6.82506 24.75C6.82506 26.4068 8.16831 27.75 9.82506 27.75C11.4818 27.75 12.8251 26.4068 12.8251 24.75C12.8251 23.0933 11.4818 21.75 9.82506 21.75Z" fill="#9A3412"/>
<path d="M42.1243 31.1742C41.0066 30.4059 39.6813 29.9963 38.3251 30H32.3251C31.9602 30.0033 31.5962 30.0363 31.2367 30.0987C30.7566 29.3481 30.1324 28.7004 29.4001 28.1929C29.2903 28.11 29.1747 28.0349 29.0543 27.9682C28.0051 27.333 26.8016 26.9981 25.5751 27H19.5751C18.4467 26.996 17.3357 27.2782 16.346 27.8201C15.3563 28.362 14.5201 29.1459 13.9156 30.0987C13.5553 30.0363 13.1906 30.0033 12.8251 30H6.82506C5.46961 29.9963 4.14517 30.4054 3.02788 31.1728C2.11856 31.7915 1.37421 32.623 0.859575 33.5951C0.344944 34.5671 0.0756271 35.6501 0.075058 36.75V39.75C0.077683 41.7979 1.26921 43.6576 3.12928 44.5155C3.81587 44.8389 4.56615 45.0044 5.32506 45H12.8251V43.5H6.07506V35.25H4.57506V43.4247C4.29274 43.368 4.01844 43.2769 3.75831 43.1534C3.10768 42.8534 2.55642 42.3736 2.16958 41.7706C1.78274 41.1676 1.57645 40.4664 1.57506 39.75V36.75C1.57596 35.8941 1.78592 35.0513 2.18667 34.295C2.58742 33.5387 3.16684 32.8917 3.87456 32.4103C4.74287 31.8144 5.77196 31.4969 6.82506 31.5H12.8251C12.9572 31.5 13.0846 31.5141 13.2136 31.5229C12.9598 32.2381 12.8284 32.9911 12.8251 33.75V41.25C12.8277 43.3201 14.5052 44.9974 16.5751 45H18.8251V33H17.3251V43.5H16.5751C15.3326 43.5 14.3251 42.4924 14.3251 41.25V33.75C14.3251 30.8502 16.6759 28.5 19.5751 28.5H25.5751C26.54 28.5007 27.486 28.7677 28.3088 29.2717C28.3849 29.3133 28.458 29.36 28.5276 29.4117C29.2303 29.8929 29.8071 30.5359 30.2092 31.2867C30.6134 32.0449 30.8249 32.8908 30.8251 33.75V41.25C30.8251 42.4924 29.8175 43.5 28.5751 43.5H27.8251V33H26.3251V45H28.5751C30.6452 44.9974 32.3224 43.3201 32.3251 41.25V33.75C32.3216 32.9911 32.1905 32.2382 31.9372 31.5229C32.0664 31.514 32.1938 31.5 32.3251 31.5H38.3251C39.379 31.4971 40.4088 31.8151 41.2776 32.4117C41.9847 32.8933 42.5635 33.5401 42.9639 34.2962C43.3643 35.0522 43.5741 35.8945 43.5751 36.75V39.75C43.5737 40.4688 43.3661 41.1722 42.9769 41.7765C42.5877 42.3808 42.0332 42.8608 41.3793 43.1593C41.1231 43.2805 40.853 43.3696 40.5751 43.4248V35.25H39.0751V43.5H32.3251V45H39.8251C40.5794 45.0047 41.3252 44.8412 42.0083 44.5213C43.8745 43.6661 45.0721 41.8028 45.0751 39.75V36.75C45.0745 35.6506 44.8054 34.5679 44.2911 33.5962C43.7769 32.6244 43.033 31.793 42.1243 31.1742Z" fill="#9A3412"/>
<path d="M19.5751 43.5H25.5751V45H19.5751V43.5Z" fill="#9A3412"/>
</svg>
