<svg width="48" height="48" viewBox="0 0 48 48" fill="none" xmlns="http://www.w3.org/2000/svg">
<g clip-path="url(#clip0_802_59395)">
<path d="M24.0001 40.0028C22.6748 40.0028 21.6006 41.0772 21.6006 42.4023C21.6006 43.7275 22.6749 44.8018 24.0001 44.8018C25.3252 44.8018 26.3996 43.7275 26.3996 42.4023C26.3996 41.0771 25.3252 40.0028 24.0001 40.0028ZM24.0001 43.2021C23.7879 43.2021 23.5845 43.1179 23.4345 42.9679C23.2845 42.8179 23.2003 42.6145 23.2003 42.4023C23.2003 42.1902 23.2845 41.9868 23.4345 41.8368C23.5845 41.6868 23.7879 41.6025 24.0001 41.6025C24.2122 41.6025 24.4156 41.6868 24.5656 41.8368C24.7156 41.9868 24.7999 42.1902 24.7999 42.4023C24.7999 42.6145 24.7156 42.8179 24.5656 42.9679C24.4156 43.1179 24.2122 43.2021 24.0001 43.2021Z" fill="#14532D"/>
<path d="M43.3704 17.0628C45.9225 15.2468 47.0073 11.9888 46.0534 9.00534C45.0994 6.0218 42.3258 3.9977 39.1935 3.9992C36.0612 4.0007 33.2894 6.02752 32.3383 9.0119C31.3872 11.9963 32.4752 15.2532 35.029 17.0668C34.1854 17.3138 33.4012 17.7308 32.7247 18.2921C32.3625 15.8085 30.5837 13.7648 28.1736 13.0637C30.7252 11.248 31.8101 7.99099 30.8571 5.00783C29.904 2.02467 27.1317 0 24 0C20.8684 0 18.0961 2.02467 17.143 5.00783C16.19 7.99099 17.275 11.248 19.8265 13.0637C17.4164 13.7649 15.6376 15.8085 15.2754 18.2921C14.5989 17.7308 13.8147 17.3138 12.9711 17.0668C15.5249 15.2532 16.6129 11.9964 15.6618 9.0119C14.7107 6.02752 11.9389 4.0007 8.80663 3.9992C5.67435 3.9977 2.90059 6.0219 1.94669 9.00534C0.992797 11.9888 2.07754 15.2468 4.62972 17.0628C1.89411 17.8553 0.0099399 20.3582 0.00506592 23.2063V30.0049C0.00617781 30.544 0.162925 31.0713 0.456475 31.5235C0.750026 31.9757 1.16789 32.3335 1.65988 32.554C1.93066 34.5263 3.61303 35.9978 5.60386 36.0036H10.5052C11.3123 42.845 17.1111 48 24 48C30.8888 48 36.6877 42.845 37.4947 36.0036H42.3961C44.3849 35.9957 46.0648 34.5257 46.3369 32.5556C46.8297 32.3355 47.2484 31.9776 47.5426 31.5251C47.8368 31.0726 47.9939 30.5446 47.9949 30.0049V23.2063C47.9902 20.3582 46.106 17.8553 43.3704 17.0628ZM33.598 11.2088C33.598 8.11668 36.1048 5.61005 39.1968 5.61005C42.2889 5.61005 44.7956 8.11677 44.7956 11.2088C44.7956 14.3009 42.2889 16.8076 39.1968 16.8076C36.1064 16.8037 33.602 14.2993 33.598 11.2088ZM18.4012 7.20965C18.4012 4.11748 20.9079 1.61085 24 1.61085C27.092 1.61085 29.5988 4.11758 29.5988 7.20965C29.5988 10.3017 27.0921 12.8084 24 12.8084C20.9095 12.8045 18.4052 10.3001 18.4012 7.20965ZM21.6006 14.4081H26.3996C29.0488 14.4108 31.1959 16.5579 31.1985 19.2071V22.8863C30.4399 22.4111 29.6361 22.0119 28.799 21.6946V19.207C28.799 18.7653 28.441 18.4072 27.9992 18.4072C27.5575 18.4072 27.1994 18.7653 27.1994 19.207V21.2066C25.0992 20.6787 22.901 20.6787 20.8008 21.2066V19.207C20.8008 18.9949 20.7165 18.7915 20.5665 18.6415C20.4165 18.4915 20.2131 18.4072 20.0009 18.4072C19.7888 18.4072 19.5854 18.4915 19.4354 18.6415C19.2854 18.7915 19.2011 18.9949 19.2011 19.207V21.6977C18.364 22.015 17.5603 22.4142 16.8016 22.8895V19.2071C16.8042 16.5579 18.9512 14.4108 21.6006 14.4081ZM3.20437 11.2088C3.20437 8.11668 5.71109 5.61005 8.80316 5.61005C11.8952 5.61005 14.402 8.11677 14.402 11.2088C14.402 14.3009 11.8952 16.8076 8.80316 16.8076C5.71269 16.8037 3.2083 14.2993 3.20437 11.2088ZM5.60386 34.404C5.09999 34.4022 4.60952 34.2416 4.20226 33.9449C3.79499 33.6482 3.49168 33.2306 3.33549 32.7516C4.65447 32.5019 5.60799 31.3473 5.60386 30.005V23.2064C5.60386 22.9943 5.5196 22.7909 5.36961 22.6409C5.21962 22.4909 5.01618 22.4066 4.80406 22.4066C4.59194 22.4066 4.38851 22.4909 4.23852 22.6409C4.08853 22.7909 4.00426 22.9943 4.00426 23.2064V30.005C4.00426 30.6676 3.46709 31.2047 2.80451 31.2047C2.14193 31.2047 1.60476 30.6676 1.60476 30.005V23.2064C1.60739 20.5571 3.75447 18.4101 6.40376 18.4074H11.2028C11.9974 18.4044 12.78 18.6011 13.4788 18.9795C14.1776 19.3578 14.7701 19.9056 15.202 20.5726V24.0559C14.6252 24.5455 14.0901 25.0822 13.6023 25.6604V23.2065C13.6023 22.9944 13.518 22.791 13.368 22.641C13.218 22.491 13.0146 22.4067 12.8025 22.4067C12.5903 22.4067 12.3869 22.491 12.2369 22.641C12.0869 22.791 12.0027 22.9944 12.0027 23.2065V28.0191C10.951 29.983 10.4014 32.1765 10.403 34.4042H5.60386V34.404ZM24 46.4015C17.3741 46.4015 12.0026 41.03 12.0026 34.404C12.0026 27.778 17.3741 22.4065 24 22.4065C30.626 22.4065 35.9975 27.778 35.9975 34.404C35.99 41.0269 30.6229 46.394 24 46.4015ZM46.3953 30.0049C46.3953 30.6675 45.8582 31.2046 45.1956 31.2046C44.533 31.2046 43.9958 30.6675 43.9958 30.0049V23.2063C43.9958 22.9942 43.9116 22.7908 43.7616 22.6408C43.6116 22.4908 43.4082 22.4065 43.196 22.4065C42.9839 22.4065 42.7805 22.4908 42.6305 22.6408C42.4805 22.7908 42.3962 22.9942 42.3962 23.2063V30.0049C42.3921 31.3473 43.3456 32.5019 44.6646 32.7515C44.5084 33.2305 44.2051 33.6481 43.7978 33.9448C43.3906 34.2415 42.9001 34.4021 42.3962 34.4039H37.5972C37.5987 32.1762 37.0492 29.9827 35.9975 28.0188V23.2062C35.9975 22.9941 35.9133 22.7907 35.7633 22.6407C35.6133 22.4907 35.4099 22.4064 35.1977 22.4064C34.9856 22.4064 34.7822 22.4907 34.6322 22.6407C34.4822 22.7907 34.3979 22.9941 34.3979 23.2062V25.6601C33.9101 25.0819 33.375 24.5452 32.7982 24.0556V20.5723C33.2301 19.9053 33.8226 19.3575 34.5214 18.9792C35.2202 18.6008 36.0028 18.4042 36.7974 18.4072H41.5964C44.2457 18.4098 46.3928 20.5569 46.3954 23.2062V30.0049H46.3953Z" fill="#14532D"/>
<path d="M25.0982 24.0982C24.1956 23.9425 23.27 23.9822 22.384 24.2146C21.498 24.4469 20.6722 24.8665 19.9621 25.4451C19.252 26.0237 18.6742 26.7478 18.2676 27.5686C17.8611 28.3894 17.6353 29.2878 17.6054 30.2033C17.534 31.4426 18.3932 32.5425 19.613 32.7732C19.9564 32.8295 20.3079 32.8105 20.6432 32.7173C20.9785 32.6242 21.2895 32.4593 21.5547 32.234C21.8198 32.0087 22.0328 31.7284 22.1789 31.4126C22.3249 31.0967 22.4005 30.7529 22.4004 30.4049C22.396 29.584 23.0137 28.893 23.8299 28.8058C24.6462 28.7185 25.396 29.2633 25.5653 30.0666C25.6115 30.2795 25.6137 30.4996 25.5718 30.7134C25.5299 30.9272 25.4448 31.1301 25.3217 31.3099C25.1986 31.4896 25.04 31.6423 24.8558 31.7586C24.6716 31.8749 24.4655 31.9523 24.2503 31.9862C22.7358 32.2782 21.6314 33.589 21.6005 35.1311V35.9181C21.5855 37.112 22.4276 38.1453 23.6 38.3713C23.7323 38.3925 23.866 38.4032 24 38.4032C25.1938 38.4052 26.2075 37.5292 26.3787 36.3476C29.0397 35.2872 30.6717 32.5876 30.374 29.7387C30.0764 26.8897 27.9216 24.5857 25.0989 24.0983L25.0982 24.0982ZM25.371 35.0046C25.206 35.0539 25.0613 35.155 24.9584 35.2931C24.8555 35.4311 24.7999 35.5987 24.7999 35.7709V36.0036C24.7999 36.1205 24.7743 36.236 24.7249 36.342C24.6755 36.4479 24.6035 36.5418 24.5139 36.6169C24.4243 36.692 24.3193 36.7465 24.2064 36.7767C24.0934 36.8069 23.9752 36.8119 23.8601 36.7914C23.6664 36.7441 23.495 36.6313 23.3747 36.4722C23.2545 36.3131 23.1929 36.1173 23.2003 35.9181V35.131C23.2126 34.7633 23.3467 34.41 23.5815 34.1267C23.8163 33.8434 24.1385 33.6461 24.4976 33.5657C26.0373 33.3256 27.18 32.011 27.2035 30.4529C27.227 28.8948 26.1246 27.5464 24.5928 27.2599C24.3989 27.224 24.2021 27.2058 24.0049 27.2055C23.5844 27.2049 23.1678 27.2872 22.7791 27.4477C22.3904 27.6082 22.0371 27.8437 21.7395 28.1409C21.4419 28.438 21.2058 28.7909 21.0448 29.1794C20.8837 29.5679 20.8008 29.9843 20.8008 30.4048C20.8008 30.5207 20.7757 30.6353 20.727 30.7405C20.6784 30.8458 20.6075 30.9392 20.5192 31.0143C20.4293 31.0897 20.3241 31.1448 20.2109 31.1757C20.0977 31.2066 19.9791 31.2127 19.8634 31.1934C19.6586 31.1422 19.4791 31.0191 19.3575 30.8466C19.2359 30.6741 19.1804 30.4636 19.2011 30.2535C19.2786 27.8029 21.1911 25.8047 23.636 25.62C26.081 25.4352 28.272 27.1232 28.717 29.5344C29.1619 31.9457 27.7176 34.3046 25.3678 35.0046H25.371V35.0046Z" fill="#14532D"/>
</g>
<defs>
<clipPath id="clip0_802_59395">
<rect width="48" height="48" fill="white"/>
</clipPath>
</defs>
</svg>
