<svg width="48" height="48" viewBox="0 0 48 48" fill="none" xmlns="http://www.w3.org/2000/svg">
<path d="M20.25 26.25C21.075 26.25 21.75 26.925 21.75 27.75C21.75 28.1625 22.0875 28.5 22.5 28.5C22.9125 28.5 23.25 28.1625 23.25 27.75C23.25 26.0925 21.9075 24.75 20.25 24.75H19.5V23.25C19.5 22.8375 19.1625 22.5 18.75 22.5C18.3375 22.5 18 22.8375 18 23.25V24.75H17.25C15.5925 24.75 14.25 26.0925 14.25 27.75C14.25 29.4075 15.5925 30.75 17.25 30.75H18V33.75H17.25C16.425 33.75 15.75 33.075 15.75 32.25C15.75 31.8375 15.4125 31.5 15 31.5C14.5875 31.5 14.25 31.8375 14.25 32.25C14.25 33.9075 15.5925 35.25 17.25 35.25H18V36.75C18 37.1625 18.3375 37.5 18.75 37.5C19.1625 37.5 19.5 37.1625 19.5 36.75V35.25H20.25C21.9075 35.25 23.25 33.9075 23.25 32.25C23.25 30.5925 21.9075 29.25 20.25 29.25H19.5V26.25H20.25ZM20.25 30.75C21.075 30.75 21.75 31.425 21.75 32.25C21.75 33.075 21.075 33.75 20.25 33.75H19.5V30.75H20.25ZM18 29.25H17.25C16.425 29.25 15.75 28.575 15.75 27.75C15.75 26.925 16.425 26.25 17.25 26.25H18V29.25Z" fill="#0891B2"/>
<path d="M39.75 30C39.2475 30 38.7375 30.03 38.25 30.0825V21.75C38.25 20.1975 35.61 19.5 33 19.5C31.785 19.5 30.57 19.65 29.61 19.9725C28.125 17.8875 26.43 15.96 24.7275 14.4375C24.99 14.205 25.1925 13.9275 25.32 13.62C25.7925 13.755 26.49 14.07 27.2175 14.79C28.92 16.4925 31.395 16.5075 31.5 16.5075C31.9125 16.5075 32.25 16.17 32.25 15.7575C32.25 15.345 31.92 15.0075 31.5 15.0075C31.4775 15.0075 29.5275 14.9775 28.275 13.725C27.5625 13.0125 26.8425 12.5925 26.235 12.3525C26.595 12.1575 27.0825 12.0075 27.7425 12.0075C30.1425 12.0075 31.7625 11.2125 31.83 11.175C32.1975 10.9875 32.3475 10.545 32.1675 10.17C32.0789 9.99205 31.9233 9.85654 31.7349 9.79325C31.5464 9.72997 31.3405 9.74409 31.1625 9.83251C31.1475 9.83251 29.775 10.5075 27.7425 10.5075C26.46 10.5075 25.5825 10.9275 24.9975 11.37C24.7425 11.0475 24.4125 10.8075 24.0375 10.665L26.625 5.70001C26.8651 5.27422 26.9917 4.79383 26.9925 4.30501C26.9925 3.43501 26.595 2.61751 25.9275 2.12251C25.02 1.45501 23.8125 1.52251 22.9875 2.28751L22.7925 2.47501C22.4175 2.84251 22.2375 3.00751 21.8025 3.00751C21.3675 3.00751 21.18 2.84251 20.7975 2.47501C20.385 2.07001 19.815 1.50751 18.75 1.50751C17.685 1.50751 17.115 2.06251 16.7025 2.47501C16.3275 2.85001 16.14 3.00751 15.6975 3.00751C15.255 3.00751 15.075 2.84251 14.7075 2.47501L14.5125 2.28751C13.7175 1.53001 12.42 1.47001 11.5725 2.11501C10.485 2.91751 10.1775 4.49251 10.86 5.67751L13.455 10.6575C13.455 10.6575 13.395 10.6725 13.365 10.6875C12.8175 10.9275 12.39 11.3625 12.165 11.925C11.805 12.8325 12.0825 13.8225 12.7725 14.4375C7.9275 18.7875 3 26.4825 3 32.235C3 40.11 9.0375 45.0075 18.75 45.0075C21.2325 45.0075 23.4825 44.67 25.5 44.04V44.2575C25.5 45.81 28.14 46.5075 30.75 46.5075C33.36 46.5075 35.8275 45.855 35.985 44.4C36.99 44.8125 38.37 45.0075 39.75 45.0075C42.36 45.0075 45 44.31 45 42.7575V32.2575C45 30.705 42.36 30.0075 39.75 30.0075V30ZM43.4325 32.25C43.08 32.5275 41.82 33 39.75 33C37.68 33 36.42 32.5275 36.0675 32.25C36.42 31.9725 37.68 31.5 39.75 31.5C41.82 31.5 43.08 31.9725 43.4325 32.25ZM34.5 32.25V38.1C33.5025 37.695 32.1225 37.5 30.75 37.5C30.2475 37.5 29.7375 37.53 29.25 37.5825V23.4C30.2475 23.805 31.6275 24 33 24C34.3725 24 35.7525 23.805 36.75 23.4V30.3525C35.4375 30.705 34.5 31.32 34.5 32.25ZM30.75 39C32.82 39 34.08 39.4725 34.4325 39.75C34.08 40.0275 32.82 40.5 30.75 40.5C28.68 40.5 27.42 40.0275 27.0675 39.75C27.42 39.4725 28.68 39 30.75 39ZM36.6825 21.75C36.33 22.0275 35.07 22.5 33 22.5C30.93 22.5 29.67 22.0275 29.3175 21.75C29.67 21.4725 30.93 21 33 21C35.07 21 36.33 21.4725 36.6825 21.75ZM13.9725 13.4475C13.59 13.2975 13.4025 12.855 13.5525 12.4725C13.6275 12.285 13.77 12.1425 13.95 12.06C14.0475 12.0225 14.145 12 14.25 12C14.34 12 14.4375 12.015 14.5275 12.0525C16.7775 12.945 20.7225 12.945 22.9725 12.0525C23.3625 11.9025 23.7975 12.09 23.9475 12.4725C24.0975 12.855 23.91 13.29 23.5275 13.4475C22.2225 13.965 20.5275 14.25 18.75 14.25C16.9725 14.25 15.2775 13.965 13.9725 13.4475ZM12.465 3.31501C12.765 3.09001 13.1925 3.09751 13.4775 3.37501L13.65 3.54001C14.0625 3.94501 14.625 4.50001 15.6975 4.50001C16.77 4.50001 17.34 3.93751 17.7525 3.53251C18.1275 3.16501 18.315 3.00001 18.75 3.00001C19.185 3.00001 19.3725 3.16501 19.7475 3.53251C20.16 3.93751 20.73 4.50001 21.8025 4.50001C22.875 4.50001 23.4375 3.94501 23.85 3.54001L24.0225 3.37501C24.315 3.10501 24.7275 3.08251 25.0425 3.31501C25.335 3.53251 25.5075 3.90001 25.5075 4.29751C25.5075 4.52251 25.4475 4.75501 25.32 4.98001L22.3425 10.6875C20.46 11.4 17.0325 11.4 15.1575 10.6875L12.1725 4.95751C11.8575 4.41001 11.985 3.67501 12.4725 3.31501H12.465ZM18.75 43.5C9.825 43.5 4.5 39.285 4.5 32.2275C4.5 26.7 9.51 19.1475 14.265 15.12C15.5925 15.525 17.1375 15.75 18.75 15.75C20.3625 15.75 21.9075 15.525 23.235 15.12C24.9525 16.5825 26.745 18.555 28.275 20.6775C27.945 20.9775 27.75 21.33 27.75 21.75V37.8525C26.4375 38.205 25.5 38.82 25.5 39.75V42.4575C23.5275 43.14 21.2625 43.5 18.75 43.5ZM34.5 44.19C34.2825 44.4525 32.9925 45 30.75 45C28.5075 45 27.2175 44.445 27 44.19V41.4C27.9975 41.805 29.3775 42 30.75 42C32.1225 42 33.5025 41.805 34.5 41.4V44.19ZM39.75 43.5C37.5075 43.5 36.2175 42.945 36 42.69V33.9C36.9975 34.305 38.3775 34.5 39.75 34.5C41.1225 34.5 42.5025 34.305 43.5 33.9V42.69C43.2825 42.9525 41.9925 43.5 39.75 43.5Z" fill="#0891B2"/>
</svg>
