<svg width="28" height="28" viewBox="0 0 28 28" fill="none" xmlns="http://www.w3.org/2000/svg">
<g clip-path="url(#clip0_888_67565)">
<path d="M27.154 7.10172C26.4195 4.39578 23.6053 1.58211 20.8994 0.847109C19.2402 0.433672 17.0177 0.00765625 14.0005 0C10.9834 0.00765625 8.76094 0.433125 7.10172 0.847109C4.39633 1.58211 1.58211 4.39578 0.847109 7.10172C0.433672 8.76039 0.00765625 10.9834 0 14.0005C0.00765625 17.0177 0.433125 19.2402 0.847109 20.8994C1.58211 23.6053 4.39578 26.419 7.10172 27.154C8.76094 27.568 10.9834 27.9934 14.0005 28.0011C17.0171 27.9934 19.2402 27.568 20.8994 27.154C23.6053 26.419 26.419 23.6053 27.154 20.8994C27.568 19.2407 27.9934 17.0177 28.0011 14.0005C27.9934 10.9834 27.568 8.76094 27.154 7.10172Z" fill="#E6F1F4"/>
<path d="M19.4389 21.3816C21.0232 21.0742 22.555 19.6267 22.905 18.0467C23.1041 17.087 23.2999 15.7821 23.3032 14.0004C23.2999 12.2187 23.1046 10.9138 22.905 9.95408C22.555 8.37416 21.0232 6.92658 19.4389 6.61924C18.4737 6.42619 15.7809 6.18775 13.9997 6.20744C12.2186 6.18775 9.52574 6.42619 8.56051 6.61924C6.97621 6.92658 5.44441 8.37416 5.09441 9.95408C4.89481 10.9133 4.69957 12.2187 4.69629 14.0004C4.69957 15.7821 4.89535 17.087 5.09441 18.0467C5.44441 19.6267 6.97621 21.0742 8.56051 21.3816C9.52629 21.5746 12.2186 21.8131 13.9997 21.7934C15.7809 21.8131 18.4737 21.5746 19.4389 21.3816Z" fill="url(#paint0_linear_888_67565)"/>
<path d="M14.2123 7.58716C15.9667 7.58716 18.391 7.81794 19.1687 7.97325H19.1725L19.1763 7.97489C20.2362 8.18052 21.3239 9.21903 21.5552 10.245C21.803 11.4426 21.92 12.6365 21.9222 14.0004C21.9195 15.3654 21.803 16.5592 21.5552 17.7558C21.3239 18.7817 20.2362 19.8202 19.1763 20.0258H19.1725L19.1687 20.0275C18.391 20.1828 15.9667 20.4136 14.2123 20.4136C14.1456 20.4136 14.08 20.4136 14.0155 20.4125H14.0002H13.9848C13.9203 20.413 13.8552 20.4136 13.7885 20.4136C12.0341 20.4136 9.60984 20.1828 8.83164 20.0275H8.82781L8.82398 20.0258C7.76414 19.8202 6.67641 18.7822 6.44508 17.7558C6.19734 16.5581 6.08031 15.3643 6.07812 14.0004C6.08086 12.6343 6.19734 11.4404 6.44508 10.245C6.67641 9.21903 7.76414 8.18052 8.82398 7.97489H8.82781L8.83164 7.97325C9.6093 7.81794 12.0336 7.58716 13.788 7.58716C13.8547 7.58716 13.9203 7.58716 13.9848 7.58825H14.0002H14.0155C14.0795 7.58771 14.1445 7.58716 14.2107 7.58716H14.2123ZM14.2123 6.2063C14.1402 6.2063 14.0696 6.2063 14.0002 6.20739C13.9307 6.20685 13.8602 6.2063 13.7885 6.2063C12.0123 6.2063 9.48898 6.4338 8.56148 6.61919C6.97719 6.92653 5.44539 8.37411 5.09539 9.95403C4.89578 10.9133 4.70055 12.2186 4.69727 14.0004C4.70055 15.7821 4.89633 17.0869 5.09539 18.0467C5.44539 19.6266 6.97719 21.0742 8.56148 21.3815C9.48953 21.5669 12.0128 21.7944 13.7891 21.7944C13.8612 21.7944 13.9313 21.7944 14.0007 21.7933C14.0702 21.7939 14.1407 21.7944 14.2123 21.7944C15.9886 21.7944 18.5119 21.5669 19.4394 21.3815C21.0237 21.0742 22.5555 19.6266 22.9055 18.0467C23.1045 17.0869 23.3003 15.7821 23.3036 14.0004C23.3003 12.2186 23.1051 10.9138 22.9055 9.95403C22.5555 8.37411 21.0237 6.92653 19.4394 6.61919C18.5113 6.4338 15.9886 6.2063 14.2123 6.2063Z" fill="url(#paint1_linear_888_67565)"/>
<path d="M8.82844 20.0265H8.83227C9.61047 20.1829 12.0348 20.4132 13.7891 20.4132C13.8559 20.4132 13.9215 20.4132 13.9855 20.4121H14.0008H14.0161C14.0806 20.4126 14.1463 20.4132 14.213 20.4132C15.9679 20.4132 18.3916 20.1824 19.1693 20.0271H19.1731L19.177 20.0254C20.2368 19.8198 21.3245 18.7813 21.5559 17.7554C21.6527 17.2872 21.7292 16.8191 21.7872 16.3411C21.015 15.2983 20.128 14.2007 19.2738 13.2442C18.8215 12.7416 18.1505 12.5207 17.4833 12.5179C16.8161 12.5207 16.1445 12.7411 15.6928 13.2442C14.6116 14.4539 13.5239 15.8457 12.6139 17.133C12.1671 16.555 11.6941 15.9802 11.2227 15.4525C10.8907 15.0833 10.398 14.9215 9.90797 14.9193C9.41797 14.9215 8.92523 15.0833 8.59328 15.4525C7.91352 16.2132 7.1293 17.1729 6.51953 18.0058C6.85477 18.9448 7.85117 19.8362 8.82461 20.0249H8.82844V20.0265Z" fill="url(#paint2_linear_888_67565)"/>
<path d="M9.90705 13.1808C10.7971 13.1808 11.5187 12.4592 11.5187 11.5692C11.5187 10.6791 10.7971 9.95752 9.90705 9.95752C9.01697 9.95752 8.29541 10.6791 8.29541 11.5692C8.29541 12.4592 9.01697 13.1808 9.90705 13.1808Z" fill="url(#paint3_linear_888_67565)"/>
</g>
<defs>
<linearGradient id="paint0_linear_888_67565" x1="19.294" y1="19.2942" x2="5.46629" y2="5.46643" gradientUnits="userSpaceOnUse">
<stop stop-color="#BCE4ED"/>
<stop offset="0.49" stop-color="white"/>
<stop offset="1" stop-color="white"/>
</linearGradient>
<linearGradient id="paint1_linear_888_67565" x1="19.2365" y1="19.2361" x2="5.40875" y2="5.40841" gradientUnits="userSpaceOnUse">
<stop stop-color="#34344F"/>
<stop offset="0.99" stop-color="#666684"/>
</linearGradient>
<linearGradient id="paint2_linear_888_67565" x1="18.4775" y1="21.3992" x2="10.5615" y2="13.4826" gradientUnits="userSpaceOnUse">
<stop stop-color="#13B601"/>
<stop offset="0.49" stop-color="#13B601"/>
<stop offset="0.68" stop-color="#5BCE47"/>
<stop offset="0.9" stop-color="#ABE995"/>
<stop offset="1" stop-color="#CBF4B4"/>
</linearGradient>
<linearGradient id="paint3_linear_888_67565" x1="11.0467" y1="12.7088" x2="8.76736" y2="10.4295" gradientUnits="userSpaceOnUse">
<stop stop-color="#FE7838"/>
<stop offset="0.43" stop-color="#FE7636"/>
<stop offset="0.97" stop-color="#FFAD8A"/>
</linearGradient>
<clipPath id="clip0_888_67565">
<rect width="28" height="28" fill="white"/>
</clipPath>
</defs>
</svg>
