<svg width="98" height="8" viewBox="0 0 98 8" fill="none" xmlns="http://www.w3.org/2000/svg">
<path d="M1.4108 4.35734C1.95825 4.29729 2.68845 4.33691 3.22729 4.39897C3.40049 4.41808 3.31584 4.5264 3.43645 4.54427C3.67861 4.57886 3.88164 4.52094 4.11488 4.56299C4.1917 4.57744 4.10176 4.7482 4.18232 4.75951C4.63412 4.81988 5.02883 4.76396 5.48563 4.78356C7.67304 4.88206 9.83688 4.84763 12.0611 4.81276C12.7923 4.80121 13.6915 4.90691 14.4445 4.79942C14.5321 4.78674 14.4717 4.64239 14.4878 4.62935C14.7406 4.42939 14.6693 4.73126 14.8434 4.76136C15.5364 4.87988 16.2947 4.85085 16.9487 4.75613C17.2267 4.7154 16.9296 4.43932 17.2204 4.58708C17.2406 4.59703 17.1788 4.75741 17.2564 4.76963C17.4324 4.79704 17.7605 4.74979 17.8961 4.7542C18.1573 4.76351 18.2001 4.75939 18.4457 4.74652C18.7811 4.73031 19.1859 4.78378 19.5438 4.72631C19.6202 4.71359 19.5087 4.55966 19.6295 4.52489C19.7506 4.49016 20.0744 4.48379 20.1872 4.51465C20.2993 4.54559 20.2604 4.67437 20.2817 4.70202C20.4568 4.93561 20.8111 4.57474 20.8586 4.56335C21.7298 4.36564 22.499 4.50857 23.3237 4.45304C23.9537 4.4102 24.6153 4.30136 25.2163 4.26815C25.9238 4.22978 26.5313 4.27354 27.2266 4.20755C27.2994 4.20081 27.2002 4.01893 27.289 4.01031C28.2295 3.91908 29.1726 3.86771 30.1226 3.91925C30.2183 3.92455 30.1096 4.09946 30.2059 4.11462C30.7839 4.20505 31.731 4.45367 32.0158 3.70469C32.3876 3.7001 32.8697 3.68546 33.2128 3.79059C33.2208 3.79327 33.2288 3.79601 33.2367 3.7988C33.4459 3.87016 33.2715 4.07327 33.515 3.96379C33.5698 3.93851 33.4733 3.79302 33.5555 3.7668C33.8977 3.65592 34.3347 3.61223 34.7171 3.45983C34.7939 3.42843 34.7472 3.29309 34.7657 3.26379C34.9219 3.02493 35.3104 3.30687 35.3788 3.32162C35.9472 3.41993 36.3144 3.29995 36.8119 3.24756C36.9274 3.23573 36.7692 3.06204 36.8807 3.04383C37.4576 2.95255 38.0481 2.91588 38.6166 2.956C38.7392 2.96573 38.6403 3.13594 38.6996 3.14887C38.9605 3.20419 39.0094 2.89384 39.2566 2.94269C39.3101 2.95254 39.2901 3.09297 39.3008 3.1075C39.4663 3.33568 39.5813 2.98856 39.6175 2.97869C40.0958 2.84515 40.4358 3.17971 40.9035 3.1045C40.9592 3.09519 40.8233 2.92661 40.9809 2.91119C41.778 2.83293 42.6116 2.81594 43.4297 2.85813C43.689 2.8723 43.9543 2.89243 44.2204 2.91856C44.3804 2.93502 44.2709 3.07044 44.2814 3.08636C44.453 3.33493 44.5502 2.99153 44.6028 2.97708C45.0257 2.87173 45.4145 3.14611 45.6927 2.73301C47.4675 2.82483 49.2353 2.5598 50.9936 2.8899C51.016 2.89368 50.9792 3.06197 51.0238 3.06881C51.561 3.15294 51.4572 2.89442 51.8049 2.56958C51.8922 2.48802 52.1705 2.86772 52.1951 2.89548C52.2847 2.99781 52.1981 3.24866 52.2278 3.26826C52.4737 3.42196 52.42 2.5983 52.7495 2.5924C52.7597 2.5936 52.7195 2.74605 52.7471 2.76067C52.8328 2.80659 52.9161 2.74487 53.0003 2.79569C53.1933 2.91334 53.2678 3.31274 53.5573 3.07479C53.5939 3.04393 53.5297 2.57724 53.8238 2.59455C53.9396 2.60185 54.4553 2.58559 54.6013 2.61363C54.7469 2.64162 54.6496 2.79387 54.6601 2.80023C55.0549 2.99337 54.9064 3.0783 55.1061 3.37028C55.3052 3.66117 55.2405 2.96106 55.3188 2.88161C55.3971 2.80237 55.6855 2.96244 55.7569 3.01854C55.8281 3.07466 55.7418 3.17173 55.8048 3.20314C56.2224 3.40834 55.9812 2.85251 56.1158 2.73923C56.4325 2.47105 56.6906 2.98722 56.9861 3.0339C57.0661 3.04651 56.9994 2.92905 57.0701 2.91696C57.3496 2.87065 57.5206 3.03045 57.838 2.87723C57.8898 2.85225 58.1444 2.53609 58.3142 2.76314C58.3383 2.79588 58.2729 2.92636 58.3929 2.95371C58.572 2.99478 58.8943 3.01867 59.0859 2.97276C59.2274 2.93879 59.0618 2.72755 59.2413 2.79143C59.3211 2.81996 59.1757 2.94682 59.3254 2.99001C59.4743 3.03319 59.8532 3.0226 59.9974 3.01636C60.1412 3.01003 60.0603 2.84917 60.0718 2.83811C60.1414 2.77468 60.4164 2.69293 60.441 2.6928C61.672 2.6567 62.8126 2.915 64.0101 2.80925C64.1043 2.80119 64.0393 2.63125 64.0536 2.62826C64.3751 2.55257 64.1269 3.00981 64.3537 3.15887C64.3167 2.8128 64.4504 2.87382 64.6758 2.83292C64.7844 2.81293 64.7234 2.67953 64.7331 2.66566C64.8932 2.45979 65.0101 2.72153 65.0399 2.775C65.1502 2.97168 65.2641 2.73614 65.3389 2.86759C65.4135 2.99805 65.2482 3.19501 65.4654 3.18971C65.5247 3.06489 65.3594 2.74285 65.5235 2.68819C66.1433 2.48147 67.3139 2.72051 67.8119 2.74024C68.3134 2.75994 68.4765 2.73482 68.7662 2.77571C69.2922 2.84956 69.0991 2.61168 69.4243 2.49707C69.75 2.38244 69.599 2.97635 69.6479 3.10289C69.6957 3.22938 69.744 3.0978 69.802 3.16689C69.8598 3.23596 69.7381 3.32418 69.872 3.34853C70.0063 3.37286 70.3769 3.14132 70.4218 3.00764C70.5185 2.72441 70.3492 2.43109 70.7056 2.52983C70.726 2.5357 70.6623 2.69225 70.7404 2.70683C71.3688 2.81743 72.0196 2.81494 72.6411 2.91084C72.7258 2.92428 72.6531 3.09857 72.7024 3.10835C73.2289 3.21047 73.0374 2.92169 73.3162 2.59274C73.2618 3.02518 73.4151 3.28669 73.8157 3.28223C74.0554 3.27969 74.0105 3.092 74.1611 2.95646C74.2063 2.9156 74.3743 3.04195 74.4023 2.95279C74.4957 2.6613 74.3315 2.34007 74.7455 2.46142C74.7636 2.46721 74.7094 2.62684 74.7717 2.63526C75.0059 2.66749 75.1148 2.57731 75.2493 2.4877L75.22 2.48915C75.3157 2.41939 75.4249 2.3491 75.6031 2.31959C75.937 2.26414 76.5516 2.40054 76.9368 2.39996C76.9682 2.8841 77.3157 2.74495 77.4403 2.39948C77.6925 2.39309 77.959 2.35284 78.1998 2.37999C78.2841 2.38907 78.2407 2.53343 78.2524 2.54772C78.4336 2.77206 78.5163 2.43902 78.5693 2.42199C79.1383 2.25213 79.638 2.45958 80.1704 2.17522C80.1895 2.16498 80.1953 1.82648 80.3642 2.05979C80.3752 2.07593 80.2032 2.24349 80.4665 2.23432C80.7274 2.22538 81.2369 2.36585 81.5859 2.1813C81.6698 2.13688 81.8689 1.84655 82.0666 2.04515C82.0928 2.07217 82.0744 2.1706 82.1131 2.22145C82.2381 2.38337 82.2715 2.03902 82.4241 2.31709C82.5748 2.59531 82.8666 2.78938 83.2161 2.56122C83.2272 2.55451 83.2921 2.27853 83.4062 2.27371C83.5891 2.26618 83.8594 2.30104 84.0489 2.28418C84.1401 2.27597 84.0684 2.11353 84.084 2.10921C84.6945 1.96636 85.1488 2.08014 85.8111 2.09274C85.9357 2.09513 86.2669 1.83964 86.5129 2.00152C86.7883 2.17826 86.5899 3.01934 87.1641 2.7775C87.3973 2.68052 87.6172 1.616 88.0908 2.12163C88.9134 1.92307 89.7044 2.1397 90.5259 1.88566C90.5632 1.87434 90.6608 1.57476 90.7491 1.57209C90.8808 1.56866 90.9596 1.69932 91.0563 1.70109C91.4536 1.71251 91.8039 1.56978 92.1825 1.56036C92.3277 1.55639 92.2876 1.70048 92.4593 1.69594C92.6289 1.69144 92.7325 1.49806 92.9706 1.57088C93.1482 1.62668 93.354 1.99207 93.5877 2.02005C93.5698 1.64655 93.7311 1.64295 94.0084 1.52502C94.0615 1.5022 93.9943 1.37637 94.019 1.35888C94.1184 1.28485 94.2236 1.3858 94.3193 1.30617C94.3425 1.28703 94.335 1.15957 94.3535 1.13673C94.5096 0.937736 94.8073 1.20586 94.8587 1.25262C95.0543 1.4301 95.1273 1.25898 95.2743 1.32446C95.4196 1.39008 95.2156 1.49681 95.3824 1.5316C95.7255 1.60369 96.164 1.556 96.5064 1.54176C96.6451 1.53516 96.5406 1.37059 96.5602 1.36569C96.6784 1.34074 96.7984 1.35476 96.9075 1.35462C97.0625 1.33582 97.2022 1.27886 97.22 1.06397C97.6622 1.83055 97.5326 0.884406 97.4725 0.930527C97.4809 0.924857 97.7104 0.525277 97.919 0.718248C97.9684 0.775788 98.024 0.891315 98.0069 1.04651C97.991 1.20226 97.8925 1.32777 97.8204 1.38623C97.6652 1.51047 97.5538 1.53509 97.4662 1.62101C97.4316 1.66273 97.2489 2.1129 97.2093 2.14257C97.1568 2.1924 97.1079 2.20569 97.0622 2.19579C97.0408 2.19877 96.9776 2.20802 96.9561 2.20837C96.8202 2.14656 96.7727 1.75121 96.7609 1.72476C96.591 1.36624 96.3331 1.80131 96.2607 1.83471C95.9274 1.9877 95.6332 1.91874 95.3561 2.03137C95.1729 2.10446 95.181 2.51112 95.0354 2.50815C94.5459 2.4991 94.3382 1.94508 93.9164 2.46665C93.8261 2.57797 93.9503 3.01442 93.5785 2.69029C93.5563 2.66976 93.2687 2.3697 93.1347 2.58181C93.1177 2.60855 93.1275 2.73761 93.1035 2.75021C92.9429 2.83214 92.82 2.73756 92.6432 2.79981C92.4678 2.86196 92.2468 2.95184 92.0402 2.92298C91.9138 2.90592 91.7341 2.6774 91.6689 2.62303C91.4868 2.46596 91.3277 2.75741 91.2061 2.55998C91.0839 2.36157 91.2694 2.03248 90.9791 1.92011C90.994 2.25618 90.9965 2.60209 91.0054 2.94052C90.3946 2.97448 89.7917 2.91144 89.1786 2.97364C89.1038 2.98159 89.1944 3.1559 89.1144 3.16909C88.7746 3.22414 88.4661 3.11885 88.1132 3.19785C87.8389 3.25979 87.557 3.47384 87.2697 3.54478C87.0691 3.17458 86.6425 3.33919 86.3361 3.32814C86.2268 3.32459 86.2259 3.22158 86.1458 3.19428C85.8427 3.09388 86.0068 3.42198 85.9303 3.48171C85.6071 3.73639 85.5197 2.9713 85.112 3.02275C85.0908 3.02518 84.8643 3.4547 84.8299 3.48307C84.6141 3.66734 84.7809 3.34373 84.6347 3.32495C84.3647 3.29087 84.1799 3.2073 83.8813 3.35165C83.7952 3.39422 83.5952 3.66667 83.4095 3.48308C83.3848 3.45907 83.3865 3.32291 83.3676 3.31645C83.0254 3.21098 83.0493 3.63648 82.8686 3.79567C82.6884 3.95479 82.3749 3.68478 82.3071 3.60517C82.1325 3.39913 82.4199 3.50213 82.4264 3.48003C82.5053 3.21682 82.2953 3.27783 82.1282 3.26948C82.0712 2.85494 81.841 2.8985 81.9548 3.26252C81.9676 3.30224 82.0936 3.2531 82.1282 3.26948C82.0137 3.68981 81.7698 3.76197 81.4607 3.40243C81.3154 3.23396 81.4241 3.0153 81.0296 3.12366C80.855 3.1723 80.9466 3.45354 80.7954 3.5443C80.4481 3.75157 79.955 3.52182 79.5853 3.59379C79.4503 3.61999 79.5956 3.76632 79.5036 3.78964C79.2561 3.85229 79.0368 3.7513 78.7937 3.83144C78.7717 3.8389 78.8396 3.99882 78.7629 4.00706C78.1753 4.07321 77.6651 4.00804 77.0585 4.05348C76.7667 4.07541 76.2434 4.2083 75.9415 4.21399C75.7588 4.2179 75.5581 4.19818 75.354 4.17467C75.3398 4.17523 75.2973 4.17849 75.2831 4.1782C74.918 4.11051 74.514 4.0286 74.2301 4.07184C73.9372 4.1144 74.0038 4.27806 73.8785 4.39263C73.6289 4.61482 73.2035 4.23194 73.1409 4.17257C73.1394 4.1706 73.3921 4.12748 73.2555 4.04514C73.174 3.87016 73.1438 4.17175 73.1409 4.17257C73.1022 4.13423 72.59 4.10519 72.4934 4.13822C72.4393 4.15631 72.4722 4.312 72.4439 4.31848C71.764 4.46912 71.0824 4.51905 70.4002 4.45585C70.3881 4.45287 70.4038 4.27791 70.3752 4.27308C69.9722 4.20119 69.7245 4.41842 69.3976 4.54988C69.0693 4.6813 68.8083 4.64238 68.6115 4.3451C68.3664 4.3862 68.0031 4.25847 67.8007 4.1807C67.5965 4.10296 67.5723 4.4434 67.5545 4.45036C66.9952 4.67298 66.6704 4.48255 66.0867 4.45985C65.806 4.44851 65.2643 4.50484 64.9625 4.54592C64.724 4.57895 64.5832 4.50105 64.3656 4.55482C64.3362 4.562 64.368 4.71303 64.359 4.71898C64.1181 4.90326 64.2302 4.53161 64.1791 4.46615C63.9941 4.22808 63.8782 4.10151 63.5686 4.21861C63.4973 4.24543 63.2952 4.78109 63.1646 4.81394C62.9947 4.85569 63.0566 4.66382 62.8785 4.7124C62.8633 4.71638 62.868 4.8342 62.7576 4.83043C62.2467 4.81445 61.6875 4.75312 61.1576 4.77189C61.0851 4.77401 61.1805 4.95972 61.0758 4.96585C60.5844 4.99448 60.0452 4.99473 59.5652 4.91369C59.447 4.89316 59.5191 4.76127 59.493 4.72276C59.3327 4.48973 59.1144 4.83443 59.0777 4.84144C58.203 5.01762 57.5283 4.7178 56.6359 4.87804C56.5873 4.88738 56.2186 5.25914 56.0476 4.94751C56.0363 4.92677 55.8654 4.60787 55.7223 4.82981C55.7134 4.84369 55.8191 5.00759 55.6388 4.99344C55.4585 4.97933 55.1713 5.09422 54.9228 4.91626C54.8437 4.86021 54.6525 4.54252 54.4233 4.80176C54.4082 4.81984 54.0579 5.4034 53.9238 5.00681C53.9016 4.94153 53.9184 4.51924 53.6416 4.74013C53.5889 4.78294 53.6873 4.87545 53.5477 4.93652C53.3338 5.03063 53.0478 4.92238 52.7892 5.11478C52.744 5.14883 52.5512 5.43856 52.3903 5.22397C52.365 5.19036 52.4094 5.0487 52.326 5.03438C51.9309 4.96565 51.5194 5.06729 51.1167 4.97731C50.9746 4.94571 51.0426 4.71667 50.8943 4.65842C50.748 4.60016 50.4453 4.54727 50.2925 4.65435C50.1396 4.76148 50.3157 5.12102 50.0848 5.15462C49.0781 5.30074 48.0842 5.10924 47.0735 5.1029C46.9259 5.10189 47.0512 5.22868 46.8346 5.23655C46.0205 5.26606 44.6319 5.42762 43.922 5.17619C43.3574 4.97436 44.0512 4.78214 43.6241 4.70689C43.5809 4.69934 43.5378 4.7125 43.4965 4.7381C43.3328 4.83419 43.1949 5.10446 43.1561 5.11641C42.6847 5.26927 42.3316 5.09692 41.8973 5.17417C41.8069 5.19025 41.9039 5.35697 41.8271 5.36878C41.5693 5.41045 41.2881 5.34797 41.0406 5.37507C40.9306 5.38759 40.958 5.51693 40.8573 5.51231C40.5998 5.50376 40.3941 5.46068 40.1398 5.35364C40.1169 5.34388 40.2565 5.17247 40.0716 5.17783C39.7788 5.18664 39.4048 5.09058 39.0747 5.24025C38.9768 5.28523 38.9952 5.58302 38.7692 5.39391C38.7205 5.35465 38.7469 4.99261 38.5217 5.32181C38.4857 5.37615 38.1036 5.82811 37.8773 5.57951C37.8154 5.51415 37.651 5.23526 37.5383 5.29302C37.5226 5.30201 37.6047 5.45484 37.5056 5.48064C37.1702 5.56747 36.8025 5.59208 36.4633 5.68736C36.3741 5.71301 36.5303 5.85964 36.3986 5.8925C36.0247 5.98452 35.5639 6.01448 35.1903 6.0314C35.0536 6.037 35.1203 5.88479 35.1084 5.87178C34.9033 5.66263 34.8687 6.00421 34.8204 6.03311C34.5042 6.21101 34.1918 6.12111 33.7937 6.21813C33.6834 6.24387 33.783 6.38851 33.7625 6.40533C33.5396 6.57023 33.6838 6.26975 33.5315 6.25549C33.5013 6.25242 33.4708 6.24971 33.4399 6.24733C33.1363 6.20626 32.7819 6.25034 32.4811 6.29538C32.3615 6.31347 32.5127 6.48249 32.4048 6.49665C31.7555 6.5848 31.0715 6.62427 30.4417 6.57457C30.3209 6.56506 30.3847 6.41966 30.3573 6.38983C30.1691 6.18085 29.9342 6.50518 29.8834 6.5383C29.6354 6.69083 29.5239 6.57552 29.2928 6.61661C28.1712 6.81908 26.7692 6.83954 25.6966 6.86398C24.2994 6.89665 23.2163 6.83576 21.8926 6.95578C21.8084 6.96322 21.9054 7.14336 21.833 7.15215C20.8966 7.25724 19.971 7.24206 19.033 7.35248C18.9563 7.36119 19.0779 7.5305 18.955 7.5504C18.703 7.59245 18.3807 7.60207 18.1205 7.56103C17.9936 7.54135 18.1528 7.3804 18.0252 7.36366C17.7283 7.32435 17.4132 7.33014 17.1134 7.37574C16.9858 7.39553 17.1897 7.56441 17.0231 7.57609C15.8871 7.65933 14.7748 7.75182 13.6121 7.57907C13.5327 7.56718 13.4446 7.2048 13.2816 7.28367C13.2743 7.3859 13.2812 7.50535 13.2814 7.6142C11.6316 7.75857 9.98413 7.71082 8.32105 7.76227C8.25076 7.76448 8.38043 7.95332 8.24444 7.95858C7.46726 7.98873 6.69849 8.07329 5.88673 7.90962C5.80698 7.89361 5.83519 7.55079 5.60497 7.61069C5.56246 7.62168 5.20612 7.67965 5.11783 7.75677C5.10579 7.76837 5.17568 7.92557 5.06188 7.93405C4.40579 7.98033 3.69988 7.96518 3.03566 7.88428C2.9299 7.87088 3.0378 7.69834 2.96259 7.6873C2.41452 7.61071 1.82497 7.75165 1.3113 7.60446C0.961116 7.50522 1.08356 7.21002 0.896038 6.92313C0.868901 6.8827 0.657097 6.87811 0.64566 6.71003C0.614886 6.28754 0.711803 5.82388 0.666933 5.37364C0.6565 5.27676 0.385584 5.38304 0.544792 5.14748C0.555408 5.13177 0.754274 5.05238 0.80417 4.97228C0.838477 4.91695 0.774083 4.74659 0.84446 4.67549C0.914946 4.60444 0.995267 4.74692 1.11582 4.66269C1.23755 4.57735 1.17941 4.38374 1.4108 4.35734ZM66.8749 3.8333C66.6848 3.67245 66.6649 4.27095 66.8663 4.12518C66.876 4.11743 66.8847 3.84118 66.8749 3.8333ZM89.7576 2.46171C89.4934 2.21731 89.3524 2.61728 89.5426 2.80702C89.7321 2.99662 89.8377 2.53579 89.7576 2.46171ZM92.2992 2.07839C91.9931 1.89212 92.0111 2.74133 92.3082 2.54772C92.3256 2.53675 92.3171 2.08921 92.2992 2.07839ZM1.74677 6.82904C1.74374 6.82116 1.58932 6.816 1.58603 6.8239C1.50687 7.01523 1.81587 7.02545 1.74677 6.82904ZM94.8211 1.69256C94.7219 1.58407 94.4737 1.7334 94.5942 1.86836C94.6891 1.97704 94.9437 1.82752 94.8211 1.69256ZM56.9983 3.32575C56.9952 3.31688 56.8851 3.31044 56.8881 3.36079C56.8979 3.52295 57.0502 3.47495 56.9983 3.32575ZM96.5201 0.0885926C97.1446 0.352681 97.1413 1.1467 96.5928 0.815106C96.4862 0.755777 96.9172 0.707887 96.8003 0.590547C96.5737 0.372003 96.2459 0.722875 96.0439 0.406955C96.0057 0.348081 96.4825 0.0700114 96.5215 0.0880641C96.521 0.0882401 96.5205 0.0884166 96.5201 0.0885926ZM66.7572 3.11627C66.7534 3.10841 66.6022 3.10289 66.5987 3.11078C66.5193 3.30174 66.824 3.31298 66.7572 3.11627ZM50.592 3.0611C50.5829 3.0444 50.2281 3.03551 50.2172 3.05127C50.0385 3.36535 50.7553 3.38425 50.592 3.0611ZM76.9439 2.41238C77.0927 2.20886 77.2861 2.17086 77.4395 2.3993C77.2713 2.39994 77.109 2.41101 76.9439 2.41238Z" fill="#1D4ED8"/>
</svg>
