<svg width="30" height="30" viewBox="0 0 30 30" fill="none" xmlns="http://www.w3.org/2000/svg">
<g clip-path="url(#clip0_156_5731)">
<path d="M28.6138 24.4117C29.7575 25.5561 29.7575 27.411 28.6138 28.5554C27.4703 29.6992 25.614 29.6992 24.4703 28.5554L16.6348 20.0442L20.0889 16.5908L28.6138 24.4117Z" fill="#2BBDC4"/>
<path d="M18.364 15.0078L20.0891 16.591L16.635 20.0444L15.0496 18.3225L18.364 15.0078Z" fill="#495D85"/>
<path d="M29.1971 4.17528L26.5961 6.79664H24.9385L23.3196 5.11916V3.4616L25.8824 0.860803C25.3398 0.678242 24.771 0.585402 24.1985 0.58594C20.5881 0.58594 18.0521 4.1366 19.2 7.54371L14.2213 12.523L14.2175 12.5189L6.44508 4.72893V3.07207L2.30215 0.58594L0.645 2.24303L3.13066 6.38602L4.78752 6.38672L12.5603 14.1765L12.5638 14.1799L7.6023 19.1416C4.20158 17.9961 0.644531 20.5225 0.644531 24.1399C0.644531 24.7288 0.741094 25.2953 0.91916 25.8238L3.5202 23.2024H5.17781L6.85523 24.88V26.5375L4.23387 29.1384C4.77648 29.321 5.34523 29.4139 5.91773 29.4134C9.53473 29.4134 12.0619 25.8561 10.9163 22.4554L22.5139 10.8577C23.0568 11.0403 23.6258 11.1332 24.1985 11.1326C27.111 11.1326 29.4717 8.7719 29.4717 5.85938C29.4717 5.27051 29.3752 4.70373 29.1971 4.17528Z" fill="#E9EEF0"/>
<path d="M20.3813 9.09082C20.0579 9.09082 19.7954 9.35274 19.7954 9.67658C19.7954 10.0002 20.0579 10.2625 20.3813 10.2625C20.7054 10.2625 20.9672 10.0002 20.9672 9.67658C20.9673 9.59963 20.9522 9.52341 20.9228 9.4523C20.8933 9.38119 20.8502 9.31658 20.7958 9.26217C20.7413 9.20776 20.6767 9.16462 20.6056 9.13522C20.5345 9.10582 20.4583 9.09073 20.3813 9.09082ZM9.73511 19.7368C9.41097 19.7368 9.14917 19.9993 9.14917 20.3228C9.14909 20.3997 9.1642 20.476 9.19361 20.5471C9.22303 20.6182 9.26619 20.6828 9.32062 20.7373C9.37504 20.7917 9.43966 20.8348 9.51079 20.8643C9.58191 20.8937 9.65814 20.9088 9.73511 20.9087C10.0585 20.9087 10.321 20.6469 10.321 20.3228C10.321 19.9993 10.0585 19.7368 9.73511 19.7368Z" fill="black"/>
<path d="M29.3296 3.60477C29.2323 3.58211 29.1309 3.58473 29.0349 3.61237C28.9389 3.64001 28.8515 3.69175 28.7812 3.76268L26.3521 6.21102H25.1875L23.9055 4.88281V3.70203L26.2999 1.27197C26.3696 1.20121 26.4202 1.11387 26.4469 1.01817C26.4735 0.922472 26.4754 0.821564 26.4523 0.724942C26.4293 0.628339 26.3821 0.539171 26.3152 0.465823C26.2482 0.392475 26.1638 0.337355 26.0696 0.305646C25.4681 0.102853 24.8387 7.90927e-05 24.1985 7.90927e-05C22.2901 7.90927e-05 20.5563 0.890001 19.4417 2.44156C18.3984 3.89404 18.0769 5.67406 18.5376 7.37762L14.2216 11.6936L7.03102 4.4866V3.07215C7.03103 2.97096 7.00483 2.8715 6.95498 2.78345C6.90512 2.6954 6.83331 2.62176 6.74654 2.56971L2.60355 0.0835752C2.49153 0.0162871 2.36021 -0.0115857 2.23051 0.00439477C2.1008 0.0203752 1.98018 0.0792902 1.88783 0.171759L0.230742 1.82861C0.138391 1.92108 0.0795647 2.04174 0.0635996 2.17144C0.0476345 2.30115 0.0754447 2.43247 0.142617 2.54457L2.62822 6.68756C2.68026 6.77428 2.75385 6.84606 2.84184 6.89591C2.92984 6.94576 3.02924 6.97198 3.13037 6.97203L4.54447 6.9725L11.7357 14.1795L7.43613 18.4791C5.73258 18.0185 3.95162 18.3406 2.49844 19.3845C0.947871 20.4985 0.0585938 22.2318 0.0585938 24.1402C0.0585938 24.7802 0.161367 25.4098 0.36416 26.0111C0.396056 26.1058 0.451629 26.1908 0.525599 26.2579C0.599569 26.3251 0.689479 26.3722 0.786789 26.3948C0.884098 26.4174 0.985573 26.4148 1.08157 26.3871C1.17758 26.3595 1.26491 26.3077 1.33529 26.2368L3.76418 23.7887H4.93518L6.26936 25.1229V26.2938L3.82113 28.7227C3.75023 28.7931 3.69849 28.8804 3.67084 28.9764C3.64319 29.0724 3.64055 29.1739 3.66316 29.2712C3.68577 29.3685 3.73288 29.4584 3.80002 29.5324C3.86717 29.6064 3.95211 29.662 4.04678 29.6939C4.64807 29.8967 5.27772 29.9994 5.91768 29.9994C7.82607 29.9994 9.55922 29.11 10.6734 27.5594C11.7173 26.1062 12.0394 24.3255 11.5788 22.6219L15.032 19.1688L15.823 20.028L15.46 20.3908C15.2311 20.6196 15.2311 20.9906 15.46 21.2196C15.6889 21.4482 16.0597 21.4482 16.2888 21.2196L16.6175 20.8909L24.0393 28.9525C24.0447 28.9585 24.0504 28.9642 24.0562 28.9699C25.4295 30.3431 27.6544 30.3436 29.0284 28.9696C30.3985 27.5989 30.3985 25.3685 29.0284 23.9977C29.0224 23.9917 29.0163 23.986 29.0101 23.9803L20.9358 16.5727L21.2609 16.2477C21.4897 16.0191 21.4897 15.6481 21.2609 15.4192C21.032 15.1903 20.6612 15.1903 20.4321 15.4192L20.0716 15.7799L19.2107 14.9898L22.6806 11.5199C23.1757 11.6521 23.686 11.7189 24.1985 11.7186C27.4294 11.7186 30.0577 9.09008 30.0577 5.85945C30.0577 5.21926 29.9549 4.58984 29.7521 3.98832C29.7203 3.89365 29.6648 3.80871 29.5908 3.74157C29.5168 3.67443 29.4269 3.62734 29.3296 3.60477ZM5.20225 5.97277C5.09238 5.86262 4.94338 5.8066 4.78775 5.8066L3.46254 5.80613L1.38293 2.33399L2.39297 1.32395L5.85914 3.40402V4.72918C5.85915 4.88434 5.92073 5.03316 6.03035 5.14297L13.393 12.5224L12.5643 13.3509L5.20225 5.97277ZM20.1063 17.4022L28.2081 24.8347C29.1131 25.7493 29.1103 27.2302 28.1996 28.1413C27.2868 29.0541 25.8092 29.0568 24.8927 28.1493L17.4468 20.0614L20.1063 17.4022ZM19.2421 16.6091L16.6523 19.1984L15.8613 18.3392L18.3813 15.819L19.2421 16.6091ZM24.1985 10.5467C23.6894 10.5473 23.1836 10.4648 22.701 10.3025C22.5976 10.2678 22.4865 10.2626 22.3803 10.2875C22.2741 10.3124 22.1769 10.3664 22.0997 10.4435C19.1622 13.381 12.8327 19.7103 10.502 22.0412C10.4248 22.1183 10.3707 22.2156 10.3458 22.3218C10.3209 22.4281 10.3261 22.5393 10.361 22.6427C10.8481 24.089 10.6151 25.6316 9.72152 26.8756C8.83049 28.1159 7.44393 28.8275 5.91773 28.8275C5.74629 28.8275 5.57578 28.8181 5.40686 28.8001L7.26791 26.9534C7.32281 26.899 7.36639 26.8342 7.39613 26.7628C7.42586 26.6914 7.44117 26.6149 7.44117 26.5375V24.88C7.44114 24.7246 7.37938 24.5756 7.26949 24.4657L5.59207 22.7882C5.48221 22.6784 5.3332 22.6166 5.17781 22.6166H3.5202C3.44284 22.6166 3.36626 22.6319 3.29486 22.6616C3.22345 22.6914 3.15863 22.7349 3.10412 22.7898L1.25771 24.6509C1.23936 24.4812 1.23019 24.3107 1.23023 24.14C1.23023 22.6136 1.94156 21.2273 3.18217 20.3362C4.42588 19.4427 5.96877 19.2095 7.41533 19.6967C7.51873 19.7316 7.62981 19.7368 7.73604 19.7119C7.84228 19.687 7.93944 19.6329 8.01656 19.5557C8.04885 19.5237 19.606 7.96631 19.6143 7.95805C19.6914 7.8809 19.7455 7.78374 19.7704 7.67751C19.7953 7.57129 19.79 7.46022 19.7552 7.35682C19.268 5.91049 19.5005 4.3683 20.3933 3.12518C21.2852 1.88381 22.672 1.17195 24.1983 1.17195C24.3751 1.17195 24.5506 1.1818 24.7245 1.20102L22.9022 3.05059C22.7942 3.16016 22.7337 3.30783 22.7337 3.46168V5.1193C22.7337 5.27111 22.7926 5.417 22.8981 5.52617L24.517 7.20371C24.5716 7.26034 24.6371 7.30537 24.7095 7.33612C24.782 7.36686 24.8599 7.38269 24.9386 7.38266H26.5962C26.6735 7.38266 26.75 7.36735 26.8214 7.33761C26.8928 7.30788 26.9576 7.2643 27.012 7.2094L28.8584 5.34858C28.8767 5.5175 28.8858 5.68801 28.8858 5.85945C28.8858 8.44402 26.7831 10.5467 24.1986 10.5467H24.1985Z" fill="black"/>
<path d="M18.3099 10.9192L10.9777 18.2514C10.749 18.4801 10.749 18.8511 10.9777 19.0799C11.2065 19.3089 11.5776 19.3089 11.8064 19.0799L19.1387 11.7477C19.3675 11.5191 19.3675 11.1481 19.1387 10.9192C18.9098 10.6904 18.5388 10.6903 18.3099 10.9192V10.9192ZM25.7142 26.4843C25.9431 26.7125 26.3141 26.7125 26.543 26.483C26.7714 26.2539 26.7707 25.8828 26.5416 25.6544L21.2602 20.3899C21.0311 20.1615 20.6598 20.1622 20.4317 20.3913C20.203 20.6206 20.2037 20.9914 20.4328 21.2198L25.7142 26.4843Z" fill="black"/>
</g>
<defs>
<clipPath id="clip0_156_5731">
<rect width="30" height="30" fill="white"/>
</clipPath>
</defs>
</svg>
