<svg width="30" height="31" viewBox="0 0 30 31" fill="none" xmlns="http://www.w3.org/2000/svg">
<path d="M9.63091 14.7275C8.58325 14.7275 7.73089 15.5799 7.73089 16.6275C7.73089 17.6752 8.58325 18.5275 9.63091 18.5275C10.6786 18.5275 11.5309 17.6752 11.5309 16.6275C11.5309 15.5798 10.6786 14.7275 9.63091 14.7275ZM9.63091 17.7072C9.0356 17.7072 8.5512 17.2229 8.5512 16.6275C8.5512 16.0321 9.0356 15.5478 9.63091 15.5478C10.2262 15.5478 10.7106 16.0322 10.7106 16.6275C10.7106 17.2228 10.2262 17.7072 9.63091 17.7072ZM28.828 28.8106H27.5622V24.0107C27.8274 23.6243 28.0243 23.1496 28.1502 22.589C28.2375 22.201 28.4138 21.7186 29.0076 21.4293C29.0737 21.3971 29.1299 21.3478 29.1704 21.2865C29.2109 21.2252 29.2342 21.1541 29.2378 21.0807C29.2414 21.0074 29.2252 20.9343 29.191 20.8694C29.1567 20.8044 29.1056 20.7498 29.043 20.7113C28.5689 20.4194 28.0683 20.2315 27.5623 20.1511V18.7534H28.8281C28.9098 18.7535 28.9896 18.7291 29.0574 18.6835C29.1252 18.6379 29.1778 18.573 29.2084 18.4973C29.2391 18.4216 29.2464 18.3384 29.2295 18.2585C29.2126 18.1786 29.1722 18.1055 29.1135 18.0487L27.9057 16.8782H28.8281C28.9098 16.8783 28.9896 16.8539 29.0574 16.8083C29.1252 16.7627 29.1778 16.6978 29.2084 16.6221C29.2391 16.5464 29.2464 16.4632 29.2295 16.3833C29.2126 16.3034 29.1722 16.2303 29.1135 16.1735L22.2667 9.53914C23.1737 8.91922 23.7355 7.88076 23.7355 6.75822C23.7355 4.90092 22.2253 3.38996 20.3689 3.38996C18.5124 3.38996 17.0006 4.90098 17.0006 6.75822C17.0006 7.13557 17.0638 7.50834 17.1858 7.86119H10.4515C10.3698 7.86114 10.2899 7.88549 10.2221 7.93112C10.1544 7.97675 10.1018 8.04159 10.0711 8.11731C10.0405 8.19303 10.0331 8.27618 10.05 8.35611C10.0669 8.43604 10.1073 8.50909 10.166 8.5659L11.374 9.73643H9.63097C9.5244 9.73631 9.422 9.77779 9.34556 9.85203L0.886377 18.0487C0.827668 18.1055 0.787267 18.1786 0.770356 18.2585C0.753445 18.3384 0.760794 18.4216 0.791462 18.4973C0.822129 18.573 0.874716 18.6379 0.94248 18.6835C1.01024 18.7291 1.09009 18.7535 1.17179 18.7534H2.43583V28.8106H1.17179C1.06301 28.8106 0.958683 28.8538 0.881763 28.9308C0.804844 29.0077 0.761631 29.112 0.761631 29.2208C0.761631 29.3296 0.804844 29.4339 0.881763 29.5108C0.958683 29.5877 1.06301 29.6309 1.17179 29.6309H28.828C28.9368 29.6309 29.0411 29.5877 29.1181 29.5108C29.195 29.4339 29.2382 29.3296 29.2382 29.2208C29.2382 29.112 29.195 29.0077 29.1181 28.9308C29.0411 28.8538 28.9368 28.8106 28.828 28.8106ZM27.3498 22.4091C26.988 24.0199 26.041 24.4067 25.0438 24.4373C25.4543 23.7004 25.9692 23.102 26.5084 22.5249C26.5827 22.4454 26.6223 22.3396 26.6186 22.2309C26.6149 22.1222 26.5682 22.0194 26.4887 21.9451C26.4092 21.8709 26.3034 21.8312 26.1947 21.8349C26.086 21.8386 25.9832 21.8854 25.909 21.9649C25.3918 22.5185 24.8799 23.1106 24.4499 23.828C24.3011 23.0559 24.5438 22.2683 25.1501 21.6781C25.7517 21.0923 26.822 20.6565 28.0312 21.1202C27.5308 21.6044 27.401 22.1818 27.3498 22.4091V22.4091ZM20.8027 22.8028C20.7566 22.7745 20.7055 22.7556 20.6521 22.7472C20.5987 22.7387 20.5442 22.7409 20.4916 22.7536C20.4391 22.7663 20.3896 22.7892 20.3459 22.8211C20.3023 22.853 20.2654 22.8932 20.2373 22.9394C20.2093 22.9856 20.1906 23.0368 20.1825 23.0903C20.1743 23.1437 20.1768 23.1982 20.1897 23.2507C20.2027 23.3031 20.2259 23.3525 20.258 23.396C20.2902 23.4395 20.3305 23.4762 20.3769 23.504C20.7631 23.7385 21.3718 24.1636 21.9366 24.7911C21.013 24.8935 20.4235 24.5062 19.983 23.5529C19.905 23.3819 19.7141 22.9632 19.268 22.6499C20.1183 22.1456 20.995 22.3089 21.5497 22.6572C21.9927 22.9354 22.422 23.4613 22.4641 24.1562C21.8843 23.529 21.27 23.0867 20.8027 22.8028ZM21.9859 21.9625C20.9983 21.3424 19.4436 21.2505 18.1968 22.4435C18.1437 22.4943 18.1052 22.5585 18.0854 22.6292C18.0656 22.7 18.0652 22.7748 18.0842 22.8458C18.1032 22.9168 18.1409 22.9814 18.1934 23.0329C18.2459 23.0843 18.3113 23.1207 18.3827 23.1382C18.8913 23.2629 19.1062 23.6072 19.2375 23.8951C19.6442 24.7756 20.2234 25.3272 20.959 25.5345C21.1818 25.5973 21.4148 25.6289 21.664 25.6289C21.9233 25.6289 22.2006 25.5941 22.5017 25.5253C22.9778 26.2572 23.3304 27.1752 23.3304 28.2907V28.8107H16.8259V18.7535H26.7419V20.1157C26.6894 20.1196 26.6369 20.1246 26.5845 20.131C25.8328 20.2215 25.1201 20.5622 24.5777 21.0903C23.5325 22.108 23.2928 23.5626 23.94 24.847C23.8075 25.1734 23.6978 25.5086 23.6116 25.8502C23.4844 25.5773 23.3377 25.3139 23.1726 25.0621C23.5227 23.8475 23.0642 22.6397 21.9859 21.9626V21.9625ZM24.0345 16.058L22.0957 14.1794L25.8157 14.1205L27.8153 16.058H24.0345H24.0345ZM23.0011 11.3932L24.9827 13.3133L21.2627 13.3722L19.2805 11.4515L23.0012 11.3932L23.0011 11.3932ZM18.4473 10.644L16.422 8.68156H20.2027L22.168 10.5858L18.4473 10.644H18.4473ZM20.1028 13.3904L16.3845 13.4493L14.4014 11.5278L18.1204 11.4695L20.1028 13.3904ZM20.9359 14.1976L22.8557 16.0579H19.0766L17.2175 14.2565L20.9358 14.1976H20.9359ZM17.8209 6.75822C17.8209 5.35326 18.9639 4.21027 20.3688 4.21027C21.7737 4.21027 22.9152 5.35326 22.9152 6.75822C22.9152 7.6649 22.4309 8.49916 21.6614 8.95268L20.6543 7.9768C20.5778 7.90265 20.4754 7.86118 20.3689 7.86119H18.0725C17.9071 7.517 17.8211 7.14007 17.8209 6.75822ZM15.2432 8.6815L17.2872 10.6621L13.5682 10.7204L11.464 8.6815H15.2431H15.2432ZM18.6251 16.7626C18.7016 16.8368 18.804 16.8783 18.9105 16.8782H26.7269L27.8154 17.9331H18.2561L10.6436 10.5567H12.2205L18.6251 16.7626ZM7.553 28.8106V21.0339H11.7071V28.8106H7.553ZM12.5274 28.8106V20.6237C12.5274 20.5149 12.4842 20.4106 12.4073 20.3337C12.3304 20.2568 12.2261 20.2136 12.1173 20.2136H7.14284C7.03406 20.2136 6.92974 20.2568 6.85282 20.3337C6.7759 20.4106 6.73269 20.5149 6.73269 20.6237V28.8106H3.25614V18.3433C3.25614 18.2345 3.21293 18.1302 3.13601 18.0532C3.05909 17.9763 2.95477 17.9331 2.84599 17.9331H2.18446L9.63091 10.7176L17.0774 17.9331H16.4158C16.3071 17.9331 16.2027 17.9763 16.1258 18.0532C16.0489 18.1302 16.0057 18.2345 16.0057 18.3433V28.8106H12.5275H12.5274ZM24.1507 28.8106V28.2906C24.1507 27.0436 24.3446 26.0665 24.6601 25.2539C24.7391 25.2569 24.8167 25.2587 24.8925 25.2587C25.5684 25.2587 26.1153 25.1385 26.586 24.8898C26.6392 24.8617 26.691 24.8316 26.7419 24.8003V28.8106H24.1506H24.1507ZM19.9587 2.40828V1.77881C19.9587 1.67003 20.0019 1.5657 20.0788 1.48878C20.1558 1.41187 20.2601 1.36865 20.3689 1.36865C20.4776 1.36865 20.582 1.41187 20.6589 1.48878C20.7358 1.5657 20.779 1.67003 20.779 1.77881V2.40828C20.779 2.51706 20.7358 2.62139 20.6589 2.69831C20.582 2.77522 20.4776 2.81844 20.3689 2.81844C20.2601 2.81844 20.1558 2.77522 20.0788 2.69831C20.0019 2.62139 19.9587 2.51706 19.9587 2.40828ZM22.1879 2.78615L22.5035 2.23971C22.53 2.19233 22.5657 2.15069 22.6085 2.11721C22.6513 2.08374 22.7002 2.05909 22.7526 2.0447C22.805 2.0303 22.8597 2.02645 22.9135 2.03337C22.9674 2.04029 23.0194 2.05783 23.0664 2.08499C23.1134 2.11215 23.1546 2.14837 23.1875 2.19157C23.2204 2.23476 23.2445 2.28407 23.2582 2.33662C23.2719 2.38917 23.275 2.44392 23.2674 2.49769C23.2598 2.55146 23.2416 2.60319 23.2138 2.64986L22.8982 3.19631C22.8713 3.24298 22.8355 3.28389 22.7928 3.3167C22.75 3.34951 22.7012 3.37357 22.6492 3.38751C22.5972 3.40144 22.5429 3.40499 22.4895 3.39793C22.4361 3.39087 22.3846 3.37335 22.338 3.34637C22.2438 3.29197 22.175 3.20238 22.1469 3.09731C22.1188 2.99224 22.1335 2.88035 22.1879 2.78615ZM23.7806 4.78725C23.7263 4.693 23.7116 4.58104 23.7399 4.47599C23.7681 4.37095 23.8369 4.28141 23.9311 4.22709L24.4759 3.91314C24.5225 3.88624 24.574 3.86879 24.6275 3.86179C24.6809 3.8548 24.7351 3.8584 24.7871 3.87238C24.8392 3.88636 24.8879 3.91046 24.9306 3.94329C24.9733 3.97613 25.0091 4.01705 25.036 4.06373C25.0903 4.15797 25.105 4.26993 25.0768 4.37498C25.0485 4.48003 24.9797 4.56956 24.8855 4.62389L24.3408 4.93783C24.2941 4.96477 24.2426 4.98224 24.1892 4.98925C24.1358 4.99626 24.0815 4.99267 24.0295 4.97869C23.9775 4.9647 23.9287 4.94059 23.886 4.90774C23.8433 4.87489 23.8075 4.83395 23.7807 4.78725H23.7806ZM24.7189 6.34812H25.3484C25.4572 6.34812 25.5615 6.39134 25.6384 6.46826C25.7153 6.54518 25.7585 6.6495 25.7585 6.75828C25.7585 6.86706 25.7153 6.97139 25.6384 7.04831C25.5615 7.12522 25.4572 7.16844 25.3484 7.16844H24.7189C24.6101 7.16844 24.5058 7.12522 24.4289 7.04831C24.352 6.97139 24.3088 6.86706 24.3088 6.75828C24.3088 6.6495 24.352 6.54518 24.4289 6.46826C24.5058 6.39134 24.6101 6.34812 24.7189 6.34812ZM24.8863 8.89314C24.9644 8.93838 25.0254 9.00814 25.0599 9.09159C25.0943 9.17505 25.1003 9.26754 25.0768 9.35472C25.0533 9.4419 25.0018 9.51891 24.9301 9.57379C24.8584 9.62867 24.7706 9.65836 24.6803 9.65826C24.6082 9.65826 24.5374 9.63917 24.4751 9.60295L23.9304 9.28736C23.8838 9.26036 23.8429 9.22445 23.8102 9.18167C23.7775 9.13889 23.7535 9.09008 23.7396 9.03803C23.7258 8.98598 23.7223 8.93171 23.7294 8.87832C23.7365 8.82493 23.7541 8.77346 23.7811 8.72686C23.8081 8.68024 23.844 8.63941 23.8867 8.60668C23.9295 8.57395 23.9783 8.54997 24.0304 8.5361C24.0824 8.52224 24.1367 8.51876 24.1901 8.52588C24.2435 8.53299 24.2949 8.55055 24.3415 8.57756L24.8863 8.89314ZM17.5235 2.64916C17.4967 2.60245 17.4793 2.55092 17.4724 2.4975C17.4655 2.44408 17.4692 2.38982 17.4832 2.33782C17.4973 2.28582 17.5215 2.2371 17.5543 2.19444C17.5872 2.15178 17.6282 2.11601 17.6749 2.08918C17.7216 2.06234 17.7731 2.04496 17.8265 2.03804C17.88 2.03112 17.9342 2.0348 17.9862 2.04885C18.0382 2.06291 18.0869 2.08707 18.1296 2.11996C18.1722 2.15285 18.208 2.19382 18.2348 2.24053L18.5487 2.78697C18.5764 2.83371 18.5945 2.88547 18.602 2.93926C18.6094 2.99304 18.6062 3.04778 18.5924 3.1003C18.5785 3.15281 18.5544 3.20206 18.5214 3.24518C18.4884 3.2883 18.4471 3.32443 18.4001 3.35149C18.353 3.37854 18.301 3.39598 18.2471 3.40278C18.1932 3.40958 18.1385 3.40562 18.0862 3.39112C18.0339 3.37661 17.9849 3.35186 17.9422 3.3183C17.8995 3.28474 17.8639 3.24304 17.8375 3.19561L17.5236 2.64916H17.5235ZM15.7 4.06379C15.7269 4.01711 15.7628 3.97619 15.8055 3.94336C15.8482 3.91053 15.8969 3.88644 15.949 3.87246C16.001 3.85847 16.0553 3.85487 16.1087 3.86187C16.1621 3.86886 16.2136 3.8863 16.2603 3.9132L16.8051 4.22715C16.852 4.25393 16.8931 4.2897 16.9261 4.33241C16.9592 4.37513 16.9834 4.42395 16.9976 4.47606C17.0117 4.52818 17.0154 4.58258 17.0084 4.63613C17.0015 4.68967 16.984 4.74132 16.957 4.78811C16.9301 4.83489 16.8942 4.87589 16.8513 4.90876C16.8085 4.94162 16.7596 4.96571 16.7074 4.97962C16.6552 4.99354 16.6008 4.99702 16.5473 4.98985C16.4938 4.98269 16.4422 4.96503 16.3955 4.93789L15.8507 4.62395C15.7564 4.56963 15.6876 4.4801 15.6594 4.37505C15.6311 4.27 15.6458 4.15804 15.7001 4.06379H15.7ZM14.9776 6.75834C14.9776 6.64956 15.0209 6.54523 15.0978 6.46832C15.1747 6.3914 15.279 6.34818 15.3878 6.34818H16.0189C16.1277 6.34818 16.232 6.3914 16.3089 6.46832C16.3859 6.54523 16.4291 6.64956 16.4291 6.75834C16.4291 6.86712 16.3859 6.97144 16.3089 7.04836C16.232 7.12528 16.1277 7.1685 16.0189 7.1685H15.3878C15.279 7.1685 15.1747 7.12528 15.0978 7.04836C15.0209 6.97144 14.9776 6.86712 14.9776 6.75834Z" fill="black"/>
<path d="M27.8156 17.9331L26.7271 16.8782H18.9107C18.8042 16.8782 18.7018 16.8367 18.6253 16.7626L12.2207 10.5566H10.6438L18.2563 17.9331H27.8156Z" fill="#42A5F5"/>
<path d="M24.578 21.0903C25.1204 20.5621 25.833 20.2215 26.5848 20.1309C26.6371 20.1246 26.6896 20.1195 26.7421 20.1156V18.7534H16.8262V28.8106H23.3306V28.2906C23.3306 27.1751 22.978 26.2572 22.502 25.5252C22.2008 25.594 21.9235 25.6288 21.6642 25.6288C21.4151 25.6288 21.182 25.5972 20.9592 25.5344C20.2237 25.3272 19.6445 24.7756 19.2377 23.8951C19.1065 23.6071 18.8915 23.2629 18.3829 23.1381C18.3115 23.1206 18.2461 23.0843 18.1936 23.0329C18.141 22.9814 18.1033 22.9168 18.0843 22.8458C18.0653 22.7748 18.0657 22.7 18.0855 22.6292C18.1054 22.5584 18.1439 22.4942 18.197 22.4434C19.4438 21.2504 20.9985 21.3423 21.9862 21.9625C23.0645 22.6396 23.523 23.8474 23.1729 25.062C23.338 25.3138 23.4847 25.5771 23.6119 25.8501C23.698 25.5085 23.8077 25.1733 23.9403 24.8469C23.293 23.5624 23.5328 22.1079 24.578 21.0902V21.0903Z" fill="#CEDDDB"/>
<path d="M24.8927 25.2587C24.817 25.2587 24.7393 25.2569 24.6604 25.2539C24.3448 26.0665 24.1509 27.0436 24.1509 28.2906V28.8106H26.7421V24.8003C26.6912 24.8318 26.6392 24.8617 26.5863 24.8898C26.1155 25.1385 25.5686 25.2587 24.8927 25.2587Z" fill="#CEDDDB"/>
<path d="M20.8028 22.8027C21.2701 23.0865 21.8843 23.5289 22.4642 24.1561C22.4221 23.4612 21.9928 22.9353 21.5498 22.6571C20.995 22.3088 20.1183 22.1455 19.2681 22.6498C19.7142 22.9631 19.9051 23.3818 19.9831 23.5528C20.4235 24.506 21.013 24.8933 21.9367 24.791C21.3719 24.1635 20.7631 23.7384 20.377 23.5038C20.3306 23.476 20.2902 23.4393 20.2581 23.3959C20.226 23.3524 20.2028 23.303 20.1898 23.2505C20.1768 23.1981 20.1744 23.1436 20.1825 23.0901C20.1907 23.0367 20.2094 22.9854 20.2374 22.9392C20.2655 22.893 20.3024 22.8528 20.346 22.821C20.3897 22.7891 20.4392 22.7661 20.4917 22.7534C20.5442 22.7407 20.5988 22.7386 20.6521 22.747C20.7055 22.7555 20.7567 22.7744 20.8028 22.8027Z" fill="#81C784"/>
<path d="M7.55298 21.0337H11.7071V28.8104H7.55298V21.0337Z" fill="#42A5F5"/>
<path d="M20.3691 7.86137C20.4756 7.86137 20.5779 7.90285 20.6545 7.97697L21.6616 8.95285C22.4311 8.49934 22.9154 7.66508 22.9154 6.7584C22.9154 5.35344 21.7731 4.21045 20.369 4.21045C18.9649 4.21045 17.821 5.35344 17.821 6.7584C17.8213 7.14025 17.9072 7.51718 18.0726 7.86137H20.369H20.3691Z" fill="#FFD54F"/>
<path d="M22.168 10.5859L20.2028 8.68164H16.422L18.4473 10.6441L22.168 10.5859ZM21.2627 13.3722L24.9827 13.3133L23.0012 11.3932L19.2805 11.4515L21.2627 13.3722ZM17.2873 10.6623L15.2433 8.68164H11.4641L13.5683 10.7205L17.2873 10.6623Z" fill="#64B5F6"/>
<path d="M9.63098 17.7073C10.2263 17.7073 10.7107 17.2229 10.7107 16.6276C10.7107 16.0322 10.2263 15.5479 9.63098 15.5479C9.03566 15.5479 8.55127 16.0322 8.55127 16.6276C8.55127 17.2229 9.03566 17.7073 9.63098 17.7073Z" fill="#42A5F5"/>
<path d="M22.8559 16.0581L20.9361 14.1979L17.2177 14.2567L19.0768 16.0581H22.8559ZM14.4016 11.528L16.3847 13.4495L20.103 13.3906L18.1206 11.4697L14.4016 11.528Z" fill="#64B5F6"/>
<path d="M25.1503 21.678C24.5441 22.2682 24.3013 23.0558 24.4501 23.828C24.8801 23.1105 25.392 22.5184 25.9092 21.9648C25.9834 21.8853 26.0862 21.8386 26.1949 21.8349C26.3037 21.8312 26.4094 21.8708 26.4889 21.9451C26.5684 22.0193 26.6151 22.1221 26.6188 22.2308C26.6225 22.3395 26.5829 22.4453 26.5086 22.5248C25.9695 23.1019 25.4545 23.7003 25.044 24.4372C26.0412 24.4066 26.9882 24.0199 27.35 22.409C27.4012 22.1817 27.531 21.6043 28.0314 21.1201C26.8222 20.6564 25.7519 21.0922 25.1503 21.678Z" fill="#81C784"/>
<path d="M24.0347 16.0581H27.8155L25.8159 14.1206L22.0959 14.1795L24.0347 16.0581Z" fill="#64B5F6"/>
<path d="M3.25631 18.3434V28.8108H6.73285V20.6239C6.73285 20.5151 6.77606 20.4108 6.85298 20.3338C6.9299 20.2569 7.03423 20.2137 7.14301 20.2137H12.1174C12.2262 20.2137 12.3305 20.2569 12.4075 20.3338C12.4844 20.4108 12.5276 20.5151 12.5276 20.6239V28.8108H16.0058V18.3434C16.0058 18.2346 16.049 18.1303 16.1259 18.0534C16.2028 17.9765 16.3072 17.9332 16.4159 17.9332H17.0775L9.63102 10.7178L2.18457 17.9332H2.84609C2.95487 17.9332 3.0592 17.9765 3.13612 18.0534C3.21304 18.1303 3.25625 18.2346 3.25625 18.3434H3.25631ZM9.63107 14.7276C10.6787 14.7276 11.5311 15.58 11.5311 16.6277C11.5311 17.6753 10.6787 18.5277 9.63107 18.5277C8.58342 18.5277 7.73105 17.6754 7.73105 16.6277C7.73105 15.5799 8.58342 14.7276 9.63107 14.7276Z" fill="#DCEAE9"/>
</svg>
