<svg width="44" height="36" viewBox="0 0 44 36" fill="none" xmlns="http://www.w3.org/2000/svg">
<path fill-rule="evenodd" clip-rule="evenodd" d="M0.666626 4.59017C0.666626 2.19694 2.60672 0.256836 4.99996 0.256836H39C41.3932 0.256836 43.3333 2.19694 43.3333 4.59017V31.2568C43.3333 33.6501 41.3932 35.5902 39 35.5902H4.99996C2.60673 35.5902 0.666626 33.6501 0.666626 31.2568V4.59017ZM4.99996 2.25684C3.7113 2.25684 2.66663 3.30151 2.66663 4.59017V31.2568C2.66663 32.5455 3.7113 33.5902 4.99996 33.5902H39C40.2886 33.5902 41.3333 32.5455 41.3333 31.2568V4.59017C41.3333 3.30151 40.2886 2.25684 39 2.25684H4.99996Z" fill="#B2B9C4"/>
<ellipse cx="10.6666" cy="9.59017" rx="4.33333" ry="4.33333" fill="#B2B9C4"/>
<path d="M6.33325 27.9236V25.9473C6.33325 25.5052 6.50885 25.0813 6.82141 24.7688L12.2095 19.3806C12.8386 18.7516 13.8509 18.7275 14.5092 19.3259L15.8405 20.5362C16.4921 21.1286 17.492 21.1118 18.1234 20.498L27.8216 11.0691C28.4751 10.4339 29.5175 10.4412 30.1619 11.0856L37.8451 18.7688C38.1577 19.0813 38.3333 19.5052 38.3333 19.9473V27.9236C38.3333 28.8441 37.5871 29.5903 36.6666 29.5903H7.99992C7.07944 29.5903 6.33325 28.8441 6.33325 27.9236Z" fill="#B2B9C4"/>
</svg>
