<svg width="28" height="28" viewBox="0 0 28 28" fill="none" xmlns="http://www.w3.org/2000/svg">
<g clip-path="url(#clip0_888_67620)">
<path d="M27.154 7.10172C26.419 4.39578 23.6053 1.58156 20.8994 0.847109C19.2402 0.433125 17.0177 0.00710937 14 0C10.9834 0.00765625 8.76094 0.433125 7.10172 0.847109C4.39633 1.58211 1.58211 4.39578 0.847109 7.10172C0.433672 8.76039 0.00765625 10.9834 0 14C0.00765625 17.0171 0.433672 19.2402 0.847109 20.8988C1.58211 23.6048 4.39633 26.4184 7.10172 27.1534C8.76094 27.5674 10.9845 27.9929 14.0005 28.0005C17.0171 27.9929 19.2402 27.5674 20.8994 27.1534C23.6053 26.4184 26.419 23.6048 27.154 20.8988C27.5674 19.2402 27.9934 17.016 28.0005 14C27.9934 10.9834 27.5674 8.76039 27.154 7.10172Z" fill="#FFE5E5"/>
<path d="M17.0043 5.36484C16.4528 4.95472 15.7887 4.72375 15.1018 4.70312C13.1006 4.65422 11.0984 4.73661 9.10801 4.94976C7.77855 5.10398 6.50379 6.37874 6.34957 7.7082C6.00066 10.9703 6.00066 17.0275 6.34957 20.2891C6.50379 21.6185 7.77855 22.8938 9.10801 23.048C12.3617 23.3966 15.6434 23.3966 18.8971 23.048C20.2265 22.8938 21.5013 21.6191 21.6555 20.2891C21.8934 18.0676 21.9689 14.5469 21.8825 11.5008V11.4882C21.8765 10.8311 21.6633 10.1926 21.2732 9.66382C20.071 8.02734 18.6323 6.57854 17.0043 5.36484Z" fill="url(#paint0_linear_888_67620)"/>
<path d="M21.8789 11.5013C21.6257 11.5073 21.372 11.5117 21.1204 11.5117C20.0495 11.5115 18.9794 11.4543 17.9146 11.3405H17.9053C17.271 11.2673 16.6475 10.9523 16.1493 10.4541C15.6511 9.95586 15.3361 9.33133 15.2628 8.69531C15.2626 8.69222 15.2626 8.68911 15.2628 8.68602C15.1215 7.36338 15.0674 6.03287 15.101 4.70312C15.7881 4.72364 16.4524 4.95462 17.0041 5.36484C18.6352 6.58159 20.0761 8.03432 21.2795 9.67531C21.6677 10.2009 21.8784 10.8365 21.8811 11.4898L21.8789 11.5013Z" fill="url(#paint1_linear_888_67620)"/>
<path d="M10.2467 21.0614C9.90155 21.0606 9.57078 20.9229 9.3269 20.6786C9.18581 20.5374 9.07916 20.3655 9.01522 20.1764C8.95129 19.9873 8.93178 19.786 8.95823 19.5881C8.98468 19.3902 9.05636 19.2011 9.16772 19.0354C9.27907 18.8698 9.42711 18.732 9.60034 18.6327C10.49 18.1242 11.4177 17.6854 12.3752 17.3202C12.4332 17.2109 12.4908 17.0986 12.548 16.9834C12.9038 16.2728 13.2023 15.5349 13.4405 14.7767C12.956 14.0164 12.5945 13.1844 12.3692 12.3114C12.3016 12.0406 12.3255 11.7551 12.437 11.4993C12.5486 11.2435 12.7415 11.0317 12.9859 10.8969C13.2303 10.7622 13.5124 10.712 13.7883 10.7542C14.0641 10.7963 14.3183 10.9285 14.5113 11.1302C14.6364 11.2611 14.7321 11.4172 14.792 11.5881C14.8519 11.759 14.8746 11.9407 14.8585 12.1211C14.7814 12.9721 14.626 13.8142 14.3942 14.6367C14.836 15.2662 15.3544 15.8383 15.9375 16.3397C16.5547 16.2327 17.1775 16.1613 17.8029 16.1259C17.9876 16.1162 18.1719 16.1497 18.3413 16.2238C18.5108 16.2978 18.6606 16.4103 18.779 16.5523C18.8974 16.6943 18.9811 16.862 19.0234 17.042C19.0657 17.222 19.0655 17.4093 19.0227 17.5892C18.98 17.7691 18.896 17.9366 18.7772 18.0783C18.6585 18.2201 18.5084 18.3322 18.3388 18.4058C18.1692 18.4795 17.9848 18.5125 17.8001 18.5025C17.6155 18.4924 17.4358 18.4394 17.2752 18.3478C16.7206 18.0305 16.1915 17.6706 15.6925 17.2716C14.7742 17.4518 13.8712 17.7027 12.9915 18.0219C12.4894 18.9274 11.907 19.786 11.2514 20.5873C11.1364 20.7272 10.9934 20.8416 10.8316 20.9231C10.6698 21.0045 10.4927 21.0513 10.3118 21.0603C10.2889 21.0614 10.2681 21.0614 10.2467 21.0614ZM11.6402 18.5709C11.1157 18.8083 10.5781 19.0806 10.0318 19.3912C9.97515 19.4232 9.92674 19.468 9.89047 19.5221C9.85419 19.5761 9.83106 19.6379 9.82292 19.7024C9.8108 19.7943 9.8289 19.8876 9.87449 19.9683C9.92008 20.049 9.99069 20.1127 10.0756 20.1498C10.1606 20.1868 10.2553 20.1952 10.3455 20.1737C10.4356 20.1522 10.5163 20.102 10.5754 20.0305C10.9572 19.5642 11.3126 19.0769 11.6402 18.5709ZM16.8978 17.0812C17.1516 17.2552 17.4212 17.4258 17.7094 17.5915C17.7505 17.6154 17.7966 17.6294 17.8441 17.6325C17.8915 17.6355 17.939 17.6275 17.9828 17.609C18.0286 17.5903 18.0693 17.5613 18.1018 17.5242C18.1344 17.487 18.1578 17.4428 18.1703 17.3951C18.1827 17.3473 18.1839 17.2973 18.1737 17.249C18.1635 17.2007 18.1421 17.1554 18.1114 17.1168C18.0804 17.0776 18.0404 17.0464 17.9948 17.0259C17.9492 17.0055 17.8993 16.9963 17.8494 16.9992C17.5781 17.0123 17.2593 17.038 16.8978 17.0812ZM14.0672 15.6594C13.9092 16.0969 13.7353 16.5185 13.5526 16.9172C14.0164 16.7734 14.4604 16.6547 14.8804 16.5573C14.5914 16.2737 14.3197 15.9729 14.0667 15.6566L14.0672 15.6594ZM13.5789 11.6169C13.5203 11.6192 13.463 11.6347 13.4112 11.6621C13.3594 11.6896 13.3145 11.7283 13.2797 11.7755C13.2447 11.8217 13.2207 11.8752 13.2094 11.932C13.1982 11.9889 13.1999 12.0475 13.2146 12.1036C13.3441 12.6076 13.5261 13.0967 13.7577 13.5627C13.8647 13.0613 13.9414 12.554 13.9874 12.0434C13.9927 11.987 13.9857 11.9301 13.9668 11.8766C13.948 11.8231 13.9176 11.7744 13.878 11.7339C13.8397 11.6931 13.7929 11.6612 13.741 11.6404C13.689 11.6196 13.6331 11.6104 13.5772 11.6136L13.5789 11.6169Z" fill="url(#paint2_linear_888_67620)"/>
</g>
<defs>
<linearGradient id="paint0_linear_888_67620" x1="20.6919" y1="22.132" x2="5.86777" y2="7.30843" gradientUnits="userSpaceOnUse">
<stop stop-color="#EF3739"/>
<stop offset="0.54" stop-color="#EF3739"/>
<stop offset="1" stop-color="#FF8C8B"/>
</linearGradient>
<linearGradient id="paint1_linear_888_67620" x1="21.0996" y1="12.2806" x2="14.3118" y2="5.49281" gradientUnits="userSpaceOnUse">
<stop stop-color="#34344F"/>
<stop offset="0.26" stop-color="#3B3B57"/>
<stop offset="0.66" stop-color="#50506D"/>
<stop offset="1" stop-color="#666684"/>
</linearGradient>
<linearGradient id="paint2_linear_888_67620" x1="16.4374" y1="20.4248" x2="9.91206" y2="13.8995" gradientUnits="userSpaceOnUse">
<stop stop-color="#FFD2D2"/>
<stop offset="0.57" stop-color="white"/>
<stop offset="1" stop-color="white"/>
</linearGradient>
<clipPath id="clip0_888_67620">
<rect width="28" height="28" fill="white"/>
</clipPath>
</defs>
</svg>
