<svg width="49" height="49" viewBox="0 0 49 49" fill="none" xmlns="http://www.w3.org/2000/svg">
<path d="M29.4512 31.9999L29.4452 30.3649L31.2527 28.5544L32.89 28.5589L29.4512 31.9999ZM4.06148 26.7311L5.76773 28.4374L4.79273 29.0891L3.41273 27.7091L4.06148 26.7311ZM18.1952 38.3044C18.1952 38.7022 18.0372 39.0837 17.7559 39.365C17.4746 39.6464 17.0931 39.8044 16.6952 39.8044C16.2974 39.8044 15.9159 39.6464 15.6346 39.365C15.3533 39.0837 15.1952 38.7022 15.1952 38.3044C15.1952 37.5087 14.8792 36.7457 14.3165 36.1831C13.7539 35.6205 12.9909 35.3044 12.1952 35.3044C11.3996 35.3044 10.6365 35.6205 10.0739 36.1831C9.5113 36.7457 9.19523 37.5087 9.19523 38.3044V43.9294C9.19523 44.4267 8.99768 44.9036 8.64605 45.2552C8.29442 45.6068 7.81751 45.8044 7.32023 45.8044C6.82295 45.8044 6.34603 45.6068 5.9944 45.2552C5.64277 44.9036 5.44523 44.4267 5.44523 43.9294V30.4556L6.84923 29.5189L7.38473 30.0544C7.86491 30.5345 8.51616 30.8043 9.19523 30.8043C9.87429 30.8043 10.5255 30.5345 11.0057 30.0544L18.1952 22.8649V38.3044ZM29.4452 9.05439C29.4444 9.33549 29.3328 9.60495 29.1347 9.80439L9.94523 28.9939C9.74174 29.184 9.47368 29.2897 9.19523 29.2897C8.91678 29.2897 8.64872 29.184 8.44523 28.9939L3.50573 24.0544C3.30696 23.8554 3.19531 23.5856 3.19531 23.3044C3.19531 23.0231 3.30696 22.7534 3.50573 22.5544L22.6952 3.36489C22.8942 3.16612 23.164 3.05447 23.4452 3.05447C23.7265 3.05447 23.9962 3.16612 24.1952 3.36489L29.1347 8.30439C29.3328 8.50382 29.4444 8.77328 29.4452 9.05439ZM27.097 20.6989L35.4572 11.6044C35.9335 11.1264 36.201 10.4792 36.201 9.80439C36.201 9.12961 35.9335 8.48235 35.4572 8.00439L32.0072 4.55439C31.5187 4.0868 30.8685 3.82581 30.1922 3.82581C29.516 3.82581 28.8658 4.0868 28.3772 4.55439L27.9422 4.98939L26.7557 3.80439L26.872 3.68814C27.7541 2.80815 28.9492 2.31396 30.1952 2.31396C31.4412 2.31396 32.6364 2.80815 33.5185 3.68814L36.3317 6.50439C36.7673 6.94014 37.1125 7.45774 37.3473 8.02741C37.582 8.59707 37.7018 9.20755 37.6997 9.82369C37.6976 10.4398 37.5737 11.0495 37.3351 11.6175C37.0964 12.1856 36.7478 12.7009 36.3092 13.1336L27.9452 22.2289C27.462 22.7129 27.1905 23.3689 27.1905 24.0529C27.1905 24.7369 27.462 25.3929 27.9452 25.8769L29.8825 27.8044L28.6952 28.9954L27.0752 27.3844C26.6374 26.9441 26.2906 26.4219 26.0547 25.8476C25.8189 25.2732 25.6985 24.658 25.7005 24.0371C25.7025 23.4162 25.8269 22.8018 26.0665 22.229C26.3061 21.6562 26.6563 21.1363 27.097 20.6989ZM29.767 33.8044L34.7005 28.8709L35.4812 29.6516C35.515 29.8678 35.5805 30.0778 35.6755 30.2749L31.1755 34.7749C30.976 34.6781 30.7631 34.6116 30.544 34.5776L29.767 33.8044ZM38.7812 42.8291L32.431 36.4699C32.397 36.2507 32.3305 36.0379 32.2337 35.8384L36.7337 31.3384C36.9354 31.4372 37.1508 31.505 37.3727 31.5394L43.7222 37.8986C43.7559 38.1149 43.8216 38.325 43.9172 38.5219L39.4172 43.0219C39.2161 42.9262 39.0017 42.8612 38.7812 42.8291ZM46.6952 41.7544L44.7452 43.7044C44.7161 43.7256 44.6887 43.7492 44.6635 43.7749L42.6347 45.8044H41.7557L40.6705 44.7184C40.6363 44.4994 40.5695 44.2869 40.4725 44.0876L44.9725 39.5876C45.1737 39.6868 45.389 39.7546 45.6107 39.7886L46.6952 40.8761V41.7544Z" fill="#B91C1C"/>
</svg>
