<svg width="49" height="49" viewBox="0 0 49 49" fill="none" xmlns="http://www.w3.org/2000/svg">
<path d="M32.3053 35.1519C33.3975 35.1519 33.5072 34.1499 34.4029 33.9495L31.0435 29.3522C30.9631 29.3437 30.8824 29.3396 30.8016 29.3398C30.4104 29.3303 30.0276 29.4532 29.715 29.6885C29.271 30.0086 28.7351 30.1758 28.1878 30.1652C28.044 30.1655 27.9003 30.1555 27.7579 30.1352L30.714 34.1865C31.2028 34.5508 31.4593 35.1519 32.3053 35.1519ZM40.9532 29.3599C40.67 29.4062 40.4017 29.5189 40.1704 29.6887C39.7215 29.999 39.1888 30.1652 38.6432 30.1652C38.0976 30.1652 37.5649 29.999 37.116 29.6887C36.976 29.5937 36.827 29.5127 36.6711 29.4469L39.9711 33.963C40.8175 34.191 40.9448 35.1517 42.0148 35.1517C43.2285 35.1517 43.1254 33.9142 44.3393 33.9142L40.9532 29.3599ZM37.1597 35.1519C38.139 35.1519 38.3284 34.3466 39.0025 34.0354L35.6018 29.3816C35.3647 29.4418 35.1411 29.546 34.9425 29.6887C34.4985 30.0086 33.9627 30.1758 33.4155 30.1652C33.1266 30.1697 32.8389 30.1258 32.5645 30.0354L35.6374 34.2405C36.0833 34.607 36.3544 35.1517 37.1599 35.1517L37.1597 35.1519ZM38.6432 29.3402C39.0344 29.3496 39.4174 29.2267 39.73 28.9912C39.9436 28.8455 40.1749 28.7276 40.4183 28.6402L37.1087 24.1882C37.0633 24.2014 37.0178 24.2141 36.9722 24.2265C36.7555 24.3307 36.5606 24.4754 36.3981 24.6527C36.0536 24.9785 35.6252 25.3843 34.8073 25.3843C33.9895 25.3843 33.561 24.9785 33.2168 24.6527C33.18 24.6178 33.1446 24.5842 33.1097 24.552L33.0934 24.5507L35.9906 28.5155C36.0038 28.5155 36.016 28.5148 36.0293 28.5148C36.5765 28.5041 37.1124 28.6712 37.5564 28.991C37.869 29.2265 38.252 29.3495 38.6432 29.3402ZM29.5243 33.9555L26.2418 29.4572C26.0295 29.3732 25.8024 29.3333 25.5743 29.3398C25.1833 29.3304 24.8005 29.4533 24.4881 29.6885C24.0393 29.9988 23.5067 30.165 22.9612 30.165C22.4156 30.165 21.883 29.9988 21.4343 29.6885C21.2136 29.5274 20.9601 29.4172 20.6918 29.3657L23.5324 33.1892H21.7367L14.5367 23.5442L7.39577 33.1892H5.54102L14.5369 21.0821L16.2011 23.322H16.512C17.3297 23.322 17.7581 23.7277 18.1024 24.0536C18.4123 24.3474 18.6364 24.5595 19.1252 24.5595C19.614 24.5595 19.8383 24.3472 20.1484 24.0536C20.4925 23.7277 20.9209 23.322 21.7386 23.322C21.748 23.322 21.7564 23.3227 21.7656 23.3227L19.1211 19.6987H14.5367L3.90039 34.0142H25.0221L25.0245 34.0175C26.2378 34.0175 26.2378 35.1519 27.4513 35.1519C28.5332 35.1519 28.6513 34.1687 29.5241 33.9557L29.5243 33.9555ZM25.2377 19.6987H25.011L27.7785 23.4859C28.0693 23.6278 28.3326 23.82 28.5565 24.0536C28.8664 24.3472 29.0905 24.5593 29.5795 24.5593C30.0685 24.5593 30.2927 24.3472 30.6028 24.0536L30.6544 24.0049C28.4195 23.2131 26.513 21.6975 25.2377 19.6987ZM27.1015 28.9912C27.4183 29.2182 27.7983 29.3402 28.188 29.3402C28.5778 29.3402 28.9577 29.2182 29.2746 28.9912C29.6212 28.7442 30.024 28.5874 30.4465 28.535L27.2631 24.179C27.1656 24.1569 27.0659 24.1461 26.9659 24.1468C26.4767 24.1468 26.2526 24.359 25.9427 24.6527C25.5985 24.9785 25.1698 25.3843 24.3521 25.3843C24.3308 25.3843 24.3107 25.383 24.2897 25.3824L26.7855 28.8028C26.8991 28.8639 27.0025 28.9286 27.1015 28.9912ZM29.1325 25.3387L31.518 28.6033C31.8072 28.6887 32.0809 28.8196 32.3288 28.9912C32.6456 29.2182 33.0256 29.3402 33.4153 29.3402C33.8051 29.3402 34.185 29.2182 34.5019 28.9912C34.6861 28.8675 34.8822 28.7625 35.0873 28.6777L31.9378 24.3679C31.8282 24.3441 31.7191 24.3188 31.6106 24.2919C31.4504 24.3949 31.3026 24.5159 31.17 24.6527C30.8258 24.9785 30.3971 25.3843 29.5795 25.3843C29.4293 25.3849 29.2794 25.3696 29.1325 25.3387Z" fill="#0E7490"/>
<path d="M21.739 24.1469C21.25 24.1469 21.0262 24.359 20.716 24.6528C20.3718 24.9787 19.9435 25.3844 19.1257 25.3844C18.3078 25.3844 17.8797 24.9787 17.5357 24.6528C17.35 24.44 17.1118 24.2796 16.8447 24.1876L20.06 28.5149H20.3484C20.8954 28.5043 21.4312 28.6714 21.8752 28.9912C22.192 29.2181 22.5719 29.3402 22.9615 29.3402C23.3512 29.3402 23.7311 29.2181 24.0479 28.9912C24.4865 28.6756 25.0146 28.5088 25.5549 28.5153L22.6799 24.5752C22.4095 24.3226 22.1838 24.1469 21.739 24.1469ZM23.3294 24.0537C23.6395 24.3474 23.8636 24.5594 24.3526 24.5594C24.8416 24.5594 25.0659 24.3474 25.376 24.0537C25.6732 23.7721 26.0341 23.4318 26.6534 23.3441L23.9896 19.6989H20.1429L23.3009 24.0267L23.3294 24.0537ZM36.6924 37.544C36.6781 37.5465 36.6636 37.5477 36.649 37.5477C36.2742 37.5415 35.9097 37.6715 35.6234 37.9136C35.2507 38.2174 34.7829 38.3801 34.3021 38.3733H34.3017C33.7445 38.3733 33.4036 38.1695 33.0085 37.9334C32.455 37.6027 32.0493 37.4559 31.8037 37.4984C31.7894 37.5008 31.7749 37.502 31.7604 37.502C31.3856 37.4958 31.0214 37.6257 30.7351 37.8676C30.3622 38.1716 29.8941 38.3343 29.413 38.3274C28.8997 38.3274 28.4268 38.1082 27.9704 37.8729C28.444 38.5162 29.0435 39.347 29.6298 40.1596C30.5217 41.3954 31.5245 42.7852 31.7804 43.0856C32.1798 43.1264 32.5588 43.2823 32.8713 43.5344C33.1576 43.7763 33.5218 43.9061 33.8965 43.9001C34.3077 43.9001 34.5575 43.7501 34.9032 43.5419L34.9689 43.5026C35.3831 43.2429 35.8604 43.1016 36.3492 43.0938C36.6287 43.094 36.9059 43.1446 37.1675 43.2431C37.3983 43.3352 37.6184 43.4523 37.8239 43.5922C38.0995 43.8079 38.4359 43.9317 38.7856 43.946C39.1604 43.9522 39.5247 43.8223 39.811 43.5804C40.1278 43.3242 40.5132 43.1674 40.9188 43.1296L36.7874 37.5279L36.6924 37.544ZM34.1671 21.7173C34.9555 21.7177 35.7393 21.5965 36.4908 21.3581L35.1164 18.9774C35.0617 18.8826 35.0469 18.7701 35.0752 18.6644C35.1035 18.5587 35.1726 18.4686 35.2674 18.4139L35.8246 18.0924L34.909 16.5067L36.7769 15.4282L37.6923 17.0139L38.2494 16.6923C38.2963 16.6652 38.3481 16.6476 38.4018 16.6405C38.4555 16.6334 38.5101 16.637 38.5624 16.651C38.6148 16.665 38.6638 16.6892 38.7068 16.7222C38.7498 16.7552 38.7859 16.7963 38.813 16.8432L40.0467 18.9804C41.1753 17.6405 41.8128 15.9556 41.8538 14.2042C41.8948 12.4528 41.3369 10.7399 40.2722 9.34872C39.2075 7.95752 37.6999 6.97136 35.9986 6.55331C34.2974 6.13527 32.5044 6.31037 30.9162 7.04968C29.328 7.78898 28.0397 9.0482 27.2643 10.6191C26.4889 12.19 26.2729 13.9785 26.652 15.6889C27.031 17.3992 27.9825 18.929 29.349 20.0251C30.7155 21.1213 32.4153 21.7183 34.1671 21.7173ZM34.4225 15.8349L33.5047 14.7597L35.9662 13.3385L36.4383 14.6711L34.4225 15.8349ZM33.329 11.3808L34.8072 10.5275C35.6628 10.0349 36.6752 9.89048 37.6344 10.1241C38.5936 10.3578 39.4261 10.9516 39.9594 11.7824C39.349 11.5981 38.7073 11.5406 38.0739 11.6137C37.4405 11.6867 36.8287 11.8887 36.2763 12.2071L31.7602 14.8145L30.6655 12.9187L33.329 11.3808ZM29.6643 12.8343L31.3325 15.7237L29.7069 16.6623L28.0387 13.7729L29.6643 12.8343Z" fill="#0E7490"/>
<path d="M36.0371 18.9221L37.272 21.0609C38.0774 20.7039 38.8158 20.2117 39.4552 19.6055L38.3047 17.6128L36.0371 18.9221Z" fill="#0E7490"/>
<path d="M34.1666 23.78C36.097 23.78 37.984 23.2076 39.5891 22.1351C41.1941 21.0627 42.4451 19.5383 43.1838 17.7549C43.9226 15.9714 44.1158 14.009 43.7392 12.1157C43.3626 10.2224 42.433 8.48335 41.068 7.11838C39.703 5.75341 37.9639 4.82386 36.0706 4.44729C34.1773 4.07071 32.2149 4.26402 30.4315 5.00277C28.648 5.74152 27.1237 6.99253 26.0513 8.5976C24.9789 10.2027 24.4065 12.0897 24.4065 14.0201C24.4094 16.6077 25.4387 19.0885 27.2684 20.9182C29.0982 22.7479 31.579 23.7771 34.1666 23.78ZM34.1666 5.49746C35.8523 5.49746 37.5 5.9973 38.9016 6.93378C40.3031 7.87026 41.3955 9.20131 42.0405 10.7586C42.6856 12.3159 42.8544 14.0295 42.5255 15.6828C42.1967 17.336 41.385 18.8546 40.193 20.0465C39.0011 21.2384 37.4825 22.0501 35.8293 22.3789C34.1761 22.7078 32.4625 22.539 30.9052 21.894C29.3479 21.2489 28.0168 20.1565 27.0803 18.755C26.1439 17.3535 25.644 15.7057 25.644 14.0201C25.6466 11.7605 26.5454 9.59421 28.1432 7.99646C29.7409 6.39871 31.9072 5.49999 34.1668 5.49746H34.1666ZM40.1706 29.8953C39.7217 30.2057 39.1889 30.3719 38.6432 30.3719C38.0975 30.3719 37.5647 30.2057 37.1158 29.8953C36.9759 29.8003 36.8269 29.7193 36.6711 29.6535L39.9711 34.1696C40.8175 34.3976 40.9448 35.3585 42.0148 35.3585C43.2285 35.3585 43.1254 34.121 44.3393 34.121L40.9532 29.5666C40.67 29.6129 40.4019 29.7255 40.1706 29.8953ZM37.1597 35.3585C38.139 35.3585 38.3284 34.5532 39.0025 34.242L35.6018 29.5882C35.3647 29.6485 35.1411 29.7526 34.9425 29.8953C34.4985 30.2152 33.9627 30.3824 33.4155 30.3718C33.1266 30.3763 32.8389 30.3325 32.5645 30.242L35.6374 34.4471C36.0833 34.8136 36.3544 35.3585 37.1599 35.3585H37.1597ZM38.6432 29.5468C39.0344 29.5562 39.4174 29.4332 39.73 29.1978C39.9436 29.0521 40.1749 28.9342 40.4183 28.8468L37.3706 24.7471C36.9894 24.8634 36.6021 24.9587 36.2104 25.0325C35.8348 25.3967 35.3304 25.5974 34.8073 25.5909C34.3813 25.5994 33.9647 25.4654 33.6235 25.2103C33.554 25.2067 33.4845 25.2026 33.4151 25.1977L35.9906 28.7221C36.0038 28.7221 36.016 28.7214 36.0291 28.7214C36.5764 28.7107 37.1123 28.8779 37.5564 29.1978C37.8691 29.4332 38.252 29.5562 38.6432 29.5468ZM32.3053 35.3585C33.3975 35.3585 33.5072 34.3565 34.4029 34.1561L31.0435 29.5588C30.9631 29.5503 30.8824 29.5462 30.8016 29.5464C30.4104 29.537 30.0275 29.6599 29.715 29.8953C29.271 30.2153 28.735 30.3825 28.1878 30.3718C28.044 30.3721 27.9003 30.3621 27.7579 30.3418L30.714 34.3931C31.2028 34.7574 31.4593 35.3585 32.3053 35.3585ZM29.1325 25.5453L31.518 28.8099C31.8072 28.8953 32.0809 29.0262 32.3288 29.1978C32.6456 29.4248 33.0256 29.5468 33.4153 29.5468C33.8051 29.5468 34.185 29.4248 34.5019 29.1978C34.6861 29.0741 34.8822 28.9691 35.0873 28.8843L32.2956 25.0638C31.9303 25.0011 31.5685 24.9197 31.2115 24.8201L31.1702 24.8595C30.8258 25.1853 30.3973 25.5911 29.5795 25.5911C29.4293 25.5916 29.2794 25.5763 29.1325 25.5453ZM27.1015 29.1978C27.4183 29.4248 27.7983 29.5468 28.188 29.5468C28.5778 29.5468 28.9577 29.4248 29.2746 29.1978C29.6212 28.9508 30.024 28.794 30.4465 28.7416L27.2631 24.3856C27.1656 24.3635 27.0659 24.3527 26.9659 24.3534C26.4767 24.3534 26.2526 24.5656 25.9427 24.8593C25.5985 25.1851 25.1698 25.5909 24.3521 25.5909C24.3308 25.5909 24.3107 25.5896 24.2897 25.589L26.7855 29.0094C26.8991 29.0705 27.0025 29.1352 27.1015 29.1978ZM27.7787 23.6925C28.0693 23.8344 28.3326 24.0266 28.5563 24.2602C28.8664 24.5536 29.0905 24.7659 29.5795 24.7659C29.8428 24.7747 30.1005 24.6887 30.3056 24.5235C29.0408 24.0468 27.8746 23.3415 26.8652 22.4426L27.7787 23.6925ZM29.5243 34.1621L26.2418 29.6638C26.0295 29.5798 25.8024 29.5399 25.5743 29.5464C25.1832 29.537 24.8005 29.66 24.4881 29.8953C24.0393 30.2056 23.5067 30.3718 22.9612 30.3718C22.4156 30.3718 21.883 30.2056 21.4343 29.8953C21.2136 29.7342 20.9601 29.624 20.6918 29.5725L23.5324 33.3956H21.7367L14.5367 23.7506L7.39577 33.3956H5.54102L14.5369 21.2887L16.2011 23.5286H16.512C17.3297 23.5286 17.7581 23.9343 18.1024 24.2602C18.4123 24.5538 18.6364 24.7661 19.1252 24.7661C19.614 24.7661 19.8383 24.5538 20.1484 24.2602C20.4925 23.9343 20.9209 23.5286 21.7386 23.5286C21.748 23.5286 21.7564 23.5293 21.7656 23.5293L19.1211 19.9053H14.5367L14.5376 19.9065L14.5369 19.9055L3.90039 34.2208H25.0221L25.0245 34.2241C26.2378 34.2241 26.2378 35.3585 27.4513 35.3585C28.5332 35.3585 28.6513 34.3753 29.5241 34.1623L29.5243 34.1621Z" fill="#0E7490"/>
<path d="M21.739 24.3529C21.25 24.3529 21.0262 24.5651 20.716 24.8587C20.3718 25.1846 19.9435 25.5904 19.1257 25.5904C18.3078 25.5904 17.8797 25.1846 17.5357 24.8587C17.35 24.6459 17.1118 24.4855 16.8447 24.3936L20.06 28.7209H20.3484C20.8954 28.7103 21.4312 28.8774 21.8752 29.1973C22.1919 29.4242 22.5719 29.5463 22.9615 29.5463C23.3512 29.5463 23.7311 29.4242 24.0479 29.1973C24.4864 28.8817 25.0146 28.7148 25.5549 28.7212L22.6799 24.7811C22.4095 24.5287 22.1838 24.3529 21.739 24.3529ZM23.3294 24.2597C23.6395 24.5533 23.8636 24.7654 24.3526 24.7654C24.8416 24.7654 25.0659 24.5533 25.376 24.2597C25.6732 23.9781 26.0341 23.6377 26.6534 23.55L23.9896 19.905H20.1429L23.3009 24.2329L23.3294 24.2597ZM36.6924 37.7501C36.6781 37.7526 36.6636 37.7539 36.649 37.7539C36.2742 37.7476 35.9098 37.8775 35.6234 38.1195C35.2507 38.4233 34.7829 38.5861 34.3021 38.5792H34.3017C33.7445 38.5792 33.4036 38.3754 33.0085 38.1394C32.455 37.8086 32.0493 37.6618 31.8037 37.7044C31.7894 37.7068 31.7749 37.708 31.7604 37.7079C31.3856 37.7017 31.0214 37.8316 30.7351 38.0736C30.3622 38.3775 29.8941 38.5403 29.413 38.5333C28.8997 38.5333 28.4268 38.3141 27.9704 38.0788C28.444 38.7221 29.0435 39.5529 29.6298 40.3656C30.5217 41.6014 31.5245 42.9911 31.7804 43.2913C32.1799 43.3323 32.5588 43.4883 32.8713 43.7406C33.1576 43.9824 33.5218 44.1123 33.8965 44.1062C34.3077 44.1062 34.5575 43.9558 34.9032 43.7479L34.9689 43.7085C35.3831 43.4488 35.8604 43.3074 36.3492 43.2996C36.6287 43.2998 36.9059 43.3505 37.1675 43.449C37.3983 43.5412 37.6184 43.6582 37.8239 43.7981C38.0995 44.0138 38.4359 44.1376 38.7856 44.1519C39.1604 44.1582 39.5247 44.0283 39.811 43.7863C40.1278 43.5301 40.5132 43.3732 40.9188 43.3354L36.7874 37.7338L36.6924 37.7501ZM29.4224 17.9299C29.5545 17.9651 29.6951 17.9466 29.8135 17.8783L32.1537 16.5272C32.2124 16.4933 32.2638 16.4483 32.305 16.3945C32.3463 16.3408 32.3765 16.2795 32.3941 16.2141C32.4116 16.1487 32.4161 16.0804 32.4072 16.0133C32.3984 15.9461 32.3764 15.8814 32.3425 15.8227L32.3135 15.7725L32.7554 15.5175L33.9395 16.9044C34.0077 16.9849 34.0991 17.0423 34.2012 17.0688C34.3033 17.0953 34.4111 17.0896 34.5099 17.0526L35.3264 18.4667L35.2158 18.5304C35.1571 18.5643 35.1057 18.6094 35.0645 18.6631C35.0232 18.7168 34.993 18.7781 34.9755 18.8435C34.9579 18.909 34.9535 18.9772 34.9623 19.0443C34.9711 19.1115 34.9931 19.1762 35.027 19.2349L36.1769 21.2265C36.5126 21.13 36.8408 21.0092 37.159 20.8652L36.1779 19.1659L38.2668 17.9599L39.1662 19.5174C39.4287 19.2694 39.6725 19.0023 39.8956 18.7183L38.902 16.9976C38.8337 16.8792 38.7211 16.7928 38.589 16.7574C38.4569 16.722 38.3162 16.7405 38.1978 16.8088L38.0872 16.8726L37.271 15.4588C37.3521 15.3915 37.4107 15.3008 37.4387 15.1992C37.4667 15.0975 37.4629 14.9897 37.4277 14.8903L36.8193 13.1737C37.2656 12.9304 37.7568 12.7805 38.2629 12.7334C38.769 12.6862 39.2795 12.7427 39.763 12.8994L40.6994 13.2039C40.8217 13.2444 40.9547 13.2373 41.072 13.1841C41.1893 13.1308 41.2821 13.0352 41.332 12.9165C41.2889 12.6799 41.2345 12.4474 41.1689 12.219L40.8545 11.6745C40.2214 10.5807 39.1803 9.78273 37.9596 9.45561C36.7389 9.12849 35.4383 9.29896 34.3432 9.92962L30.2907 12.2694L30.2619 12.2192C30.228 12.1605 30.1829 12.1091 30.1292 12.0679C30.0754 12.0267 30.0141 11.9965 29.9487 11.979C29.8833 11.9614 29.8151 11.957 29.7479 11.9658C29.6808 11.9747 29.6161 11.9967 29.5574 12.0306L27.2174 13.3815C27.1588 13.4153 27.1073 13.4604 27.0661 13.5141C27.0249 13.5679 26.9946 13.6292 26.9771 13.6946C26.9596 13.76 26.9551 13.8282 26.9639 13.8954C26.9728 13.9625 26.9947 14.0273 27.0286 14.0859L29.1093 17.6897C29.1777 17.8082 29.2903 17.8944 29.4224 17.9299ZM34.4452 15.9086L33.6637 14.9931L35.9105 13.6957L36.3125 14.8305L34.4452 15.9086ZM37.1943 17.3884L36.2195 17.9511L35.407 16.5441L36.3819 15.9812L37.1943 17.3884ZM33.3805 11.6762L34.8586 10.8227C35.6497 10.3672 36.58 10.2168 37.4743 10.3996C38.3686 10.5824 39.1652 11.0859 39.7141 11.8153C38.5287 11.5332 37.2803 11.715 36.2247 12.3236L31.7979 14.8794L30.8064 13.1623L33.3805 11.6762ZM29.6266 13.1812L31.1915 15.8919L29.7445 16.7274L28.1795 14.0166L29.6266 13.1812Z" fill="#0E7490"/>
<path d="M34.1668 24.3985C36.1787 24.3985 38.1455 23.8019 39.8184 22.6841C41.4913 21.5663 42.7951 19.9776 43.565 18.1187C44.335 16.2599 44.5364 14.2146 44.1439 12.2413C43.7514 10.268 42.7826 8.45539 41.3599 7.03272C39.9372 5.61005 38.1246 4.6412 36.1513 4.24869C34.1781 3.85618 32.1327 4.05763 30.2739 4.82757C28.4151 5.59751 26.8263 6.90137 25.7085 8.57424C24.5908 10.2471 23.9941 12.2139 23.9941 14.2259C23.9972 16.9229 25.0699 19.5086 26.977 21.4156C28.8841 23.3227 31.4697 24.3955 34.1668 24.3985ZM34.1668 6.11592C35.7708 6.11592 37.3388 6.59157 38.6725 7.48273C40.0062 8.37389 41.0457 9.64053 41.6596 11.1225C42.2734 12.6044 42.434 14.2351 42.121 15.8083C41.8081 17.3815 41.0357 18.8266 39.9014 19.9608C38.7672 21.095 37.3221 21.8674 35.7489 22.1804C34.1756 22.4933 32.545 22.3326 31.063 21.7188C29.5811 21.1049 28.3145 20.0654 27.4234 18.7316C26.5322 17.3979 26.0566 15.8299 26.0566 14.2259C26.0591 12.0757 26.9144 10.0143 28.4349 8.49387C29.9553 6.97349 32.0168 6.1183 34.167 6.11592H34.1668Z" fill="#0E7490"/>
</svg>
