<svg width="49" height="49" viewBox="0 0 49 49" fill="none" xmlns="http://www.w3.org/2000/svg">
<path d="M46.2699 41.4804C46.296 40.9341 46.211 40.3881 46.0202 39.8755C45.8293 39.3629 45.5365 38.8943 45.1595 38.498L22.956 15.0515L18.3127 19.1893L39.072 43.9235C39.4521 44.3815 39.9286 44.7501 40.4676 45.0028C41.0065 45.2555 41.5946 45.3861 42.1899 45.3853C43.1923 45.3843 44.1592 45.0141 44.9061 44.3456C45.3153 43.985 45.6471 43.5451 45.8815 43.0527C46.1159 42.5602 46.248 42.0254 46.2699 41.4804ZM8.388 24.3282L9.888 22.9905L3.75388 16.1188L2.25529 17.4564C2.21886 17.4888 2.18918 17.528 2.16793 17.5719C2.14669 17.6157 2.1343 17.6633 2.13148 17.712C2.12866 17.7606 2.13546 17.8094 2.1515 17.8554C2.16754 17.9014 2.19249 17.9438 2.22494 17.9802L7.85435 24.3006C7.92193 24.3743 8.01573 24.4184 8.11554 24.4236C8.21536 24.4287 8.3132 24.3945 8.388 24.3282ZM16.8113 19.3933C16.874 19.3978 16.9369 19.3895 16.9962 19.3689C17.0556 19.3483 17.1101 19.3157 17.1565 19.2733L22.7308 14.306C22.7322 14.306 22.7322 14.3039 22.7329 14.3032L22.7379 14.3004L22.9962 14.0703C23.0444 14.0276 23.0836 13.9758 23.1115 13.9178C23.1394 13.8598 23.1555 13.7968 23.1588 13.7325C23.1621 13.6682 23.1525 13.6039 23.1307 13.5434C23.1088 13.4829 23.0751 13.4273 23.0315 13.3799L22.6285 12.9232C21.6536 11.8235 21.4313 10.2698 22.0631 8.96464C23.0852 6.9084 26.1593 4.59099 35.0351 5.21358C35.0624 5.21253 35.0892 5.20529 35.1134 5.1924L35.3548 5.44934L35.1176 5.18817C35.1762 5.13452 35.16 5.07523 35.1268 5.03781C30.0995 1.94958 24.0741 1.93899 16.6878 4.98064C16.336 5.11959 16.0114 5.31908 15.7285 5.57005L9.72071 10.9319C9.67256 10.9731 9.63315 11.0234 9.60478 11.08C9.57641 11.1367 9.55966 11.1984 9.55553 11.2616C9.54847 11.3886 9.59506 11.515 9.68612 11.6173C10.5191 12.5526 10.4379 13.9326 9.54353 14.7352C9.10659 15.1235 8.54682 15.3183 7.96729 15.283C7.68362 15.2671 7.40592 15.1951 7.15026 15.0711C6.89461 14.9472 6.66607 14.7737 6.47788 14.5609L6.29435 14.3526C6.2281 14.2813 6.13676 14.2386 6.03959 14.2333C5.94241 14.228 5.84698 14.2607 5.77341 14.3244L4.28753 15.6493L10.4118 22.5169L11.8962 21.1919C11.9679 21.1247 12.0108 21.0324 12.0161 20.9343C12.0214 20.8362 11.9885 20.7398 11.9245 20.6653C11.4988 20.1896 11.3019 19.6298 11.3322 19.051C11.3465 18.7647 11.4179 18.4842 11.5423 18.226C11.6667 17.9678 11.8415 17.7371 12.0565 17.5475C12.4893 17.1645 13.0563 16.9687 13.6332 17.0031C14.2101 17.0375 14.7499 17.2993 15.1341 17.731L16.4725 19.2239C16.5621 19.327 16.6814 19.3863 16.8113 19.3933ZM11.8052 31.2628C12.0381 31.0298 12.1666 30.7213 12.1666 30.3945C12.1666 29.719 11.616 29.1691 10.9405 29.1691H3.55906C3.39787 29.1682 3.2381 29.1992 3.08901 29.2605C2.93991 29.3217 2.80445 29.412 2.69047 29.5259C2.5765 29.6399 2.48627 29.7754 2.42502 29.9245C2.36377 30.0736 2.33271 30.2333 2.33365 30.3945C2.33365 31.07 2.88282 31.6199 3.55906 31.6199H10.9405C11.268 31.6199 11.5751 31.4929 11.8052 31.2628ZM9.35929 42.4983V32.3265H5.14518V42.4983L5.16353 42.5675L7.14706 45.3275C7.21412 45.4228 7.28471 45.4192 7.34965 45.3289L9.33388 42.5675C9.349 42.5474 9.35784 42.5233 9.35929 42.4983Z" fill="#15803D"/>
</svg>
