<svg width="49" height="49" viewBox="0 0 49 49" fill="none" xmlns="http://www.w3.org/2000/svg">
<path d="M10.2855 19.0381C11.2019 19.0381 12.102 18.8946 12.9692 18.6181L18.1235 23.7688L23.7681 18.1253L18.6163 12.969C19.6094 9.86562 18.7934 6.4269 16.4788 4.11314C14.8311 2.46498 12.6377 1.55762 10.3087 1.55762C9.00217 1.55888 7.71219 1.85027 6.53194 2.41074C6.44509 2.4521 6.36947 2.51374 6.31144 2.59046C6.25341 2.66717 6.21467 2.75672 6.1985 2.85154C6.18258 2.94628 6.18944 3.04344 6.21851 3.13501C6.24759 3.22657 6.29804 3.30989 6.3657 3.3781L11.7887 8.80242C11.9859 8.99804 12.1423 9.23083 12.2489 9.48732C12.3555 9.74381 12.4102 10.0189 12.4097 10.2967C12.4097 10.8616 12.1886 11.3915 11.7887 11.7914C10.9921 12.5904 9.5993 12.5904 8.80122 11.7893L3.37626 6.36642C3.3082 6.29872 3.22501 6.2482 3.13355 6.21904C3.0421 6.18988 2.94501 6.18292 2.85034 6.19874C2.75549 6.21485 2.66592 6.25356 2.58919 6.3116C2.51247 6.36964 2.45085 6.44529 2.40954 6.53218C0.816255 9.87106 1.49914 13.8695 4.1121 16.4805C5.76074 18.1291 7.95306 19.0381 10.2855 19.0381ZM37.826 29.0699C36.9137 29.0705 36.007 29.2128 35.1383 29.4915L29.4374 23.7901L23.7889 29.4376L29.4915 35.14C28.5004 38.2424 29.3158 41.6802 31.6289 43.9954C33.2771 45.6435 35.4705 46.5511 37.7993 46.5511C39.1061 46.5496 40.3962 46.2581 41.5766 45.6975C41.6634 45.6561 41.7391 45.5945 41.7971 45.5178C41.8551 45.441 41.8939 45.3515 41.91 45.2567C41.9262 45.1619 41.9194 45.0647 41.8904 44.9731C41.8613 44.8815 41.8107 44.7982 41.7428 44.7301L36.3199 39.3047C36.123 39.1093 35.9668 38.8768 35.8603 38.6206C35.7538 38.3645 35.6991 38.0897 35.6995 37.8123C35.6995 37.2479 35.9201 36.7179 36.3209 36.3176C37.1201 35.5179 38.5099 35.5184 39.3075 36.3181L44.7313 41.741C44.7993 41.8089 44.8826 41.8596 44.9742 41.8887C45.0658 41.9179 45.1631 41.9247 45.2579 41.9087C45.3527 41.8924 45.4422 41.8536 45.5189 41.7956C45.5956 41.7376 45.6572 41.662 45.6987 41.5752C47.2919 38.2368 46.6095 34.2389 43.9966 31.6274C42.3484 29.9789 40.1566 29.0699 37.826 29.0699Z" fill="#CA8A04"/>
<path d="M35.5053 16.2123C35.5053 16.2123 36.4488 17.0387 37.2268 16.6526C38.106 16.2102 40.5829 18.6522 41.3732 19.2235C41.3757 19.2254 41.3812 19.2254 41.3904 19.2299L40.9584 19.6638C40.3879 20.2278 40.3884 21.1488 40.957 21.7138C41.2294 21.9857 41.5986 22.1385 41.9835 22.1385C42.3684 22.1385 42.7376 21.9857 43.01 21.7138L46.4304 18.2978C46.9956 17.7298 46.996 16.8104 46.4295 16.2434C45.865 15.6782 44.9442 15.6782 44.3776 16.2438L43.808 16.813C43.336 16.1629 42.5517 15.0549 42.6512 14.6878C43.0684 13.0803 39.7912 9.28319 39.7912 9.28319C31.6524 1.14591 26.216 1.33087 23.6298 2.22015C22.5917 2.57727 22.7842 2.80351 23.8624 2.99343C31.7088 4.36303 32.6821 8.99023 31.352 10.7755C30.8405 11.4648 31.5866 12.297 31.5866 12.297L31.8671 12.5755L18.6186 25.8216C18.7983 25.9299 18.9728 26.0531 19.1268 26.2075L21.3554 28.4341C21.5068 28.5859 21.6304 28.7592 21.7378 28.9387L34.9864 15.6922L35.5053 16.2123ZM18.2351 27.0982C17.7461 26.6088 16.914 26.5773 16.3909 27.0315L1.66788 40.231C1.14244 40.6848 1.11316 41.4571 1.60308 41.947L5.61332 45.9544C6.10356 46.4443 6.87444 46.417 7.32772 45.8944L20.5312 31.167C20.9829 30.6445 20.9543 29.8152 20.4639 29.3259L18.2351 27.0982Z" fill="#CA8A04"/>
</svg>
