<svg width="49" height="49" viewBox="0 0 49 49" fill="none" xmlns="http://www.w3.org/2000/svg">
<g clip-path="url(#clip0_252_827)">
<path d="M47.6512 17.8053C48.2014 17.8053 48.6484 17.3589 48.6484 16.808V15.4118C48.6484 14.8609 48.2014 14.4145 47.6512 14.4145H46.9003V11.6286C46.9004 11.4575 46.8564 11.2892 46.7724 11.1402L44.4337 6.97346C44.3911 6.89799 44.3293 6.83515 44.2546 6.79135C44.1799 6.74754 44.0948 6.72435 44.0082 6.72412C43.9216 6.72441 43.8367 6.74763 43.762 6.79143C43.6873 6.83523 43.6256 6.89804 43.5831 6.97346L41.244 11.1402C41.1602 11.2893 41.1162 11.4575 41.1165 11.6286V14.4145H37.2191V11.6286C37.2191 11.4571 37.1757 11.2897 37.0912 11.1402L34.754 6.97346C34.7113 6.89785 34.6494 6.83493 34.5744 6.79112C34.4994 6.74731 34.4142 6.72419 34.3274 6.72412C34.2409 6.72418 34.156 6.74732 34.0815 6.79115C34.007 6.83499 33.9455 6.89793 33.9034 6.97346L31.5632 11.1402C31.479 11.2892 31.435 11.4575 31.4353 11.6286V14.4145H27.5395V11.6286C27.5395 11.4571 27.4962 11.2897 27.412 11.1402L25.0745 6.97346C25.0318 6.89784 24.9698 6.83491 24.8948 6.7911C24.8199 6.74729 24.7346 6.72418 24.6478 6.72412C24.5613 6.72417 24.4764 6.74731 24.4019 6.79114C24.3273 6.83498 24.2659 6.89792 24.2238 6.97346L21.8835 11.1402C21.7996 11.2893 21.7555 11.4575 21.7556 11.6286V14.4145H17.8603V11.6286C17.8603 11.4571 17.8165 11.2897 17.7324 11.1402L15.3937 6.97346C15.3077 6.81992 15.1458 6.72412 14.9682 6.72412C14.7907 6.72412 14.6284 6.81992 14.5428 6.97346L12.2039 11.1402C12.12 11.2893 12.0759 11.4575 12.076 11.6286V14.4145H8.18089V11.6286C8.18089 11.4571 8.13705 11.2897 8.05299 11.1402L5.7127 6.97346C5.67059 6.89794 5.6091 6.83502 5.53456 6.79119C5.46003 6.74736 5.37515 6.72421 5.28868 6.72412C5.20181 6.72418 5.1165 6.74729 5.04147 6.7911C4.96644 6.8349 4.90439 6.89783 4.86163 6.97346L2.52448 11.1402C2.44054 11.2893 2.39648 11.4575 2.39658 11.6286V14.4145H1.64571C1.51473 14.4145 1.38501 14.4402 1.26399 14.4903C1.14296 14.5404 1.033 14.6139 0.940383 14.7065C0.847766 14.7992 0.774311 14.9091 0.724218 15.0302C0.674124 15.1512 0.648373 15.2809 0.648438 15.4119V16.8081C0.648373 16.9391 0.674125 17.0688 0.72422 17.1898C0.774315 17.3109 0.847771 17.4208 0.940389 17.5135C1.03301 17.6061 1.14297 17.6795 1.264 17.7296C1.38502 17.7797 1.51473 17.8055 1.64571 17.8054H2.39658V33.5618H1.64571C1.51473 33.5617 1.38503 33.5874 1.264 33.6375C1.14298 33.6876 1.03301 33.761 0.940395 33.8537C0.847775 33.9463 0.774318 34.0562 0.724222 34.1772C0.674125 34.2983 0.648373 34.428 0.648438 34.5589V35.9552C0.648399 36.0862 0.674169 36.2158 0.724276 36.3368C0.774382 36.4578 0.847843 36.5678 0.940458 36.6604C1.03307 36.753 1.14303 36.8264 1.26404 36.8765C1.38505 36.9266 1.51475 36.9523 1.64571 36.9523H2.39658V40.3875C2.39654 40.5185 2.42231 40.6481 2.47242 40.7691C2.52252 40.8901 2.59598 41.0001 2.6886 41.0927C2.78122 41.1853 2.89117 41.2587 3.01218 41.3088C3.13319 41.3589 3.26289 41.3846 3.39385 41.3846H7.18351C7.73338 41.3846 8.18079 40.9381 8.18079 40.3875V36.9523H12.076V40.3875C12.076 40.5185 12.1018 40.6481 12.1519 40.7691C12.202 40.8901 12.2754 41.0001 12.3681 41.0927C12.4607 41.1853 12.5706 41.2587 12.6916 41.3088C12.8127 41.3589 12.9423 41.3846 13.0733 41.3846H16.8631C16.994 41.3846 17.1237 41.3589 17.2447 41.3088C17.3658 41.2587 17.4757 41.1853 17.5683 41.0927C17.6609 41.0001 17.7344 40.8901 17.7845 40.7691C17.8346 40.6481 17.8604 40.5185 17.8603 40.3875V36.9523H21.7556V40.3875C21.7556 40.9381 22.2026 41.3846 22.7529 41.3846H26.5421C26.6731 41.3847 26.8028 41.3589 26.9239 41.3089C27.0449 41.2588 27.1549 41.1854 27.2475 41.0928C27.3401 41.0002 27.4136 40.8902 27.4637 40.7692C27.5138 40.6482 27.5395 40.5185 27.5394 40.3875V36.9523H31.4352V40.3875C31.4352 40.9381 31.8822 41.3846 32.4324 41.3846H36.2218C36.3528 41.3847 36.4825 41.3589 36.6035 41.3089C36.7245 41.2588 36.8345 41.1854 36.9271 41.0928C37.0198 41.0002 37.0932 40.8902 37.1433 40.7692C37.1934 40.6482 37.2192 40.5185 37.2191 40.3875V36.9523H41.1163V40.3875C41.1163 40.9381 41.5633 41.3846 42.1136 41.3846H45.9028C46.4531 41.3846 46.9001 40.9381 46.9001 40.3875V36.9523H47.651C48.2012 36.9523 48.6482 36.5058 48.6482 35.9552V34.5589C48.6482 34.0081 48.2012 33.5617 47.651 33.5617H46.9001V17.8053H47.6512ZM8.18089 33.5617V17.8053H12.0761V33.5617H8.18089ZM17.8604 33.5617V17.8053H21.7557V33.5617H17.8604ZM27.5395 33.5617V17.8053H31.4353V33.5617H27.5395ZM41.1164 33.5617H37.2191V17.8053H41.1163V33.5617H41.1164Z" fill="#0D9488"/>
</g>
<defs>
<clipPath id="clip0_252_827">
<rect width="48" height="48" fill="white" transform="translate(0.648438 0.0541992)"/>
</clipPath>
</defs>
</svg>
