<svg width="14" height="15" viewBox="0 0 14 15" fill="none" xmlns="http://www.w3.org/2000/svg">
<g clip-path="url(#clip0_709_107892)">
<path fill-rule="evenodd" clip-rule="evenodd" d="M6.59198 0.990649C6.70892 0.899257 6.85307 0.849609 7.00148 0.849609C7.1499 0.849609 7.29404 0.899257 7.41098 0.990649L8.51446 1.85305L9.9013 1.65789C10.0483 1.63718 10.198 1.66625 10.3265 1.74046C10.4551 1.81467 10.5551 1.92975 10.6107 2.06739L11.135 3.36603L12.4336 3.89047C12.5712 3.94604 12.6863 4.04605 12.7605 4.17457C12.8347 4.3031 12.8638 4.45275 12.8431 4.59971L12.648 5.98655L13.5104 7.09003C13.6018 7.20697 13.6514 7.35111 13.6514 7.49953C13.6514 7.64794 13.6018 7.79209 13.5104 7.90903L12.648 9.01251L12.8431 10.3993C12.8638 10.5463 12.8348 10.696 12.7606 10.8246C12.6863 10.9531 12.5713 11.0531 12.4336 11.1087L11.135 11.633L10.6107 12.9317C10.5551 13.0693 10.4551 13.1844 10.3265 13.2586C10.198 13.3328 10.0483 13.3619 9.9013 13.3412L8.51446 13.146L7.41098 14.0084C7.29404 14.0998 7.1499 14.1494 7.00148 14.1494C6.85307 14.1494 6.70892 14.0998 6.59198 14.0084L5.4885 13.146L4.10166 13.3412C3.9547 13.3618 3.80505 13.3328 3.67653 13.2586C3.548 13.1843 3.448 13.0693 3.39242 12.9317L2.86798 11.633L1.56934 11.1087C1.43171 11.0531 1.31662 10.9531 1.24241 10.8246C1.1682 10.696 1.13914 10.5463 1.15984 10.3993L1.355 9.01251L0.492602 7.90903C0.40121 7.79209 0.351563 7.64794 0.351562 7.49953C0.351562 7.35111 0.40121 7.20697 0.492602 7.09003L1.355 5.98655L1.15984 4.59971C1.13917 4.45275 1.16825 4.3031 1.24246 4.17457C1.31667 4.04605 1.43173 3.94604 1.56934 3.89047L2.86798 3.36603L3.39242 2.06739C3.448 1.92978 3.548 1.81471 3.67653 1.74051C3.80505 1.6663 3.9547 1.63722 4.10166 1.65789L5.4885 1.85305L6.59198 0.990649ZM9.46674 6.63965C9.59102 6.51484 9.6607 6.34582 9.66051 6.16969C9.66031 5.99356 9.59025 5.82471 9.4657 5.70017C9.34115 5.57564 9.17228 5.5056 8.99615 5.50543C8.82002 5.50526 8.65101 5.57497 8.52622 5.69927L6.33648 7.88915L5.47674 7.02927C5.35202 6.90455 5.18286 6.83448 5.00648 6.83448C4.8301 6.83448 4.66094 6.90455 4.53622 7.02927C4.4115 7.15399 4.34143 7.32315 4.34143 7.49953C4.34143 7.67591 4.4115 7.84507 4.53622 7.96979L5.86622 9.29979C5.92797 9.36155 6.00129 9.41054 6.08197 9.44397C6.16266 9.47739 6.24914 9.4946 6.33648 9.4946C6.42382 9.4946 6.5103 9.47739 6.59099 9.44397C6.67168 9.41054 6.74499 9.36155 6.80674 9.29979L9.46674 6.63965Z" fill="#FFC100"/>
</g>
<defs>
<clipPath id="clip0_709_107892">
<rect width="14" height="14" fill="white" transform="translate(0 0.5)"/>
</clipPath>
</defs>
</svg>
