<svg width="26" height="26" viewBox="0 0 26 26" fill="none" xmlns="http://www.w3.org/2000/svg">
<path d="M19.2726 4.2194C20.6505 4.2194 21.7675 3.27485 21.7675 2.1097C21.7675 0.94455 20.6505 0 19.2726 0C17.8948 0 16.7778 0.94455 16.7778 2.1097C16.7778 3.27485 17.8948 4.2194 19.2726 4.2194Z" fill="#1D4ED8"/>
<path d="M6.63668 17.2038H4.81669V18.8276H6.63668V17.2038Z" fill="#1D4ED8"/>
<path d="M7.65072 15.066L6.32234 13.8801L4.99061 15.0629L6.31899 16.2488L7.65072 15.066Z" fill="#1D4ED8"/>
<path d="M6.38779 12.2302L5.05857 11.0496L3.73526 12.231L5.06448 13.4116L6.38779 12.2302Z" fill="#1D4ED8"/>
<path d="M9.41227 25.9782L11.6666 15.302H9.97227L7.99433 24.4887H3.63281L1.69794 15.3083H0L2.21845 25.9782H9.41227Z" fill="#1D4ED8"/>
<path d="M12.2908 9.41663H8.53596C7.04981 9.41663 7.04981 11.0755 8.53596 11.0755L12.8257 11.0692C13.1452 11.0692 13.4754 10.9254 13.7231 10.5898L15.8805 7.71283L15.877 24.8141C15.877 25.4694 16.5016 26 17.2769 26C18.0487 26 18.6769 25.4694 18.6769 24.8141V14.8922H19.9657V24.8141C19.9657 25.4694 20.5939 26 21.3621 26C22.1374 26 22.7621 25.4694 22.7621 24.8141L22.7656 7.71283H24.0508V14.0196C24.0508 15.2854 26.0036 15.2854 26 14.0196V7.58504C26 6.18498 24.3595 4.80411 22.421 4.80411H17.46C16.34 4.80411 15.3636 5.28991 14.7964 6.03469L12.2908 9.41663Z" fill="#1D4ED8"/>
</svg>
