<svg width="26" height="26" viewBox="0 0 26 26" fill="none" xmlns="http://www.w3.org/2000/svg">
<path d="M15.0226 9.27074L0 1.53984V0L15.5173 8.05373L15.0226 9.27074Z" fill="#A16207"/>
<path d="M9.88925 17.7612H16.4621V24.1135C16.4621 25.1533 17.2405 25.9922 18.2008 25.9922C19.1611 25.9922 19.9395 25.1533 19.9395 24.1135V17.7612C20.4633 17.7612 20.5106 17.391 20.5106 16.9617V12.2239L15.018 9.31744H3.34188L1.83598 8.39585C1.3522 8.09654 0.737479 8.28165 0.464672 8.80545C0.191864 9.32924 0.359186 9.99093 0.842964 10.2902L3.22184 11.7671V24.1215C3.22184 25.1612 4.00025 26 4.96054 26C5.92082 26 6.69923 25.1612 6.69923 24.1215L6.69559 19.2813L9.84197 25.0351C10.333 25.9291 11.3988 26.2206 12.2245 25.689C13.0465 25.1573 13.3157 23.9955 12.8247 23.1054L9.88925 17.7612Z" fill="#A16207"/>
<path d="M15.5497 8.02236L20.4966 10.5704V9.57013L24.5232 9.56232L26 6.12413L15.5497 0.73266V8.02236Z" fill="#A16207"/>
</svg>
