<svg width="26" height="26" viewBox="0 0 26 26" fill="none" xmlns="http://www.w3.org/2000/svg">
<path d="M17.7485 18.571L19.1864 19.6985L21.6964 16.9626L18.742 14.6383L17.5095 15.9838L17.7485 18.571Z" fill="#C2410C"/>
<path d="M26 20.3139L20.4349 20.307L20.4274 25.5644H24.2147L26 23.7796V20.3139Z" fill="#C2410C"/>
<path d="M15.9415 25.8414L17.8239 25.3191L16.132 20.079L12.1132 21.1858L11.3326 24.3195L15.9415 25.8414Z" fill="#C2410C"/>
<path d="M12.0679 2.86391C7.72041 0.498079 5.43459 0.425434 1.47926 0L1.33359 0.688321C6.24133 1.74326 7.48509 2.80858 10.8652 4.70747L11.3321 6.77581L0.183226 23.7862C0.0749123 23.9903 0.00769801 24.2117 0.000228081 24.4538C-0.0147118 25.2978 0.706162 25.986 1.61376 25.9999C2.21135 26.0068 2.73797 25.7163 3.03677 25.2839L14.0101 8.65743L18.4734 11.3068L20.7704 7.79964L12.0679 2.86391Z" fill="#C2410C"/>
</svg>
