<svg width="26" height="26" viewBox="0 0 26 26" fill="none" xmlns="http://www.w3.org/2000/svg">
<path d="M20.8587 4.23288C22.0095 4.23288 22.9423 3.28528 22.9423 2.11639C22.9423 0.947506 22.0095 0 20.8587 0C19.7079 0 18.775 0.947506 18.775 2.11639C18.775 3.28528 19.7079 4.23288 20.8587 4.23288Z" fill="#BE185D"/>
<path d="M15.1341 9.31158H11.9945C10.7493 9.31158 10.7493 10.9765 11.9945 10.9765L15.5849 10.9702C15.8497 10.9702 16.1271 10.8261 16.3351 10.4899L18.1382 7.60178L18.1319 24.7736C18.1319 25.43 18.6552 25.9615 19.3014 25.9615C19.9476 25.9615 20.4709 25.43 20.4709 24.7736V14.8124H21.259L21.2527 24.7736C21.2527 25.43 21.776 25.9615 22.4222 25.9615C23.0684 25.9615 23.5917 25.43 23.5917 24.7736V7.60178H24.3671V13.9319C24.3671 15.2063 26.0063 15.2063 26 13.9319V7.47045C26 6.06482 24.9282 4.68168 23.3048 4.68168H19.4559C18.5197 4.68168 17.7064 5.16831 17.2272 5.91435L15.1341 9.31158Z" fill="#BE185D"/>
<path d="M2.60973 19.9421C4.48848 19.9421 6.00787 21.4854 6.00787 23.3938L5.97634 25.7375H9.97972L13.5985 15.3634L13.6174 11.8477L1.46546 11.8541L1.45915 19.9324L2.60973 19.9421Z" fill="#BE185D"/>
<path d="M0 23.3937C0 21.956 1.15057 20.7873 2.56594 20.7873C3.98131 20.7873 5.13188 21.956 5.13188 23.3937C5.13188 24.8313 3.98131 26 2.56594 26C1.15057 26 0 24.8313 0 23.3937ZM2.56909 24.5272C3.18378 24.5272 3.68499 24.0212 3.68499 23.3937C3.68499 22.7661 3.18694 22.2602 2.56909 22.2602C1.95125 22.2602 1.45319 22.7661 1.45319 23.3937C1.45319 24.0212 1.95125 24.5272 2.56909 24.5272Z" fill="#BE185D"/>
<path d="M11.3801 6.53865L10.9009 6.7756L10.674 6.29534L10.2011 6.52585L9.97418 6.04558L9.50134 6.27609L9.26807 5.79582H9.27438L8.79523 6.03278L8.56827 5.54606V5.55242L8.09543 5.78302L7.86847 5.28986L6.42788 9.46196C6.31125 9.79816 6.49093 10.176 6.82192 10.288L9.14829 11.1078C9.47927 11.2262 9.84494 11.0437 9.96157 10.7075L11.3801 6.53865Z" fill="#BE185D"/>
<path d="M9.33928 2.32646L8.66718 1.75026L0.768145 11.2565L1.44024 11.8327L9.33928 2.32646Z" fill="#BE185D"/>
</svg>
