<svg width="26" height="26" viewBox="0 0 26 26" fill="none" xmlns="http://www.w3.org/2000/svg">
<path d="M14.1501 3.77763C15.2167 3.77763 16.0814 2.93195 16.0814 1.88881C16.0814 0.845682 15.2167 0 14.1501 0C13.0836 0 12.2189 0.845682 12.2189 1.88881C12.2189 2.93195 13.0836 3.77763 14.1501 3.77763Z" fill="#EAB308"/>
<path d="M12.3658 4.5488C12.7468 4.28763 13.2125 4.11245 13.714 4.15067C14.3817 4.208 14.9288 4.60613 15.2544 5.09663L17.2019 8.87407L19.8561 10.661C20.0809 10.8298 20.2176 11.1101 20.1948 11.3999C20.1558 11.8713 19.7356 12.2216 19.2569 12.1834C19.1136 12.1706 18.9996 12.1197 18.8596 12.0592L15.9644 10.1068C15.8765 10.0399 15.7983 9.95069 15.7495 9.85833L15.0167 8.44735L14.1439 12.2122L17.5667 16.1616C17.6383 16.2859 17.6937 16.4229 17.723 16.5662L18.6479 21.3438C18.6414 21.4489 18.6609 21.5125 18.6544 21.6049C18.5958 22.3088 17.9673 22.8312 17.2475 22.7738C16.6548 22.7293 16.2119 22.2961 16.0719 21.7674L15.1958 17.2956L12.4179 14.3142L11.7698 17.2128C11.7502 17.3497 11.5646 17.6363 11.5093 17.7542L8.84529 22.1527C8.57824 22.5572 8.13207 22.8121 7.62403 22.7738C6.9043 22.7165 6.36369 22.1018 6.42231 21.3979C6.4386 21.1972 6.52327 20.9934 6.60143 20.85L9.08302 16.7763L11.1445 7.81671L9.79624 8.88048L9.08302 12.0784C8.98858 12.4829 8.60755 12.8172 8.15487 12.7821C7.67614 12.7439 7.31464 12.3395 7.35372 11.8681C7.36024 11.8298 7.36349 11.7949 7.37326 11.7567L8.22652 8.03016C8.27211 7.86772 8.36655 7.72431 8.49356 7.6192L12.3658 4.5488Z" fill="#EAB308"/>
<path d="M25.9656 23.4296C25.8158 23.4742 26.0861 23.4743 25.9656 23.4743C25.8418 23.4011 26.0861 23.3244 25.9656 23.3244C24.3861 23.1684 22.393 23.0889 20.8167 23.2449C20.6962 23.2449 20.211 23.4934 20.0905 23.4934C18.6348 23.5666 17.7815 23.4009 16.4463 23.6302C14.3815 23.936 12.3168 23.4742 10.1315 23.7035C8.19056 23.8596 6.12583 23.7036 4.06434 23.7832C3.0906 23.0857 1.37106 23.3978 0 23.4296V26H25.9688L25.9656 23.4296Z" fill="#EAB308"/>
</svg>
