<svg width="249" height="30" viewBox="0 0 249 30" fill="none" xmlns="http://www.w3.org/2000/svg">
<path d="M0.286687 28.2135C0.0369359 28.3313 -0.0700236 28.6292 0.047786 28.879C0.165596 29.1287 0.463562 29.2357 0.713313 29.1179L0.5 28.6657L0.286687 28.2135ZM248.5 28.6657L245.186 23.9383L242.749 29.1723L248.5 28.6657ZM0.5 28.6657L0.713313 29.1179C1.58898 28.7048 2.46704 28.296 3.34747 27.8915L3.13871 27.4372L2.92995 26.9828C2.04648 27.3888 1.16538 27.799 0.286687 28.2135L0.5 28.6657ZM8.45319 25.0597L8.65277 25.5181C10.4276 24.7455 12.2116 23.9901 14.0047 23.2521L13.8144 22.7897L13.6241 22.3273C11.8248 23.0679 10.0346 23.8259 8.25362 24.6013L8.45319 25.0597ZM19.2203 20.6281L19.4013 21.0942C21.2055 20.3937 23.0185 19.7108 24.84 19.0455L24.6685 18.5759L24.497 18.1062C22.6692 18.7738 20.8499 19.4591 19.0394 20.162L19.2203 20.6281ZM30.1573 16.6338L30.3193 17.1068C32.15 16.4797 33.989 15.8704 35.8361 15.2791L35.6836 14.8029L35.5312 14.3267C33.6777 14.9201 31.8323 15.5315 29.9952 16.1608L30.1573 16.6338ZM41.2464 13.0837L41.3892 13.5628C43.2435 13.0102 45.1055 12.4755 46.975 11.9591L46.8419 11.4771L46.7088 10.9952C44.8327 11.5134 42.9643 12.0499 41.1036 12.6045L41.2464 13.0837ZM52.4697 9.98351L52.5931 10.468C54.4678 9.99068 56.3498 9.53154 58.2388 9.09083L58.1252 8.60391L58.0116 8.11698C56.116 8.55922 54.2275 9.01995 52.3464 9.49897L52.4697 9.98351ZM63.8089 7.33813L63.9127 7.82725C65.8047 7.42583 67.7035 7.04283 69.609 6.67845L69.5151 6.18735L69.4212 5.69625C67.5091 6.06189 65.6037 6.44621 63.7051 6.84902L63.8089 7.33813ZM75.2448 5.15121L75.3288 5.6441C77.2353 5.31907 79.1481 5.01262 81.0671 4.72494L80.993 4.23047L80.9188 3.73599C78.9933 4.02466 77.0738 4.33217 75.1608 4.65832L75.2448 5.15121ZM86.7592 3.42498L86.8234 3.92084C88.7413 3.67246 90.6651 3.4428 92.5945 3.23202L92.5402 2.73498L92.4859 2.23794C90.5499 2.44943 88.6195 2.67989 86.695 2.92912L86.7592 3.42498ZM98.3335 2.16049L98.3778 2.65852C100.304 2.48685 102.236 2.33398 104.173 2.2001L104.138 1.70129L104.104 1.20248C102.16 1.33682 100.222 1.49021 98.2891 1.66247L98.3335 2.16049ZM109.949 1.35747L109.974 1.85686C111.905 1.76176 113.841 1.68551 115.782 1.6283L115.767 1.12852L115.753 0.628738C113.805 0.686139 111.862 0.762644 109.924 0.858074L109.949 1.35747ZM121.588 1.01427L121.593 1.51425C122.561 1.50476 123.53 1.5 124.5 1.5V1V0.5C123.526 0.5 122.554 0.504773 121.583 0.514296L121.588 1.01427ZM124.5 1V1.5C125.47 1.5 126.439 1.50476 127.408 1.51425L127.412 1.01427L127.417 0.514297C126.446 0.504773 125.474 0.5 124.5 0.5V1ZM133.233 1.12852L133.218 1.6283C135.159 1.68551 137.095 1.76176 139.026 1.85687L139.051 1.35747L139.076 0.858076C137.138 0.762645 135.195 0.68614 133.247 0.628739L133.233 1.12852ZM144.862 1.70129L144.827 2.2001C146.764 2.33398 148.696 2.48685 150.622 2.65852L150.667 2.16049L150.711 1.66247C148.778 1.49021 146.84 1.33682 144.896 1.20248L144.862 1.70129ZM156.46 2.73498L156.406 3.23202C158.335 3.4428 160.259 3.67247 162.177 3.92084L162.241 3.42498L162.305 2.92912C160.381 2.67989 158.45 2.44944 156.514 2.23794L156.46 2.73498ZM168.007 4.23047L167.933 4.72494C169.852 5.01262 171.765 5.31907 173.671 5.6441L173.755 5.15121L173.839 4.65832C171.926 4.33217 170.007 4.02467 168.081 3.736L168.007 4.23047ZM179.485 6.18735L179.391 6.67845C181.296 7.04284 183.195 7.42583 185.087 7.82725L185.191 7.33813L185.295 6.84902C183.396 6.44622 181.491 6.0619 179.579 5.69625L179.485 6.18735ZM190.875 8.60391L190.761 9.09083C192.65 9.53154 194.532 9.99068 196.407 10.4681L196.53 9.98351L196.654 9.49897C194.772 9.01995 192.884 8.55922 190.988 8.11698L190.875 8.60391ZM202.158 11.4772L202.025 11.9591C203.895 12.4755 205.757 13.0102 207.611 13.5628L207.754 13.0837L207.896 12.6045C206.036 12.0499 204.167 11.5134 202.291 10.9952L202.158 11.4772ZM213.316 14.8029L213.164 15.2791C215.011 15.8704 216.85 16.4797 218.681 17.1068L218.843 16.6338L219.005 16.1608C217.168 15.5315 215.322 14.9201 213.469 14.3267L213.316 14.8029ZM224.331 18.5759L224.16 19.0455C225.981 19.7108 227.794 20.3937 229.599 21.0942L229.78 20.6281L229.961 20.162C228.15 19.4591 226.331 18.7738 224.503 18.1062L224.331 18.5759ZM235.186 22.7897L234.995 23.2521C236.788 23.9901 238.572 24.7455 240.347 25.5182L240.547 25.0597L240.746 24.6013C238.965 23.826 237.175 23.0679 235.376 22.3273L235.186 22.7897ZM0.286687 28.2135C0.0369359 28.3313 -0.0700236 28.6292 0.047786 28.879C0.165596 29.1287 0.463562 29.2357 0.713313 29.1179L0.5 28.6657L0.286687 28.2135ZM248.5 28.6657L245.186 23.9383L242.749 29.1723L248.5 28.6657ZM0.5 28.6657L0.713313 29.1179C1.58898 28.7048 2.46704 28.296 3.34747 27.8915L3.13871 27.4372L2.92995 26.9828C2.04648 27.3888 1.16538 27.799 0.286687 28.2135L0.5 28.6657ZM8.45319 25.0597L8.65277 25.5181C10.4276 24.7455 12.2116 23.9901 14.0047 23.2521L13.8144 22.7897L13.6241 22.3273C11.8248 23.0679 10.0346 23.8259 8.25362 24.6013L8.45319 25.0597ZM19.2203 20.6281L19.4013 21.0942C21.2055 20.3937 23.0185 19.7108 24.84 19.0455L24.6685 18.5759L24.497 18.1062C22.6692 18.7738 20.8499 19.4591 19.0394 20.162L19.2203 20.6281ZM30.1573 16.6338L30.3193 17.1068C32.15 16.4797 33.989 15.8704 35.8361 15.2791L35.6836 14.8029L35.5312 14.3267C33.6777 14.9201 31.8323 15.5315 29.9952 16.1608L30.1573 16.6338ZM41.2464 13.0837L41.3892 13.5628C43.2435 13.0102 45.1055 12.4755 46.975 11.9591L46.8419 11.4771L46.7088 10.9952C44.8327 11.5134 42.9643 12.0499 41.1036 12.6045L41.2464 13.0837ZM52.4697 9.98351L52.5931 10.468C54.4678 9.99068 56.3498 9.53154 58.2388 9.09083L58.1252 8.60391L58.0116 8.11698C56.116 8.55922 54.2275 9.01995 52.3464 9.49897L52.4697 9.98351ZM63.8089 7.33813L63.9127 7.82725C65.8047 7.42583 67.7035 7.04283 69.609 6.67845L69.5151 6.18735L69.4212 5.69625C67.5091 6.06189 65.6037 6.44621 63.7051 6.84902L63.8089 7.33813ZM75.2448 5.15121L75.3288 5.6441C77.2353 5.31907 79.1481 5.01262 81.0671 4.72494L80.993 4.23047L80.9188 3.73599C78.9933 4.02466 77.0738 4.33217 75.1608 4.65832L75.2448 5.15121ZM86.7592 3.42498L86.8234 3.92084C88.7413 3.67246 90.6651 3.4428 92.5945 3.23202L92.5402 2.73498L92.4859 2.23794C90.5499 2.44943 88.6195 2.67989 86.695 2.92912L86.7592 3.42498ZM98.3335 2.16049L98.3778 2.65852C100.304 2.48685 102.236 2.33398 104.173 2.2001L104.138 1.70129L104.104 1.20248C102.16 1.33682 100.222 1.49021 98.2891 1.66247L98.3335 2.16049ZM109.949 1.35747L109.974 1.85686C111.905 1.76176 113.841 1.68551 115.782 1.6283L115.767 1.12852L115.753 0.628738C113.805 0.686139 111.862 0.762644 109.924 0.858074L109.949 1.35747ZM121.588 1.01427L121.593 1.51425C122.561 1.50476 123.53 1.5 124.5 1.5V1V0.5C123.526 0.5 122.554 0.504773 121.583 0.514296L121.588 1.01427ZM124.5 1V1.5C125.47 1.5 126.439 1.50476 127.408 1.51425L127.412 1.01427L127.417 0.514297C126.446 0.504773 125.474 0.5 124.5 0.5V1ZM133.233 1.12852L133.218 1.6283C135.159 1.68551 137.095 1.76176 139.026 1.85687L139.051 1.35747L139.076 0.858076C137.138 0.762645 135.195 0.68614 133.247 0.628739L133.233 1.12852ZM144.862 1.70129L144.827 2.2001C146.764 2.33398 148.696 2.48685 150.622 2.65852L150.667 2.16049L150.711 1.66247C148.778 1.49021 146.84 1.33682 144.896 1.20248L144.862 1.70129ZM156.46 2.73498L156.406 3.23202C158.335 3.4428 160.259 3.67247 162.177 3.92084L162.241 3.42498L162.305 2.92912C160.381 2.67989 158.45 2.44944 156.514 2.23794L156.46 2.73498ZM168.007 4.23047L167.933 4.72494C169.852 5.01262 171.765 5.31907 173.671 5.6441L173.755 5.15121L173.839 4.65832C171.926 4.33217 170.007 4.02467 168.081 3.736L168.007 4.23047ZM179.485 6.18735L179.391 6.67845C181.296 7.04284 183.195 7.42583 185.087 7.82725L185.191 7.33813L185.295 6.84902C183.396 6.44622 181.491 6.0619 179.579 5.69625L179.485 6.18735ZM190.875 8.60391L190.761 9.09083C192.65 9.53154 194.532 9.99068 196.407 10.4681L196.53 9.98351L196.654 9.49897C194.772 9.01995 192.884 8.55922 190.988 8.11698L190.875 8.60391ZM202.158 11.4772L202.025 11.9591C203.895 12.4755 205.757 13.0102 207.611 13.5628L207.754 13.0837L207.896 12.6045C206.036 12.0499 204.167 11.5134 202.291 10.9952L202.158 11.4772ZM213.316 14.8029L213.164 15.2791C215.011 15.8704 216.85 16.4797 218.681 17.1068L218.843 16.6338L219.005 16.1608C217.168 15.5315 215.322 14.9201 213.469 14.3267L213.316 14.8029ZM224.331 18.5759L224.16 19.0455C225.981 19.7108 227.794 20.3937 229.599 21.0942L229.78 20.6281L229.961 20.162C228.15 19.4591 226.331 18.7738 224.503 18.1062L224.331 18.5759ZM235.186 22.7897L234.995 23.2521C236.788 23.9901 238.572 24.7455 240.347 25.5182L240.547 25.0597L240.746 24.6013C238.965 23.826 237.175 23.0679 235.376 22.3273L235.186 22.7897Z" fill="#AFAFAF"/>
</svg>
