<svg width="23" height="23" viewBox="0 0 23 23" fill="none" xmlns="http://www.w3.org/2000/svg">
<path d="M11.1629 11.129H11.1722M14.8567 5.58832V3.74143C14.8567 3.2516 14.6621 2.78183 14.3158 2.43547C13.9694 2.08911 13.4997 1.89453 13.0098 1.89453H9.31605C8.82622 1.89453 8.35646 2.08911 8.0101 2.43547C7.66374 2.78183 7.46915 3.2516 7.46915 3.74143V5.58832M20.3974 12.0525C17.6574 13.8615 14.4463 14.8258 11.1629 14.8258C7.87958 14.8258 4.66853 13.8615 1.92847 12.0525M3.77536 5.58832H18.5505C19.5705 5.58832 20.3974 6.4152 20.3974 7.43522V16.6697C20.3974 17.6897 19.5705 18.5166 18.5505 18.5166H3.77536C2.75535 18.5166 1.92847 17.6897 1.92847 16.6697V7.43522C1.92847 6.4152 2.75535 5.58832 3.77536 5.58832Z" stroke="white" stroke-width="1.10814" stroke-linecap="round" stroke-linejoin="round"/>
</svg>
