<svg width="41" height="40" viewBox="0 0 41 40" fill="none" xmlns="http://www.w3.org/2000/svg">
<path d="M20.5 20.0002H20.5167M27.1667 10.0002V6.66683C27.1667 5.78277 26.8155 4.93493 26.1904 4.30981C25.5653 3.68469 24.7174 3.3335 23.8334 3.3335H17.1667C16.2827 3.3335 15.4348 3.68469 14.8097 4.30981C14.1846 4.93493 13.8334 5.78277 13.8334 6.66683V10.0002M37.1667 21.6668C32.2214 24.9318 26.426 26.6723 20.5 26.6723C14.5741 26.6723 8.77872 24.9318 3.83337 21.6668M7.16671 10.0002H33.8334C35.6743 10.0002 37.1667 11.4925 37.1667 13.3335V30.0002C37.1667 31.8411 35.6743 33.3335 33.8334 33.3335H7.16671C5.32576 33.3335 3.83337 31.8411 3.83337 30.0002V13.3335C3.83337 11.4925 5.32576 10.0002 7.16671 10.0002Z" stroke="white" stroke-width="2" stroke-linecap="round" stroke-linejoin="round"/>
</svg>
