<svg width="36" height="36" viewBox="0 0 36 36" fill="none" xmlns="http://www.w3.org/2000/svg">
<path d="M27.0224 15.5852C28.4228 16.1073 29.669 16.9742 30.6457 18.1055C31.6224 19.2369 32.298 20.5963 32.6101 22.0579C32.9222 23.5196 32.8607 25.0364 32.4313 26.468C32.0019 27.8996 31.2184 29.1998 30.1534 30.2484C29.0883 31.2969 27.776 32.06 26.3379 32.467C24.8998 32.8741 23.3822 32.9119 21.9256 32.577C20.469 32.2421 19.1203 31.5454 18.0043 30.5512C16.8883 29.5569 16.0411 28.2974 15.5409 26.8889M10.593 9.11098H12.0744V15.0369M24.9779 20.7849L26.0149 21.8367L21.8372 26.0145M20.9633 12.0739C20.9633 16.9831 16.9836 20.9628 12.0744 20.9628C7.16524 20.9628 3.18555 16.9831 3.18555 12.0739C3.18555 7.16475 7.16524 3.18506 12.0744 3.18506C16.9836 3.18506 20.9633 7.16475 20.9633 12.0739Z" stroke="#14532D" stroke-width="1.77778" stroke-linecap="round" stroke-linejoin="round"/>
</svg>
