<svg width="40" height="40" viewBox="0 0 40 40" fill="none" xmlns="http://www.w3.org/2000/svg">
<path d="M20.0001 19.9998V20.0165M18.0452 27.2983C16.2988 28.1809 14.3343 28.5391 12.3888 28.3297C10.4433 28.1204 8.59996 27.3524 7.0813 26.1185C5.56264 24.8846 4.43356 23.2375 3.83035 21.3761C3.22714 19.5147 3.17558 17.5184 3.68189 15.6283L12.7019 18.045C11.8194 16.2986 11.4611 14.3341 11.6705 12.3886C11.8799 10.443 12.6478 8.59972 13.8817 7.08105C15.1156 5.56239 16.7627 4.43332 18.6241 3.83011C20.4856 3.22689 22.4818 3.17534 24.3719 3.68165L21.9552 12.7016C23.7016 11.8191 25.6662 11.4609 27.6117 11.6703C29.5572 11.8796 31.4005 12.6476 32.9192 13.8815C34.4378 15.1154 35.5669 16.7624 36.1701 18.6239C36.7733 20.4853 36.8249 22.4816 36.3186 24.3717L27.2986 21.955C28.1811 23.7014 28.5393 25.6659 28.33 27.6114C28.1206 29.5569 27.3526 31.4003 26.1187 32.9189C24.8848 34.4376 23.2378 35.5667 21.3763 36.1699C19.5149 36.7731 17.5187 36.8246 15.6286 36.3183L18.0452 27.2983Z" stroke="#0E7490" stroke-width="2" stroke-linecap="round" stroke-linejoin="round"/>
</svg>
