<svg width="40" height="40" viewBox="0 0 40 40" fill="none" xmlns="http://www.w3.org/2000/svg">
<path d="M20.0001 13.3335L30.0001 8.3335L20.0001 3.3335V20.0002M13.3336 19.9835L4.16694 25.2168C3.91044 25.3622 3.69709 25.573 3.54866 25.8277C3.40023 26.0824 3.32202 26.372 3.32202 26.6668C3.32202 26.9616 3.40023 27.2512 3.54866 27.5059C3.69709 27.7606 3.91044 27.9715 4.16694 28.1168L18.3336 36.2168C18.8403 36.5094 19.4151 36.6634 20.0003 36.6634C20.5854 36.6634 21.1602 36.5094 21.6669 36.2168L35.8336 28.1168C36.0901 27.9715 36.3034 27.7606 36.4519 27.5059C36.6003 27.2512 36.6785 26.9616 36.6785 26.6668C36.6785 26.372 36.6003 26.0824 36.4519 25.8277C36.3034 25.573 36.0901 25.3622 35.8336 25.2168L26.6669 20.0001M10.8167 21.417L29.1834 31.917M29.1834 21.417L10.8334 31.917" stroke="#DB2777" stroke-width="2" stroke-linecap="round" stroke-linejoin="round"/>
</svg>
