<svg width="40" height="40" viewBox="0 0 40 40" fill="none" xmlns="http://www.w3.org/2000/svg">
<path d="M10.1332 15.8334L4.29989 18.5001C4.01356 18.6347 3.77146 18.848 3.60188 19.1151C3.4323 19.3822 3.34224 19.692 3.34224 20.0084C3.34224 20.3248 3.4323 20.6346 3.60188 20.9017C3.77146 21.1688 4.01356 21.3822 4.29989 21.5167L18.6332 28.0334C19.0652 28.229 19.534 28.3302 20.0082 28.3302C20.4825 28.3302 20.9512 28.229 21.3832 28.0334L35.6832 21.5334C35.979 21.403 36.2304 21.1894 36.407 20.9187C36.5835 20.6479 36.6775 20.3316 36.6775 20.0084C36.6775 19.6852 36.5835 19.3689 36.407 19.0982C36.2304 18.8274 35.979 18.6138 35.6832 18.4834L29.8499 15.8334M10.1332 24.1667L4.29989 26.8334C4.01356 26.968 3.77146 27.1813 3.60188 27.4484C3.4323 27.7155 3.34224 28.0254 3.34224 28.3417C3.34224 28.6581 3.4323 28.968 3.60188 29.2351C3.77146 29.5022 4.01356 29.7155 4.29989 29.8501L18.6332 36.3667C19.0652 36.5624 19.534 36.6636 20.0082 36.6636C20.4825 36.6636 20.9512 36.5624 21.3832 36.3667L35.6832 29.8667C35.979 29.7363 36.2304 29.5227 36.407 29.252C36.5835 28.9812 36.6775 28.665 36.6775 28.3417C36.6775 28.0185 36.5835 27.7023 36.407 27.4315C36.2304 27.1607 35.979 26.9472 35.6832 26.8167L29.8499 24.1667M21.3832 3.6336C20.949 3.43552 20.4772 3.33301 19.9999 3.33301C19.5226 3.33301 19.0508 3.43552 18.6166 3.6336L4.33323 10.1336C4.03748 10.264 3.78603 10.4776 3.6095 10.7484C3.43298 11.0191 3.33899 11.3354 3.33899 11.6586C3.33899 11.9818 3.43298 12.2981 3.6095 12.5688C3.78603 12.8396 4.03748 13.0532 4.33323 13.1836L18.6332 19.7003C19.0675 19.8984 19.5393 20.0009 20.0166 20.0009C20.4939 20.0009 20.9656 19.8984 21.3999 19.7003L35.6999 13.2003C35.9956 13.0699 36.2471 12.8563 36.4236 12.5855C36.6002 12.3147 36.6941 11.9985 36.6941 11.6753C36.6941 11.352 36.6002 11.0358 36.4236 10.765C36.2471 10.4943 35.9956 10.2807 35.6999 10.1503L21.3832 3.6336Z" stroke="#1E40AF" stroke-width="2" stroke-linecap="round" stroke-linejoin="round"/>
</svg>
