<svg width="249" height="30" viewBox="0 0 249 30" fill="none" xmlns="http://www.w3.org/2000/svg">
<path d="M0.286687 1.78653C0.0369359 1.66872 -0.0700236 1.37075 0.047786 1.121C0.165596 0.871252 0.463562 0.764292 0.713313 0.882103L0.5 1.33432L0.286687 1.78653ZM248.5 1.33432L245.186 6.06171L242.749 0.827681L248.5 1.33432ZM0.5 1.33432L0.713313 0.882103C1.58898 1.29516 2.46704 1.70397 3.34747 2.10851L3.13871 2.56285L2.92995 3.01718C2.04648 2.61124 1.16538 2.20102 0.286687 1.78653L0.5 1.33432ZM8.45319 4.94029L8.65277 4.48185C10.4276 5.25449 12.2116 6.00992 14.0047 6.74793L13.8144 7.2103L13.6241 7.67267C11.8248 6.9321 10.0346 6.17406 8.25362 5.39874L8.45319 4.94029ZM19.2203 9.37193L19.4013 8.90582C21.2055 9.60629 23.0185 10.2892 24.84 10.9545L24.6685 11.4241L24.497 11.8938C22.6692 11.2262 20.8499 10.5409 19.0394 9.83804L19.2203 9.37193ZM30.1573 13.3662L30.3193 12.8932C32.15 13.5203 33.989 14.1296 35.8361 14.7209L35.6836 15.1971L35.5312 15.6733C33.6777 15.0799 31.8323 14.4685 29.9952 13.8392L30.1573 13.3662ZM41.2464 16.9163L41.3892 16.4372C43.2435 16.9898 45.1055 17.5245 46.975 18.0409L46.8419 18.5229L46.7088 19.0048C44.8327 18.4866 42.9643 17.9501 41.1036 17.3955L41.2464 16.9163ZM52.4697 20.0165L52.5931 19.532C54.4678 20.0093 56.3498 20.4685 58.2388 20.9092L58.1252 21.3961L58.0116 21.883C56.116 21.4408 54.2275 20.9801 52.3464 20.501L52.4697 20.0165ZM63.8089 22.6619L63.9127 22.1728C65.8047 22.5742 67.7035 22.9572 69.609 23.3215L69.5151 23.8126L69.4212 24.3038C67.5091 23.9381 65.6037 23.5538 63.7051 23.151L63.8089 22.6619ZM75.2448 24.8488L75.3288 24.3559C77.2353 24.6809 79.1481 24.9874 81.0671 25.2751L80.993 25.7695L80.9188 26.264C78.9933 25.9753 77.0738 25.6678 75.1608 25.3417L75.2448 24.8488ZM86.7592 26.575L86.8234 26.0792C88.7413 26.3275 90.6651 26.5572 92.5945 26.768L92.5402 27.265L92.4859 27.7621C90.5499 27.5506 88.6195 27.3201 86.695 27.0709L86.7592 26.575ZM98.3335 27.8395L98.3778 27.3415C100.304 27.5132 102.236 27.666 104.173 27.7999L104.138 28.2987L104.104 28.7975C102.16 28.6632 100.222 28.5098 98.2891 28.3375L98.3335 27.8395ZM109.949 28.6425L109.974 28.1431C111.905 28.2382 113.841 28.3145 115.782 28.3717L115.767 28.8715L115.753 29.3713C113.805 29.3139 111.862 29.2374 109.924 29.1419L109.949 28.6425ZM121.588 28.9857L121.593 28.4858C122.561 28.4952 123.53 28.5 124.5 28.5V29V29.5C123.526 29.5 122.554 29.4952 121.583 29.4857L121.588 28.9857ZM124.5 29V28.5C125.47 28.5 126.439 28.4952 127.408 28.4858L127.412 28.9857L127.417 29.4857C126.446 29.4952 125.474 29.5 124.5 29.5V29ZM133.233 28.8715L133.218 28.3717C135.159 28.3145 137.095 28.2382 139.026 28.1431L139.051 28.6425L139.076 29.1419C137.138 29.2374 135.195 29.3139 133.247 29.3713L133.233 28.8715ZM144.862 28.2987L144.827 27.7999C146.764 27.666 148.696 27.5131 150.622 27.3415L150.667 27.8395L150.711 28.3375C148.778 28.5098 146.84 28.6632 144.896 28.7975L144.862 28.2987ZM156.46 27.265L156.406 26.768C158.335 26.5572 160.259 26.3275 162.177 26.0792L162.241 26.575L162.305 27.0709C160.381 27.3201 158.45 27.5506 156.514 27.7621L156.46 27.265ZM168.007 25.7695L167.933 25.2751C169.852 24.9874 171.765 24.6809 173.671 24.3559L173.755 24.8488L173.839 25.3417C171.926 25.6678 170.007 25.9753 168.081 26.264L168.007 25.7695ZM179.485 23.8126L179.391 23.3215C181.296 22.9572 183.195 22.5742 185.087 22.1728L185.191 22.6619L185.295 23.151C183.396 23.5538 181.491 23.9381 179.579 24.3037L179.485 23.8126ZM190.875 21.3961L190.761 20.9092C192.65 20.4685 194.532 20.0093 196.407 19.5319L196.53 20.0165L196.654 20.501C194.772 20.9801 192.884 21.4408 190.988 21.883L190.875 21.3961ZM202.158 18.5228L202.025 18.0409C203.895 17.5245 205.757 16.9898 207.611 16.4372L207.754 16.9163L207.896 17.3955C206.036 17.9501 204.167 18.4866 202.291 19.0048L202.158 18.5228ZM213.316 15.1971L213.164 14.7209C215.011 14.1296 216.85 13.5203 218.681 12.8932L218.843 13.3662L219.005 13.8392C217.168 14.4685 215.322 15.0799 213.469 15.6733L213.316 15.1971ZM224.331 11.4241L224.16 10.9545C225.981 10.2892 227.794 9.60628 229.599 8.90582L229.78 9.37192L229.961 9.83803C228.15 10.5409 226.331 11.2262 224.503 11.8938L224.331 11.4241ZM235.186 7.21029L234.995 6.74792C236.788 6.00992 238.572 5.25448 240.347 4.48184L240.547 4.94028L240.746 5.39873C238.965 6.17405 237.175 6.93209 235.376 7.67266L235.186 7.21029ZM0.286687 1.78653C0.0369359 1.66872 -0.0700236 1.37075 0.047786 1.121C0.165596 0.871252 0.463562 0.764292 0.713313 0.882103L0.5 1.33432L0.286687 1.78653ZM248.5 1.33432L245.186 6.06171L242.749 0.827681L248.5 1.33432ZM0.5 1.33432L0.713313 0.882103C1.58898 1.29516 2.46704 1.70397 3.34747 2.10851L3.13871 2.56285L2.92995 3.01718C2.04648 2.61124 1.16538 2.20102 0.286687 1.78653L0.5 1.33432ZM8.45319 4.94029L8.65277 4.48185C10.4276 5.25449 12.2116 6.00992 14.0047 6.74793L13.8144 7.2103L13.6241 7.67267C11.8248 6.9321 10.0346 6.17406 8.25362 5.39874L8.45319 4.94029ZM19.2203 9.37193L19.4013 8.90582C21.2055 9.60629 23.0185 10.2892 24.84 10.9545L24.6685 11.4241L24.497 11.8938C22.6692 11.2262 20.8499 10.5409 19.0394 9.83804L19.2203 9.37193ZM30.1573 13.3662L30.3193 12.8932C32.15 13.5203 33.989 14.1296 35.8361 14.7209L35.6836 15.1971L35.5312 15.6733C33.6777 15.0799 31.8323 14.4685 29.9952 13.8392L30.1573 13.3662ZM41.2464 16.9163L41.3892 16.4372C43.2435 16.9898 45.1055 17.5245 46.975 18.0409L46.8419 18.5229L46.7088 19.0048C44.8327 18.4866 42.9643 17.9501 41.1036 17.3955L41.2464 16.9163ZM52.4697 20.0165L52.5931 19.532C54.4678 20.0093 56.3498 20.4685 58.2388 20.9092L58.1252 21.3961L58.0116 21.883C56.116 21.4408 54.2275 20.9801 52.3464 20.501L52.4697 20.0165ZM63.8089 22.6619L63.9127 22.1728C65.8047 22.5742 67.7035 22.9572 69.609 23.3215L69.5151 23.8126L69.4212 24.3038C67.5091 23.9381 65.6037 23.5538 63.7051 23.151L63.8089 22.6619ZM75.2448 24.8488L75.3288 24.3559C77.2353 24.6809 79.1481 24.9874 81.0671 25.2751L80.993 25.7695L80.9188 26.264C78.9933 25.9753 77.0738 25.6678 75.1608 25.3417L75.2448 24.8488ZM86.7592 26.575L86.8234 26.0792C88.7413 26.3275 90.6651 26.5572 92.5945 26.768L92.5402 27.265L92.4859 27.7621C90.5499 27.5506 88.6195 27.3201 86.695 27.0709L86.7592 26.575ZM98.3335 27.8395L98.3778 27.3415C100.304 27.5132 102.236 27.666 104.173 27.7999L104.138 28.2987L104.104 28.7975C102.16 28.6632 100.222 28.5098 98.2891 28.3375L98.3335 27.8395ZM109.949 28.6425L109.974 28.1431C111.905 28.2382 113.841 28.3145 115.782 28.3717L115.767 28.8715L115.753 29.3713C113.805 29.3139 111.862 29.2374 109.924 29.1419L109.949 28.6425ZM121.588 28.9857L121.593 28.4858C122.561 28.4952 123.53 28.5 124.5 28.5V29V29.5C123.526 29.5 122.554 29.4952 121.583 29.4857L121.588 28.9857ZM124.5 29V28.5C125.47 28.5 126.439 28.4952 127.408 28.4858L127.412 28.9857L127.417 29.4857C126.446 29.4952 125.474 29.5 124.5 29.5V29ZM133.233 28.8715L133.218 28.3717C135.159 28.3145 137.095 28.2382 139.026 28.1431L139.051 28.6425L139.076 29.1419C137.138 29.2374 135.195 29.3139 133.247 29.3713L133.233 28.8715ZM144.862 28.2987L144.827 27.7999C146.764 27.666 148.696 27.5131 150.622 27.3415L150.667 27.8395L150.711 28.3375C148.778 28.5098 146.84 28.6632 144.896 28.7975L144.862 28.2987ZM156.46 27.265L156.406 26.768C158.335 26.5572 160.259 26.3275 162.177 26.0792L162.241 26.575L162.305 27.0709C160.381 27.3201 158.45 27.5506 156.514 27.7621L156.46 27.265ZM168.007 25.7695L167.933 25.2751C169.852 24.9874 171.765 24.6809 173.671 24.3559L173.755 24.8488L173.839 25.3417C171.926 25.6678 170.007 25.9753 168.081 26.264L168.007 25.7695ZM179.485 23.8126L179.391 23.3215C181.296 22.9572 183.195 22.5742 185.087 22.1728L185.191 22.6619L185.295 23.151C183.396 23.5538 181.491 23.9381 179.579 24.3037L179.485 23.8126ZM190.875 21.3961L190.761 20.9092C192.65 20.4685 194.532 20.0093 196.407 19.5319L196.53 20.0165L196.654 20.501C194.772 20.9801 192.884 21.4408 190.988 21.883L190.875 21.3961ZM202.158 18.5228L202.025 18.0409C203.895 17.5245 205.757 16.9898 207.611 16.4372L207.754 16.9163L207.896 17.3955C206.036 17.9501 204.167 18.4866 202.291 19.0048L202.158 18.5228ZM213.316 15.1971L213.164 14.7209C215.011 14.1296 216.85 13.5203 218.681 12.8932L218.843 13.3662L219.005 13.8392C217.168 14.4685 215.322 15.0799 213.469 15.6733L213.316 15.1971ZM224.331 11.4241L224.16 10.9545C225.981 10.2892 227.794 9.60628 229.599 8.90582L229.78 9.37192L229.961 9.83803C228.15 10.5409 226.331 11.2262 224.503 11.8938L224.331 11.4241ZM235.186 7.21029L234.995 6.74792C236.788 6.00992 238.572 5.25448 240.347 4.48184L240.547 4.94028L240.746 5.39873C238.965 6.17405 237.175 6.93209 235.376 7.67266L235.186 7.21029Z" fill="#AFAFAF"/>
</svg>
