<svg width="60" height="60" viewBox="0 0 60 60" fill="none" xmlns="http://www.w3.org/2000/svg">
<path d="M22.0875 35H12.5C11.9913 35.0277 11.5033 35.2102 11.1012 35.5229C10.699 35.8357 10.4021 36.2638 10.25 36.75L5.25 51.75C5 52 5 52.25 5 52.5C5 54 6 55 7.5 55H52.5C54 55 55 54 55 52.5C55 52.25 55 52 54.75 51.75L49.75 36.75C49.5979 36.2638 49.301 35.8357 48.8988 35.5229C48.4967 35.2102 48.0087 35.0277 47.5 35H37.9125M45 20C45 31.25 30 42.5 30 42.5C30 42.5 15 31.25 15 20C15 16.0218 16.5804 12.2064 19.3934 9.3934C22.2064 6.58035 26.0218 5 30 5C33.9782 5 37.7936 6.58035 40.6066 9.3934C43.4196 12.2064 45 16.0218 45 20ZM35 20C35 22.7614 32.7614 25 30 25C27.2386 25 25 22.7614 25 20C25 17.2386 27.2386 15 30 15C32.7614 15 35 17.2386 35 20Z" stroke="#DB2777" stroke-width="4" stroke-linecap="round" stroke-linejoin="round"/>
</svg>
