<svg width="23" height="23" viewBox="0 0 23 23" fill="none" xmlns="http://www.w3.org/2000/svg">
<path d="M5.43732 10.4826L1.92822 20.3635L11.8091 16.8637M3.77512 2.81798H3.78435M20.3972 7.43522H20.4064M13.933 1.89453H13.9423M20.3972 18.5166H20.4064M20.3972 1.89453L18.3287 2.58712C17.7398 2.78325 17.2374 3.17779 16.9073 3.70331C16.5772 4.22883 16.4398 4.8527 16.5187 5.46827C16.611 6.26244 15.9923 6.97349 15.1797 6.97349H14.8288C14.0346 6.97349 13.3513 7.52756 13.2035 8.30326L13.0096 9.28211M20.3972 12.0524L19.6399 11.7477C18.8458 11.4337 17.9593 11.9323 17.8115 12.7727C17.7099 13.4191 17.1466 13.8993 16.491 13.8993H15.7799M10.2393 1.89453L10.544 2.65176C10.858 3.44592 10.3593 4.33243 9.51896 4.48018C8.87255 4.57253 8.39236 5.14507 8.39236 5.80071V6.51177M10.2393 12.0525C12.0215 13.8347 12.8526 15.9032 12.0862 16.6697C11.3197 17.4362 9.25118 16.6051 7.46892 14.8228C5.68667 13.0406 4.85557 10.972 5.62203 10.2056C6.38849 9.43911 8.45701 10.2702 10.2393 12.0525Z" stroke="white" stroke-width="1.10814" stroke-linecap="round" stroke-linejoin="round"/>
</svg>
