<svg width="41" height="40" viewBox="0 0 41 40" fill="none" xmlns="http://www.w3.org/2000/svg">
<path d="M20.5007 36.6668C29.7054 36.6668 37.1673 29.2049 37.1673 20.0002C37.1673 10.7954 29.7054 3.3335 20.5007 3.3335C11.2959 3.3335 3.83398 10.7954 3.83398 20.0002C3.83398 29.2049 11.2959 36.6668 20.5007 36.6668Z" stroke="white" stroke-width="2" stroke-linecap="round" stroke-linejoin="round"/>
<path d="M20.5007 30.0002C26.0235 30.0002 30.5007 25.523 30.5007 20.0002C30.5007 14.4773 26.0235 10.0002 20.5007 10.0002C14.9778 10.0002 10.5007 14.4773 10.5007 20.0002C10.5007 25.523 14.9778 30.0002 20.5007 30.0002Z" stroke="white" stroke-width="2" stroke-linecap="round" stroke-linejoin="round"/>
<path d="M20.5007 23.3335C22.3416 23.3335 23.834 21.8411 23.834 20.0002C23.834 18.1592 22.3416 16.6668 20.5007 16.6668C18.6597 16.6668 17.1673 18.1592 17.1673 20.0002C17.1673 21.8411 18.6597 23.3335 20.5007 23.3335Z" stroke="white" stroke-width="2" stroke-linecap="round" stroke-linejoin="round"/>
</svg>
