<svg width="41" height="40" viewBox="0 0 41 40" fill="none" xmlns="http://www.w3.org/2000/svg">
<path d="M27.1667 35V31.6667C27.1667 29.8986 26.4643 28.2029 25.2141 26.9526C23.9638 25.7024 22.2682 25 20.5 25H10.5C8.73193 25 7.03624 25.7024 5.786 26.9526C4.53575 28.2029 3.83337 29.8986 3.83337 31.6667V35M27.1667 18.3333L30.5 21.6667L37.1667 15M22.1667 11.6667C22.1667 15.3486 19.1819 18.3333 15.5 18.3333C11.8181 18.3333 8.83337 15.3486 8.83337 11.6667C8.83337 7.98477 11.8181 5 15.5 5C19.1819 5 22.1667 7.98477 22.1667 11.6667Z" stroke="white" stroke-width="2" stroke-linecap="round" stroke-linejoin="round"/>
</svg>
