<svg width="23" height="23" viewBox="0 0 23 23" fill="none" xmlns="http://www.w3.org/2000/svg">
<path d="M3.77511 12.9417C3.60036 12.9423 3.42903 12.8933 3.28102 12.8004C3.13301 12.7075 3.0144 12.5745 2.93897 12.4169C2.86354 12.2592 2.83438 12.0834 2.85489 11.9099C2.8754 11.7363 2.94473 11.5722 3.05482 11.4365L12.1969 2.0173C12.2655 1.93814 12.359 1.88465 12.462 1.86561C12.5649 1.84656 12.6713 1.8631 12.7637 1.91249C12.856 1.96189 12.9289 2.04122 12.9702 2.13745C13.0115 2.23368 13.0189 2.34111 12.9911 2.44209L11.2181 8.00124C11.1658 8.14117 11.1483 8.29168 11.1669 8.43989C11.1856 8.58809 11.2399 8.72955 11.3253 8.85213C11.4107 8.97471 11.5245 9.07476 11.657 9.14369C11.7895 9.21263 11.9368 9.24838 12.0861 9.2479H18.5503C18.725 9.2473 18.8963 9.2963 19.0444 9.3892C19.1924 9.48211 19.311 9.6151 19.3864 9.77273C19.4618 9.93036 19.491 10.1062 19.4705 10.2797C19.45 10.4532 19.3807 10.6174 19.2706 10.7531L10.1284 20.1723C10.0598 20.2514 9.9664 20.3049 9.86341 20.324C9.76043 20.343 9.65403 20.3265 9.56168 20.2771C9.46933 20.2277 9.39652 20.1484 9.35519 20.0521C9.31387 19.9559 9.30649 19.8485 9.33426 19.7475L11.1073 14.1883C11.1596 14.0484 11.1771 13.8979 11.1584 13.7497C11.1398 13.6015 11.0854 13.46 11.0001 13.3375C10.9147 13.2149 10.8009 13.1148 10.6684 13.0459C10.5359 12.977 10.3886 12.9412 10.2392 12.9417H3.77511Z" stroke="white" stroke-width="1.10814" stroke-linecap="round" stroke-linejoin="round"/>
</svg>
